<svg viewBox="24 92.78153153153153 827.9999999999999 445.83333333333337" xmlns="http://www.w3.org/2000/svg" overflow="visible" xmlns:xlink="http://www.w3.org/1999/xlink" width="827.9999999999999px" height="445.83333333333337px"><g id="Master/Scene/Band" stroke="none" stroke-width="1" fill="none" fill-rule="evenodd"><g id="Background" transform="translate(34.000000, 93.000000) scale(1 1)"><g id="Background/Two Spots Large" stroke="none" stroke-width="1" fill="none" fill-rule="evenodd"><g id="Group-5" transform="translate(-9.000000, 7.000000)" fill="#FFF3F3"><path d="M142.2298,387.418 L579.9458,387.418 L404.6938,91.081 C371.3078,34.629 310.5968,0 245.0108,0 L101.9108,0 C23.1048,0 -25.7902,85.722 14.3258,153.553 L142.2298,387.418 Z" id="Fill-1"/><path d="M610.7209,387.418 L790.8359,387.418 L718.7219,265.479 C704.9839,242.25 680.0019,228 653.0139,228 L594.1299,228 C561.7029,228 541.5829,263.273 558.0899,291.185 L610.7209,387.418 Z" id="Fill-3"/></g></g></g><g id="Ground" transform="translate(83.000000, 343.000000) scale(1 1)"><g id="Ground/Stage" stroke="none" stroke-width="1" fill="none" fill-rule="evenodd"><g id="Group-3" transform="translate(0.000000, 144.000000)"><polygon id="Fill-1" fill="#24305B" points="0 47.912 692.364 47.912 692.364 0 0 0"/><polygon id="Fill-2" fill="#6147D9" points="106.7481 -0.0004 106.7481 23.9556 106.7481 47.9116 734.4041 47.9116 763.3551 47.9116 763.3551 23.9556 734.4041 23.9556 734.4041 -0.0004"/></g></g></g><g id="Chair" transform="translate(117.000000, 231.000000) scale(1 1)"><g id="Chair/Pink" stroke="none" stroke-width="1" fill="none" fill-rule="evenodd"><g id="Group-38" transform="translate(62.000000, 0.000000)"><path d="M96.3579,125.2972 C95.9239,125.2972 95.5259,125.0132 95.3979,124.5772 L59.9369,3.2802 C59.7819,2.7502 60.0869,2.1952 60.6169,2.0402 C61.1489,1.8832 61.7019,2.1892 61.8569,2.7192 L97.3179,124.0162 C97.4729,124.5462 97.1689,125.1012 96.6379,125.2562 C96.5449,125.2842 96.4509,125.2972 96.3579,125.2972" id="Fill-1" fill="#443389"/><polygon id="Fill-3" fill="#443389" points="38.3901 256.6967 36.3921 256.6177 41.6591 123.4147 43.6571 123.4937"/><polygon id="Fill-5" fill="#443389" points="65.8394 256.6644 63.8394 256.6494 64.7774 126.2394 66.7774 126.2534"/><polygon id="Fill-7" fill="#443389" points="146.1528 256.745 134.4138 123.542 136.4058 123.366 148.1448 256.569"/><polygon id="Fill-9" fill="#443389" points="114.4595 256.6884 110.3145 123.4854 112.3145 123.4224 116.4575 256.6264"/><polygon id="Fill-11" fill="#443389" points="40.7856 129.0126 137.5006 129.0126 137.5006 121.1826 41.0826 121.6896"/><path d="M137.5005,129.0126 C137.5005,125.6816 115.8505,122.9816 89.1435,122.9816 C62.4355,122.9816 40.7855,125.6816 40.7855,129.0126 C40.7855,132.3436 62.4355,135.0436 89.1435,135.0436 C115.8505,135.0436 137.5005,132.3436 137.5005,129.0126" id="Fill-13" fill="#443389"/><path d="M137.5005,122.9815 C137.5005,122.9815 130.5775,127.9815 89.1435,127.9815 C47.7085,127.9815 41.0245,122.9815 41.0245,122.9815 L41.0245,122.9815 C41.0245,115.0575 47.4485,108.6325 55.3735,108.6325 L123.1515,108.6325 C131.0765,108.6325 137.5005,115.0575 137.5005,122.9815 Z" id="Fill-15" fill="#FFC1FF"/><path d="M43.7856,130.0131 C43.3566,130.0131 42.9616,129.7361 42.8296,129.3051 L4.2496,3.2931 C4.0876,2.7641 4.3846,2.2051 4.9126,2.0441 C5.4396,1.8801 5.9996,2.1801 6.1616,2.7071 L44.7416,128.7201 C44.9036,129.2481 44.6066,129.8071 44.0786,129.9691 C43.9806,129.9981 43.8826,130.0131 43.7856,130.0131" id="Fill-17" fill="#443389"/><g id="Group-21" transform="translate(0.000000, 0.745000)" fill="#FFC1FF"><path d="M0.2772,8.0105 L13.9022,51.5065 C14.6982,54.0495 17.0832,55.7565 19.7462,55.6915 L75.0512,54.3155 C78.9302,54.2205 81.6892,50.5095 80.6632,46.7675 L68.1172,4.6475 C67.4062,2.0535 65.0482,0.2545 62.3592,0.2545 L5.9752,0.2545 C1.9452,0.2545 -0.9278,4.1645 0.2772,8.0105" id="Fill-19"/></g><path d="M6.9782,6.2861 C6.9782,6.7441 6.6072,7.1161 6.1482,7.1161 C5.6902,7.1161 5.3192,6.7441 5.3192,6.2861 C5.3192,5.8281 5.6902,5.4561 6.1482,5.4561 C6.6072,5.4561 6.9782,5.8281 6.9782,6.2861" id="Fill-22" fill="#443389"/><path d="M8.0819,10.3918 C8.0819,10.8498 7.7109,11.2218 7.2519,11.2218 C6.7939,11.2218 6.4229,10.8498 6.4229,10.3918 C6.4229,9.9338 6.7939,9.5618 7.2519,9.5618 C7.7109,9.5618 8.0819,9.9338 8.0819,10.3918" id="Fill-24" fill="#443389"/><path d="M19.0794,46.6869 C19.0794,47.1449 18.7084,47.5169 18.2494,47.5169 C17.7914,47.5169 17.4204,47.1449 17.4204,46.6869 C17.4204,46.2289 17.7914,45.8569 18.2494,45.8569 C18.7084,45.8569 19.0794,46.2289 19.0794,46.6869" id="Fill-26" fill="#443389"/><path d="M20.5527,50.7926 C20.5527,51.2506 20.1817,51.6226 19.7227,51.6226 C19.2647,51.6226 18.8937,51.2506 18.8937,50.7926 C18.8937,50.3346 19.2647,49.9626 19.7227,49.9626 C20.1817,49.9626 20.5527,50.3346 20.5527,50.7926" id="Fill-28" fill="#443389"/><path d="M62.5561,5.2861 C62.5561,5.7441 62.1851,6.1161 61.7261,6.1161 C61.2681,6.1161 60.8971,5.7441 60.8971,5.2861 C60.8971,4.8281 61.2681,4.4561 61.7261,4.4561 C62.1851,4.4561 62.5561,4.8281 62.5561,5.2861" id="Fill-30" fill="#443389"/><path d="M63.6598,9.3918 C63.6598,9.8498 63.2888,10.2218 62.8298,10.2218 C62.3718,10.2218 62.0008,9.8498 62.0008,9.3918 C62.0008,8.9338 62.3718,8.5618 62.8298,8.5618 C63.2888,8.5618 63.6598,8.9338 63.6598,9.3918" id="Fill-32" fill="#443389"/><path d="M74.6573,45.6869 C74.6573,46.1449 74.2863,46.5169 73.8273,46.5169 C73.3693,46.5169 72.9983,46.1449 72.9983,45.6869 C72.9983,45.2289 73.3693,44.8569 73.8273,44.8569 C74.2863,44.8569 74.6573,45.2289 74.6573,45.6869" id="Fill-34" fill="#443389"/><path d="M76.1306,49.7926 C76.1306,50.2506 75.7596,50.6226 75.3006,50.6226 C74.8426,50.6226 74.4716,50.2506 74.4716,49.7926 C74.4716,49.3346 74.8426,48.9626 75.3006,48.9626 C75.7596,48.9626 76.1306,49.3346 76.1306,49.7926" id="Fill-36" fill="#443389"/></g></g></g><g id="Musical Notes" transform="translate(410.000000, 119.000000) scale(1 1)"><g id="Musical Notes/Melody 1" stroke="none" stroke-width="1" fill="none" fill-rule="evenodd"><g id="Musical-Notes"><g id="Group-3" transform="translate(88.000000, 80.436000)" fill="#D1DDF0"><path d="M1.0773,24.7207 C1.0833,24.7057 1.0943,24.6937 1.1003,24.6787 L1.1003,0.1457 L23.1893,2.9847 L23.1893,27.0537 C24.3923,26.1777 26.3453,25.9977 28.2553,26.7387 C30.8743,27.7537 32.4083,30.0977 31.6803,31.9747 C30.9533,33.8507 28.2403,34.5487 25.6213,33.5337 C23.6623,32.7747 22.3113,31.2707 22.0603,29.7757 L21.9733,29.7757 L21.9733,7.2227 L2.3173,4.6967 L2.3173,23.3237 C3.5303,22.5897 5.3473,22.4677 7.1363,23.1607 C9.7553,24.1767 11.2883,26.5207 10.5613,28.3967 C9.8333,30.2737 7.1213,30.9717 4.5023,29.9567 C1.8833,28.9417 0.3503,26.5977 1.0773,24.7207" id="Fill-1"/></g><g id="Group-6" transform="translate(60.000000, 0.436000)" fill="#B9C8FF"><path d="M0.369,25.1382 C0.375,25.1232 0.386,25.1112 0.392,25.0962 L0.392,0.5632 L22.481,3.4022 L22.481,27.4712 C23.684,26.5952 25.637,26.4152 27.547,27.1562 C30.166,28.1712 31.7,30.5152 30.972,32.3922 C30.245,34.2682 27.532,34.9662 24.913,33.9512 C22.954,33.1922 21.603,31.6882 21.352,30.1932 L21.265,30.1932 L21.265,7.6402 L1.609,5.1142 L1.609,23.7412 C2.822,23.0072 4.639,22.8852 6.428,23.5782 C9.047,24.5942 10.58,26.9382 9.853,28.8142 C9.125,30.6912 6.413,31.3892 3.794,30.3742 C1.175,29.3592 -0.358,27.0152 0.369,25.1382" id="Fill-4"/></g><path d="M38.2986,49.5159 L47.0106,51.1389 L47.0106,75.2069 C48.2136,74.3319 50.1656,74.1509 52.0766,74.8919 C54.6956,75.9069 56.2286,78.2519 55.5016,80.1279 C54.7736,82.0049 52.0616,82.7029 49.4426,81.6879 C47.4836,80.9279 46.1326,79.4239 45.8806,77.9289 L45.7946,77.9289 L45.7946,55.3769 C45.7946,55.3769 39.6516,54.6999 38.2986,49.5159" id="Fill-7" fill="#FFC1FF"/><path d="M0,29.0618 L8.712,30.6848 L8.712,54.7528 C9.915,53.8778 11.867,53.6968 13.778,54.4378 C16.397,55.4528 17.93,57.7978 17.203,59.6738 C16.475,61.5508 13.763,62.2488 11.144,61.2338 C9.185,60.4738 7.834,58.9698 7.582,57.4748 L7.496,57.4748 L7.496,34.9228 C7.496,34.9228 1.353,34.2458 0,29.0618" id="Fill-9" fill="#8069FF"/></g></g></g><g transform="translate(184.000000, 93.000000) scale(1 1)" id="Master/Character/Sitting"><g id="Master/Character/Sitting" stroke="none" stroke-width="1" fill="none" fill-rule="evenodd"><g id="Sitting/Lower Body" transform="translate(77.000000, 128.000000) scale(1 1)"><g id="Sitting/Lower Body/Blue Pants" stroke="none" stroke-width="1" fill="none" fill-rule="evenodd"><g id="Group-38" transform="translate(0.000000, 57.000000)"><polygon id="Fill-1" fill="#ffdee3" points="71.3939 186.7678 69.5879 131.8028 135.1059 85.4068 153.1809 198.5228 109.5709 202.5258"/><g id="Group-37" transform="translate(0.000000, 0.455000)"><path d="M70.9997,160.5556 C70.4727,149.6696 69.6447,146.7916 69.5447,137.5326 C69.5127,134.5686 67.1447,136.6646 67.9027,126.7866 C69.8087,101.9686 61.5987,74.0506 18.5177,61.7056 L13.7867,57.4336 C13.1667,56.6686 11.3367,49.6946 12.0767,49.0446 L25.1717,28.3386 L45.3187,28.3386 C45.3187,28.3386 69.2407,27.1676 100.6897,35.9616 C118.7337,41.0076 124.6257,50.2016 134.2457,77.6076 C136.1837,83.1276 148.3287,105.8146 139.4337,112.9036 C132.2877,118.5986 138.9657,127.2956 142.3277,135.8796 L70.9997,160.5556 Z" id="Fill-2" fill="#643FE1"/><polygon id="Fill-4" fill="#ffdee3" points="168.2302 139.2409 148.7182 101.6419 191.4432 44.0919 245.5002 121.7929 190.3142 144.1029"/><path d="M166.4967,138.0155 L178.7997,170.7135 L280.6897,132.2705 C275.0537,117.3335 243.4827,109.5015 237.4947,109.533402 L234.6007,118.5315 C233.2007,122.8825 229.5337,126.1185 225.0427,126.9665 L166.4967,138.0155 Z" id="Fill-6" fill="#443389"/><path d="M264.265,117.4117 L256.776,141.2927 L280.689,132.2697 C280.689,132.2697 278.933,124.8077 264.265,117.4117" id="Fill-8" fill="#B9C8FF"/><path d="M243.891,120.8987 L242.899,120.7777 C242.931,120.5077 243.735,114.1227 246.33,110.8507 L247.114,111.4717 C244.691,114.5257 243.899,120.8357 243.891,120.8987" id="Fill-10" fill="#FF9B8F"/><path d="M252.2553,123.1189 L251.2573,123.0549 C251.2753,122.7849 251.7113,116.4049 253.9113,113.2249 L254.7343,113.7949 C252.6903,116.7479 252.2593,123.0559 252.2553,123.1189" id="Fill-12" fill="#FF9B8F"/><polygon id="Fill-14" fill="#FF9B8F" points="283.2878 136.3493 179.4538 175.5253 177.6298 170.6923 281.4638 131.5153"/><path d="M218.5111,155.3938 C218.3511,155.2158 202.0941,137.7418 169.1211,145.1798 L168.9011,144.2048 C202.4801,136.6308 219.0901,154.5428 219.2531,154.7238 L218.5111,155.3938 Z" id="Fill-16" fill="#FF9B8F"/><path d="M0.0394,28.3382 C0.0394,28.3382 0.0774,17.7192 24.2824,17.8092 C48.4874,17.8992 47.2204,28.3382 47.2204,28.3382 C50.7314,28.3382 81.4514,17.0032 97.7864,8.9052 C145.1274,-14.5628 174.0524,17.1612 187.5224,33.2992 C195.5184,42.8782 204.6984,57.2942 214.4004,69.6182 C216.7114,72.5542 215.1884,74.3132 216.2454,75.8692 C221.0454,82.9432 221.8414,88.3952 227.5924,95.2062 L161.9414,126.7862 C161.9414,126.7862 159.4444,123.0192 151.7044,109.5332 C151.3524,108.9202 149.2524,108.0502 148.3284,105.8142 C146.2914,100.8852 144.2534,93.4682 140.9524,86.8032 C114.1504,32.6732 78.6134,44.8712 45.8904,62.1822 C27.9034,71.6982 7.9474,59.3512 2.6594,43.9582 C-0.5296,34.6732 0.0394,28.3382 0.0394,28.3382" id="Fill-18" fill="#8069FF"/><polygon id="Fill-20" fill="#643FE1" points="19.3246 44.3547 18.3246 44.3527 18.3596 28.3217 19.3596 28.3237"/><path d="M176.4379,94.3494 C176.1709,93.8934 149.4899,48.5624 122.2279,33.7224 C104.4999,24.0724 80.2099,33.8624 60.6919,41.7294 C49.7139,46.1534 40.2229,49.9844 33.5659,49.8734 C11.8909,49.5424 8.7339,28.6194 8.7049,28.4084 L9.6949,28.2704 C9.8109,29.0984 12.7739,48.5564 33.5819,48.8734 C40.0119,48.9984 49.4399,45.1864 60.3179,40.8014 C80.0319,32.8564 104.5659,22.9674 122.7069,32.8444 C150.2129,47.8174 177.0339,93.3874 177.3009,93.8454 L176.4379,94.3494 Z" id="Fill-22" fill="#643FE1"/><path d="M70.7068,170.3308 L70.6748,205.2658 L179.5758,205.2658 C179.5758,189.3018 152.8018,170.8288 147.1878,168.7448 L141.3038,176.1428 C138.4588,179.7188 133.8848,181.4528 129.3838,180.6598 L70.7068,170.3308 Z" id="Fill-24" fill="#443389"/><path d="M169.454,185.5664 L154.017,205.2664 L179.576,205.2664 C179.576,205.2664 180.567,197.6644 169.454,185.5664" id="Fill-26" fill="#B9C8FF"/><path d="M149.1615,181.637 L148.2745,181.173 C148.4015,180.932 151.4055,175.242 154.9905,173.096 L155.5045,173.955 C152.1585,175.957 149.1905,181.58 149.1615,181.637" id="Fill-28" fill="#FF9B8F"/><path d="M156.2025,186.6667 L155.2925,186.2537 C155.4035,186.0067 158.0645,180.1917 161.2445,177.9947 L161.8125,178.8167 C158.8585,180.8587 156.2285,186.6087 156.2025,186.6667" id="Fill-30" fill="#FF9B8F"/><polygon id="Fill-32" fill="#FF9B8F" points="69.588 210 180.567 210 180.567 204.834 69.588 204.834"/><path d="M113.2377,204.9519 C113.1507,204.7289 104.1137,182.6429 70.6337,177.9599 L70.7717,176.9699 C104.8617,181.7379 114.0807,204.3589 114.1697,204.5869 L113.2377,204.9519 Z" id="Fill-34" fill="#FF9B8F"/><polygon id="Fill-35" fill="#B9C8FF" points="216.4581 76.2593 227.5921 95.2053 161.7541 128.3043 151.7041 109.5333"/><polygon id="Fill-36" fill="#B9C8FF" points="140.4335 111.9035 144.4895 136.7295 69.9995 161.5555 69.5455 137.5325"/></g></g></g></g><g id="Head" transform="translate(0.000000, 45.000000) scale(1 1)"><g id="Head/Ponytail" stroke="none" stroke-width="1" fill="none" fill-rule="evenodd"><g id="Head" transform="translate(19.000000, 24.000000)"><polygon id="Fill-1" fill="#ffdee3" points="75.4479 28.5783 75.4479 57.9863 96.3139 62.6203 89.5659 28.5783"/><g id="Group-17" transform="translate(0.000000, 0.620800)"><path d="M94.6209,53.4455 L93.7369,49.0155 L78.4819,35.4845 C78.4819,35.4845 80.9639,43.6205 86.1209,47.6255 C89.9199,50.5765 94.6209,53.4455 94.6209,53.4455" id="Fill-2" fill="#ffbdb1"/><path d="M94.5631,49.0609 L94.5631,49.0609 C84.9451,49.0609 77.6271,37.9919 77.6271,30.8679 L77.6271,13.3629 C77.6271,6.2389 83.7851,4.2499 91.5651,4.2499 C99.3451,4.2499 102.8331,5.6819 104.5891,8.4269 L104.8571,32.6519 C104.8571,41.7299 102.3431,49.0609 94.5631,49.0609" id="Fill-4" fill="#ffdee3"/><path d="M71.5518,30.3604 L70.9788,28.8824 C70.0928,26.5964 71.2278,24.0254 73.5128,23.1394 L73.5308,23.1324 C75.8168,22.2464 78.3878,23.3804 79.2738,25.6664 L79.8468,27.1444 C80.7328,29.4304 79.5988,32.0014 77.3128,32.8874 L77.2948,32.8944 C75.0088,33.7804 72.4378,32.6464 71.5518,30.3604" id="Fill-6" fill="#ffdee3"/><path d="M72.8468,28.7826 C72.6088,28.7826 72.3978,28.6116 72.3558,28.3676 C72.3498,28.3356 72.2178,27.5486 72.5248,26.6876 C72.8118,25.8796 73.5368,24.8516 75.3638,24.5356 C75.6288,24.4876 75.8938,24.6706 75.9418,24.9426 C75.9888,25.2156 75.8058,25.4736 75.5338,25.5206 C74.4498,25.7086 73.7538,26.2136 73.4658,27.0226 C73.2498,27.6286 73.3388,28.1916 73.3398,28.1976 C73.3878,28.4696 73.2048,28.7276 72.9338,28.7756 C72.9048,28.7806 72.8758,28.7826 72.8468,28.7826" id="Fill-8" fill="#ffbdb1"/><g id="Group-12" transform="translate(69.000000, 0.000000)" fill="#ebeced"><path d="M21.6745,1.0533 C0.0085,-0.6707 -2.9695,16.7033 2.5685,24.6313 C3.0495,23.9833 3.7045,23.4523 4.5125,23.1393 L4.5315,23.1323 C6.8165,22.2463 9.3875,23.3803 10.2735,25.6663 L10.3705,25.9153 C11.3495,25.2073 12.1235,24.2613 12.1725,23.0083 C12.2245,21.6683 12.8035,19.7343 14.2495,17.9463 C14.6235,17.4843 14.6365,10.7003 16.4975,8.7863 C16.6375,8.6423 16.1515,10.4133 16.0815,12.2443 C16.0115,14.0753 16.3575,15.9643 16.5345,15.8433 C19.3205,13.9243 23.6845,12.7193 30.2925,13.6793 C37.0565,14.6623 37.3185,17.5043 37.4485,14.1493 C37.8725,3.1283 28.5645,1.5413 22.3635,1.1043 C22.1285,1.0883 21.8985,1.0713 21.6745,1.0533" id="Fill-10"/></g><path d="M0,12.1522 C0,12.1522 26.419,30.2462 47.279,6.0982 C54.25,-1.9718 66.792,-1.3438 74.846,6.9862 C74.846,6.9862 61.833,9.9032 63.638,28.1682 C64.175,33.6012 60.872,38.6892 55.767,40.6242 L47.408,43.7932 L55.287,21.5982 L41.567,44.9782 C41.567,44.9782 32.873,50.2822 18.338,44.9782 C0.602,38.5072 0,12.1522 0,12.1522" id="Fill-13" fill="#ebeced"/><path d="M69.9279,11.3026 C69.8169,11.3026 69.7019,11.2836 69.5909,11.2436 C69.0719,11.0576 68.7999,10.4856 68.9869,9.9656 C70.8979,4.6196 73.6489,3.4336 73.9559,3.3156 C74.4699,3.1186 75.0489,3.3766 75.2469,3.8926 C75.4439,4.4036 75.1919,4.9756 74.6859,5.1776 C74.6149,5.2096 72.4519,6.2126 70.8689,10.6386 C70.7239,11.0476 70.3379,11.3026 69.9279,11.3026" id="Fill-15" fill="#F85786"/></g></g></g></g><g id="Expression" transform="translate(100.000000, 78.000000) scale(1 1)"><g id="Expression/Grinning" stroke="none" stroke-width="1" fill="none" fill-rule="evenodd"><g id="Group-20" transform="translate(6.000000, 6.000000)"><path d="M1,4.662 C0.761,4.662 0.521,4.577 0.33,4.404 C-0.08,4.034 -0.112,3.402 0.258,2.992 C0.363,2.874 2.915,0.125 7.197,1.478 C7.724,1.645 8.016,2.207 7.849,2.734 C7.683,3.26 7.125,3.554 6.594,3.386 C3.519,2.413 1.76,4.313 1.742,4.332 C1.545,4.551 1.272,4.662 1,4.662" id="Fill-1" fill="#ebeced"/><g id="Group-5" transform="translate(13.000000, 0.109400)" fill="#ebeced"><path d="M3.2754,3.6117 C2.9824,3.6117 2.6934,3.4837 2.4964,3.2397 C2.4464,3.1837 2.0744,2.8107 1.2734,2.9067 C0.7304,2.9767 0.2284,2.5787 0.1644,2.0297 C0.0994,1.4817 0.4924,0.9847 1.0414,0.9207 C2.9964,0.6907 3.9654,1.8697 4.0694,2.0047 C4.4044,2.4437 4.3204,3.0707 3.8814,3.4057 C3.7004,3.5447 3.4874,3.6117 3.2754,3.6117" id="Fill-3"/></g><path d="M8.1364,11.0666 C8.1364,13.2796 6.6734,15.0726 4.8694,15.0726 C3.0654,15.0726 1.6024,13.2796 1.6024,11.0666 C1.6024,8.8536 3.0654,7.0606 4.8694,7.0606 C6.6734,7.0606 8.1364,8.8536 8.1364,11.0666" id="Fill-6" fill="#FFF"/><path d="M4.8694,7.0602 L4.8694,15.0732 C6.6734,15.0732 8.1364,13.2792 8.1364,11.0662 C8.1364,8.8542 6.6734,7.0602 4.8694,7.0602" id="Fill-8" fill="#1D1D1B"/><path d="M15.8598,10.927 C15.8598,12.953 14.9848,14.595 13.9048,14.595 C12.8248,14.595 11.9498,12.953 11.9498,10.927 C11.9498,8.901 12.8248,7.259 13.9048,7.259 C14.9848,7.259 15.8598,8.901 15.8598,10.927" id="Fill-10" fill="#FFF"/><path d="M13.9048,7.259 L13.9048,14.595 C14.9848,14.595 15.8598,12.953 15.8598,10.927 C15.8598,8.901 14.9848,7.259 13.9048,7.259" id="Fill-12" fill="#1D1D1B"/><path d="M13.7779,18.665 L7.9039,18.815 C6.9679,18.839 6.2529,19.655 6.3529,20.586 C6.5769,22.679 7.3949,26.04 10.2979,26.995 C12.7869,27.813 14.7949,24.068 14.4499,19.281 C14.4249,18.929 14.1309,18.656 13.7779,18.665" id="Fill-14" fill="#3F1A81"/><path d="M7.8285,18.7465 L13.6475,18.5965 C14.1515,18.5835 14.5615,19.0005 14.5375,19.5045 L14.4615,21.1555 L6.4735,21.4585 C6.4735,21.4585 6.3695,20.9695 6.3405,20.4475 C6.2815,19.7135 7.0275,18.7675 7.8285,18.7465" id="Fill-16" fill="#FFF"/><path d="M6.4733,21.4584 L11.7543,21.2584 C11.7543,21.2584 14.5273,22.2834 14.0403,23.7304 C13.5573,25.1624 12.9253,27.0494 11.0443,27.1074 C7.1993,27.2264 6.4733,21.4584 6.4733,21.4584" id="Fill-18" fill="#EA477F"/></g></g></g><g id="Beard" transform="translate(90.000000, 94.000000) scale(1 1)" fill="#000"><g id="Beard/None" stroke="none" stroke-width="1" fill="none" fill-rule="evenodd" fill-opacity="0"/></g><g id="Accesories" transform="translate(88.000000, 86.000000) scale(1 1)" fill="#000"><g id="Accesories/None" stroke="none" stroke-width="1" fill="none" fill-rule="evenodd" fill-opacity="0"/></g><g id="Upper Body" transform="translate(-30.000000, 64.000000) scale(1 1)"><g id="Upper Body/Listening Music" stroke="none" stroke-width="1" fill="none" fill-rule="evenodd"><g id="Group-41" transform="translate(68.000000, -2.000000)"><path d="M68.9757,65.7538 C58.6547,63.0098 49.3657,69.1238 48.1567,83.7168 C46.8507,99.4908 59.4897,137.1138 80.9657,134.6428 C95.3207,132.9908 120.7447,115.7408 118.2667,103.1198 C115.4047,88.5418 97.6277,101.2288 91.4417,97.5258 C87.9687,95.4478 92.0667,71.8938 68.9757,65.7538" id="Fill-1" fill="#643FE1"/><path d="M115.3098,107.9275 C115.3098,107.9275 114.1498,110.2105 121.4958,104.4475 C128.8418,98.6845 149.9758,92.7425 143.1518,71.3505 C143.1518,71.3505 129.3158,83.2335 124.8138,86.1795 C122.1418,87.9275 127.9298,79.2775 126.2508,75.9495 C125.2998,74.0645 115.7308,86.5395 114.3718,91.6195 C113.5268,94.7775 112.7478,98.7835 112.7478,98.7835 L115.3098,107.9275 Z" id="Fill-3" fill="#ffdee3"/><path d="M40.7172,55.5882 C28.3102,52.6492 20.2472,63.2962 18.8042,80.7192 C17.2442,99.5512 25.8472,129.2012 51.6472,128.4752 C80.5702,127.6612 90.7372,84.3382 70.1952,83.5022 C54.4202,82.8592 58.5082,90.6632 52.7292,89.8202 C44.3382,88.5952 57.7982,59.6342 40.7172,55.5882" id="Fill-5" fill="#6754E1"/><path d="M106.7926,96.0783 C106.7926,96.0783 109.5576,99.6073 112.4856,104.3263 C115.4136,109.0453 116.7336,110.8813 116.7336,110.8813 C116.7336,110.8813 124.3926,103.9323 123.4136,102.8913 C122.4346,101.8503 114.8316,90.5943 113.2286,92.3583 C111.6256,94.1233 106.7926,96.0783 106.7926,96.0783" id="Fill-7" fill="#FF9B8F"/><path d="M40.7172,55.5882 C28.3102,52.6492 20.2472,63.2962 18.8042,80.7192 C17.2442,99.5512 25.8472,129.2012 51.6472,128.4752 C80.5702,127.6612 90.7372,84.3382 70.1952,83.5022 C54.4202,82.8592 58.5082,90.6632 52.7292,89.8202 C44.3382,88.5952 57.7982,59.6342 40.7172,55.5882" id="Fill-9" fill="#6754E1"/><path d="M10.1771,135.4156 C5.1801,135.0296 0.5521,122.1646 0.1311,110.4676 C-0.8109,84.3336 3.5321,84.7816 6.8651,85.4886 L10.1771,135.4156 Z" id="Fill-11" fill="#D1DDF0"/><path d="M24.6409,78.8703 C19.3589,55.6503 40.2899,48.6293 55.4659,54.3693 L70.3149,63.4813 L72.4329,64.7803 C83.5129,72.0503 86.5139,85.0053 86.3299,100.2783 L84.5209,128.1403 C84.8259,136.0623 85.9779,141.3323 86.5909,147.5683 C86.7279,148.9623 86.3599,150.3003 84.9599,150.3303 L69.5679,150.5493 L38.6759,150.9903 C23.8169,149.3123 24.6409,78.8703 24.6409,78.8703" id="Fill-13" fill="#B9C8FF"/><path d="M38.6756,150.9905 C38.6756,150.9905 25.3036,148.8685 16.9666,145.4785 C15.5346,144.8955 14.2506,144.2765 13.2086,143.6225 C4.7146,138.2995 4.2086,92.9905 7.7886,69.8575 C11.4656,46.0985 43.9236,50.5035 49.4766,55.1025 C55.0306,59.7015 38.6756,150.9905 38.6756,150.9905" id="Fill-15" fill="#F0DB00"/><path d="M13.5349,125.8107 C13.4739,123.7987 12.0649,76.4907 13.1079,71.5297 C15.5669,59.8317 22.7939,54.6117 36.5399,54.6027 L36.5399,55.6027 C23.1769,55.6117 16.4619,60.4357 14.0869,71.7357 C13.0679,76.5807 14.5199,125.2897 14.5349,125.7807 L13.5349,125.8107 Z" id="Fill-17" fill="#D8B846"/><path d="M65.6701,66.042 C65.6701,66.042 71.2601,78.485 69.0391,162.465 L38.0591,162.504689 C32.4081,162.565 27.5271,158.569 26.4831,153.015 C21.8791,128.504 10.6581,68.538 30.9801,56.223 C51.5961,43.73 65.6701,66.042 65.6701,66.042" id="Fill-19" fill="#8069FF"/><path d="M33.7993,54.8406 C33.7993,54.8406 52.3143,44.8616 60.4293,65.7366 C71.0183,92.9766 48.0093,119.1026 18.1553,140.9716 L18.1553,132.1276 C18.1553,132.1276 57.0293,101.4066 51.7803,68.2746 C49.0093,50.7816 33.7993,54.8406 33.7993,54.8406" id="Fill-21" fill="#3F1A81"/><path d="M18.4056,78.5991 C13.8526,101.0841 21.1676,135.3481 46.9666,134.6321 C79.7726,133.7201 88.7666,87.5931 68.2256,86.7571 C52.4496,86.1141 57.4086,94.3271 51.7726,92.7951 C36.5096,88.6461 51.0046,59.7791 37.7786,57.3811 C30.8316,56.1221 22.5146,58.3101 18.4056,78.5991 Z" id="Fill-23" fill="#643FE1"/><path d="M75.0234,94.3471 C75.0234,94.3471 75.3124,92.3861 74.0614,84.3651 C71.8924,70.4661 64.9454,62.5491 57.7034,60.0211 C57.7034,60.0211 62.1124,68.4241 60.2244,71.1111 C58.6164,73.3991 55.1874,67.6501 54.1204,69.1861 C52.6234,71.3431 56.9974,81.2561 61.2734,84.5071 C63.9324,86.5291 62.3594,91.2661 62.3594,91.2661 L75.0234,94.3471 Z" id="Fill-25" fill="#ffdee3"/><path d="M59.9613,89.7986 C59.9613,89.7986 61.5373,93.1896 67.0053,95.5856 C72.4733,97.9816 75.1273,95.1546 75.1273,95.1546 C75.1273,95.1546 76.2563,87.7076 74.7433,87.3096 C73.2303,86.9126 61.7133,82.5506 61.2733,84.5076 C60.8333,86.4636 59.9613,89.7986 59.9613,89.7986" id="Fill-27" fill="#FF9B8F"/><polygon id="Fill-29" fill="#6754E1" points="63.845 162.505 64.845 162.505 64.845 153.959 63.845 153.959"/><polygon id="Fill-31" fill="#6754E1" points="58.471 162.505 59.471 162.505 59.471 153.959 58.471 153.959"/><polygon id="Fill-32" fill="#6754E1" points="53.141 162.505 54.141 162.505 54.141 153.959 53.141 153.959"/><polygon id="Fill-33" fill="#6754E1" points="48.272 162.505 49.272 162.505 49.272 153.959 48.272 153.959"/><polygon id="Fill-34" fill="#6754E1" points="42.778 162.505 43.778 162.505 43.778 153.959 42.778 153.959"/><polygon id="Fill-35" fill="#6754E1" points="37.943 162.505 38.943 162.505 38.943 153.959 37.943 153.959"/><polygon id="Fill-36" fill="#6754E1" points="38.0672 154.4586 38.0512 153.4586 68.4742 152.9856 68.4902 153.9856"/><path d="M170.2789,95.8772 C170.2839,95.8652 170.2929,95.8562 170.2969,95.8442 L170.2969,76.5482 L187.6709,78.7812 L187.6709,97.7122 C188.6169,97.0232 190.1529,96.8812 191.6559,97.4642 C193.7149,98.2622 194.9209,100.1062 194.3489,101.5822 C193.7769,103.0582 191.6429,103.6072 189.5839,102.8092 C188.0429,102.2112 186.9799,101.0292 186.7819,99.8532 L186.7139,99.8532 L186.7139,82.1152 L171.2539,80.1272 L171.2539,94.7792 C172.2089,94.2012 173.6379,94.1052 175.0449,94.6502 C177.1039,95.4492 178.3099,97.2932 177.7379,98.7682 C177.1659,100.2442 175.0319,100.7942 172.9729,99.9952 C170.9129,99.1972 169.7069,97.3532 170.2789,95.8772" id="Fill-37" fill="#D1DDF0"/><path d="M132.4546,19.3285 C132.4596,19.3165 132.4686,19.3075 132.4726,19.2955 L132.4726,-0.0005 L149.8466,2.2325 L149.8466,21.1635 C150.7926,20.4745 152.3286,20.3325 153.8316,20.9155 C155.8906,21.7135 157.0966,23.5575 156.5246,25.0335 C155.9526,26.5095 153.8186,27.0585 151.7596,26.2605 C150.2186,25.6625 149.1556,24.4805 148.9576,23.3045 L148.8896,23.3045 L148.8896,5.5665 L133.4296,3.5785 L133.4296,18.2305 C134.3846,17.6525 135.8136,17.5565 137.2206,18.1015 C139.2796,18.9005 140.4856,20.7445 139.9136,22.2195 C139.3416,23.6955 137.2076,24.2455 135.1486,23.4465 C133.0886,22.6485 131.8826,20.8045 132.4546,19.3285" id="Fill-38" fill="#B9C8FF"/><path d="M160.6843,38.6317 L167.5363,39.9077 L167.5363,58.8387 C168.4823,58.1497 170.0183,58.0077 171.5213,58.5907 C173.5813,59.3897 174.7873,61.2327 174.2153,62.7087 C173.6423,64.1847 171.5093,64.7337 169.4493,63.9357 C167.9083,63.3377 166.8463,62.1557 166.6483,60.9797 L166.5803,60.9797 L166.5803,43.2417 C166.5803,43.2417 161.7493,42.7087 160.6843,38.6317" id="Fill-39" fill="#FFC1FF"/><path d="M111.5992,29.7333 L118.4512,31.0093 L118.4512,49.9403 C119.3972,49.2513 120.9332,49.1093 122.4362,49.6923 C124.4962,50.4913 125.7022,52.3343 125.1302,53.8103 C124.5572,55.2863 122.4242,55.8353 120.3642,55.0373 C118.8232,54.4393 117.7612,53.2573 117.5632,52.0813 L117.4952,52.0813 L117.4952,34.3433 C117.4952,34.3433 112.6642,33.8103 111.5992,29.7333" id="Fill-40" fill="#8069FF"/></g><g id="Group-10" transform="translate(187.000000, 65.000000)"><g id="Group-3" transform="translate(0.000000, 0.642300)" fill="#F85786"><path d="M3.8486,25.8422 L0.1666,17.5292 C-0.2254,16.6442 0.0936,15.6052 0.9146,15.0922 L24.0246,0.6532 C24.9776,0.0582 26.2346,0.3922 26.7676,1.3812 L30.7026,8.6922 C31.1796,9.5782 30.9016,10.6822 30.0626,11.2372 L6.6986,26.6772 C5.6956,27.3402 4.3356,26.9422 3.8486,25.8422" id="Fill-1"/></g><polygon id="Fill-4" fill="#443389" points="6.7816 24.598 2.9416 15.597 24.1536 2.279 28.3946 10.306"/><polygon id="Fill-6" fill="#643FE1" points="14.7193 16.9749 12.3153 11.7319 23.0603 5.0539 25.6383 9.7629"/><path d="M11.4607,17.4702 C11.2357,18.9812 9.9307,20.0392 8.5457,19.8322 C7.1607,19.6262 6.2197,18.2342 6.4447,16.7232 C6.6697,15.2122 7.9747,14.1542 9.3597,14.3612 C10.7457,14.5672 11.6857,15.9592 11.4607,17.4702" id="Fill-8" fill="#8069FF"/></g></g></g></g></g><g id="Floor Object" transform="translate(44.000000, 48.000000) scale(1 1)"><g id="Floor Object/Tall Microphone" stroke="none" stroke-width="1" fill="none" fill-rule="evenodd"><g id="Group-18" transform="translate(131.500000, 282.500000) scale(-1, 1) translate(-131.500000, -282.500000) translate(74.000000, 122.000000)"><g id="Group-3" transform="translate(24.000000, 0.000000)" fill="#FFC1FF"><path d="M9.79932353,27.1767353 L3.4755,20.3173235 C-1.04391176,15.4158529 -0.733323529,7.77820588 4.16814706,3.25967647 L4.16814706,3.25967647 C9.06961765,-1.25973529 16.7063824,-0.949147059 21.2257941,3.95232353 L27.5496176,10.8117353 C30.8213824,14.3605588 30.5972647,19.8902647 27.0484412,23.1620294 L22.1487353,27.6779118 C18.5999118,30.9496765 13.0710882,30.7255588 9.79932353,27.1767353" id="Fill-1"/></g><path d="M67.0302056,48.1293902 L70.9091143,44.6586547 C72.283906,43.428145 72.371123,41.3476237 71.1033295,40.0132625 L49.7567435,17.0594571 C48.4880509,15.7242232 46.3453899,15.6395711 44.969699,16.8709535 L41.0916895,20.3416889 C39.7159986,21.5721986 39.6287816,23.6518473 40.8965751,24.9870812 L62.2440602,47.9408866 C63.5118538,49.2761205 65.6545148,49.3598999 67.0302056,48.1293902" id="Fill-4" fill="#443389"/><g id="Group-8" transform="translate(0.000000, 39.000000)" fill="#B9C8FF"><polygon id="Fill-6" points="1.44499194 281.628803 -8.87096774e-05 280.603349 52.3545887 207.269204 52.3545887 0.822220063 54.1287823 0.822220063 54.1287823 207.833204"/></g><g id="Group-11" transform="translate(53.000000, 245.000000)" fill="#B9C8FF"><path d="M8.85625714,76 C8.40897143,76 8.02634286,75.664186 7.97674286,75.2108372 L0.0203714286,1.67111628 C-0.0212571429,1.28051163 0.199285714,0.910232558 0.561542857,0.76 C0.9238,0.610651163 1.34362857,0.715813953 1.58985714,1.01893023 L61.2878857,74.5595349 C61.5961143,74.9395349 61.5376571,75.4962791 61.1568,75.8029302 C60.7768286,76.1104651 60.2197143,76.0503721 59.9114857,75.6730233 L2.10445714,4.46190698 L9.73754286,75.0217209 C9.79068571,75.506 9.43817143,75.9425581 8.95191429,75.9946977 C8.92002857,75.9982326 8.88725714,76 8.85625714,76" id="Fill-9"/></g><path d="M34.2356193,277.724404 L77.7494106,279.099401 L56.1140717,265.927951 L34.2356193,277.724404 Z M81.1158704,281 L81.0884649,281 L30.8567828,279.413327 C30.4563084,279.399873 30.1141814,279.115545 30.0231243,278.719101 C29.9320672,278.323554 30.1159495,277.91545 30.4686851,277.724404 L55.7259741,264.105385 C55.9991453,263.956494 56.3288957,263.96636 56.5958786,264.128705 L81.5711558,279.334397 C81.9168191,279.544279 82.0777161,279.964043 81.9636737,280.3569 C81.8531676,280.738993 81.5075043,281 81.1158704,281 L81.1158704,281 Z" id="Fill-12" fill="#B9C8FF"/><path d="M51.9100147,42 C51.6687976,42 51.4284908,41.9078931 51.2491709,41.7236794 C50.904185,41.3685365 50.918749,40.8079244 51.2846708,40.4713801 L63.4638573,29.2431972 C63.829779,28.9066528 64.4059693,28.9208231 64.7500449,29.2768516 C65.0959411,29.6311088 65.0813771,30.1917209 64.7154553,30.5282653 L52.5353586,41.7573338 C52.3596797,41.9194065 52.1348472,42 51.9100147,42" id="Fill-14" fill="#B9C8FF"/><path d="M74.2787657,237.56919 C76.1768267,242.687605 78.5608052,246.544333 81.5254291,248.78104 C88.735254,254.219743 90.15266,253.349126 90.161431,253.338509 C90.2614213,253.25534 90.4438597,252.474085 89.4290461,250.433797 C87.0862916,245.718839 80.0799557,238.207997 74.2787657,237.56919 M77.345134,320 C76.2101567,320 75.4295309,319.861091 75.3523455,319.846049 L75.6689813,318.1057 C75.7093283,318.111893 79.8343656,318.834753 82.7867099,316.637861 C84.4567229,315.395639 85.4653967,313.425248 85.7820325,310.785084 C86.3547838,306.025887 82.7691678,301.557781 78.2301357,295.903193 C71.4509706,287.45626 63.0140722,276.943381 63,259.313384 C62.9877589,245.203901 65.9181756,237.347997 71.7079632,235.963326 C71.763221,235.950055 71.8184787,235.936783 71.8737365,235.926166 C60.1573325,199.93181 68.7301827,115.175815 72.7464586,75.4680645 C73.6612819,66.4168314 74.3234982,59.8757007 74.3191127,57.7902895 C74.3085874,52.3453933 73.1280005,48.3771841 70.9027784,46.3156618 C69.08278,44.6283987 67.1996299,44.7681929 67.1154275,44.7726168 L66.9514084,43.0110327 C67.0628011,43 69.6379891,42.7739134 72.0438954,44.9690365 C74.7059171,47.4003941 76.0619256,51.7118955 76.073328,57.7867505 C76.0777135,59.9641781 75.446196,66.2027162 74.4910258,75.6476735 C70.8027881,112.114499 61.8913744,200.229094 73.6437398,235.755405 C80.5685047,235.860693 88.4063386,244.428839 90.9981917,249.64104 C92.2287738,252.117521 92.3261327,253.818941 91.2876372,254.694867 C90.3035225,255.525669 88.1125076,255.960093 80.4746541,250.197563 C77.1486619,247.68923 74.5138306,243.350301 72.4517505,237.615199 C72.3377265,237.634664 72.2245796,237.658552 72.1123098,237.685096 C67.2873406,238.839725 64.7428513,246.317831 64.7542537,259.311615 C64.7682875,276.316077 72.9885403,286.5591 79.5940381,294.789263 C84.3935711,300.770332 88.1844304,305.494138 87.5248454,310.997429 C87.1459349,314.148108 85.8978107,316.527264 83.8164343,318.071194 C81.655241,319.673519 79.0835614,320 77.345134,320" id="Fill-16" fill="#443389"/></g></g></g><g transform="translate(657.000000, 289.500000) scale(-1, 1) translate(-657.000000, -289.500000) translate(490.000000, 92.000000) scale(1 1)" id="Master/Character/Standing"><g id="Master/Character/Standing" stroke="none" stroke-width="1" fill="none" fill-rule="evenodd"><g id="Head" transform="translate(64.000000, 9.000000) scale(1 1)"><g id="Head/Ponytail" stroke="none" stroke-width="1" fill="none" fill-rule="evenodd"><g id="Head" transform="translate(19.000000, 24.000000)"><polygon id="Fill-1" fill="#b67831" points="75.4479 28.5783 75.4479 57.9863 96.3139 62.6203 89.5659 28.5783"/><g id="Group-17" transform="translate(0.000000, 0.620800)"><path d="M94.6209,53.4455 L93.7369,49.0155 L78.4819,35.4845 C78.4819,35.4845 80.9639,43.6205 86.1209,47.6255 C89.9199,50.5765 94.6209,53.4455 94.6209,53.4455" id="Fill-2" fill="#8f5830"/><path d="M94.5631,49.0609 L94.5631,49.0609 C84.9451,49.0609 77.6271,37.9919 77.6271,30.8679 L77.6271,13.3629 C77.6271,6.2389 83.7851,4.2499 91.5651,4.2499 C99.3451,4.2499 102.8331,5.6819 104.5891,8.4269 L104.8571,32.6519 C104.8571,41.7299 102.3431,49.0609 94.5631,49.0609" id="Fill-4" fill="#b67831"/><path d="M71.5518,30.3604 L70.9788,28.8824 C70.0928,26.5964 71.2278,24.0254 73.5128,23.1394 L73.5308,23.1324 C75.8168,22.2464 78.3878,23.3804 79.2738,25.6664 L79.8468,27.1444 C80.7328,29.4304 79.5988,32.0014 77.3128,32.8874 L77.2948,32.8944 C75.0088,33.7804 72.4378,32.6464 71.5518,30.3604" id="Fill-6" fill="#b67831"/><path d="M72.8468,28.7826 C72.6088,28.7826 72.3978,28.6116 72.3558,28.3676 C72.3498,28.3356 72.2178,27.5486 72.5248,26.6876 C72.8118,25.8796 73.5368,24.8516 75.3638,24.5356 C75.6288,24.4876 75.8938,24.6706 75.9418,24.9426 C75.9888,25.2156 75.8058,25.4736 75.5338,25.5206 C74.4498,25.7086 73.7538,26.2136 73.4658,27.0226 C73.2498,27.6286 73.3388,28.1916 73.3398,28.1976 C73.3878,28.4696 73.2048,28.7276 72.9338,28.7756 C72.9048,28.7806 72.8758,28.7826 72.8468,28.7826" id="Fill-8" fill="#8f5830"/><g id="Group-12" transform="translate(69.000000, 0.000000)" fill="#7d3b58"><path d="M21.6745,1.0533 C0.0085,-0.6707 -2.9695,16.7033 2.5685,24.6313 C3.0495,23.9833 3.7045,23.4523 4.5125,23.1393 L4.5315,23.1323 C6.8165,22.2463 9.3875,23.3803 10.2735,25.6663 L10.3705,25.9153 C11.3495,25.2073 12.1235,24.2613 12.1725,23.0083 C12.2245,21.6683 12.8035,19.7343 14.2495,17.9463 C14.6235,17.4843 14.6365,10.7003 16.4975,8.7863 C16.6375,8.6423 16.1515,10.4133 16.0815,12.2443 C16.0115,14.0753 16.3575,15.9643 16.5345,15.8433 C19.3205,13.9243 23.6845,12.7193 30.2925,13.6793 C37.0565,14.6623 37.3185,17.5043 37.4485,14.1493 C37.8725,3.1283 28.5645,1.5413 22.3635,1.1043 C22.1285,1.0883 21.8985,1.0713 21.6745,1.0533" id="Fill-10"/></g><path d="M0,12.1522 C0,12.1522 26.419,30.2462 47.279,6.0982 C54.25,-1.9718 66.792,-1.3438 74.846,6.9862 C74.846,6.9862 61.833,9.9032 63.638,28.1682 C64.175,33.6012 60.872,38.6892 55.767,40.6242 L47.408,43.7932 L55.287,21.5982 L41.567,44.9782 C41.567,44.9782 32.873,50.2822 18.338,44.9782 C0.602,38.5072 0,12.1522 0,12.1522" id="Fill-13" fill="#7d3b58"/><path d="M69.9279,11.3026 C69.8169,11.3026 69.7019,11.2836 69.5909,11.2436 C69.0719,11.0576 68.7999,10.4856 68.9869,9.9656 C70.8979,4.6196 73.6489,3.4336 73.9559,3.3156 C74.4699,3.1186 75.0489,3.3766 75.2469,3.8926 C75.4439,4.4036 75.1919,4.9756 74.6859,5.1776 C74.6149,5.2096 72.4519,6.2126 70.8689,10.6386 C70.7239,11.0476 70.3379,11.3026 69.9279,11.3026" id="Fill-15" fill="#F85786"/></g></g></g></g><g id="Expression" transform="translate(164.000000, 42.000000) scale(1 1)"><g id="Expression/Joyful" stroke="none" stroke-width="1" fill="none" fill-rule="evenodd"><g id="Group-20" transform="translate(6.000000, 4.000000)"><path d="M0.9993,4.6228 C0.8873,4.6228 0.7733,4.6038 0.6623,4.5638 C0.1453,4.3768 -0.1257,3.8118 0.0573,3.2938 C0.0873,3.2078 0.8223,1.1808 2.8753,0.3498 C4.3673,-0.2562 6.1103,-0.0732 8.0493,0.8928 C8.5443,1.1388 8.7453,1.7388 8.4993,2.2338 C8.2543,2.7278 7.6513,2.9298 7.1583,2.6828 C5.7623,1.9888 4.5803,1.8248 3.6443,2.1958 C2.4283,2.6778 1.9453,3.9528 1.9403,3.9658 C1.7913,4.3708 1.4073,4.6228 0.9993,4.6228" id="Fill-1" fill="#7d3b58"/><path d="M16.0735,3.9729 C15.6525,3.9729 15.2615,3.7049 15.1245,3.2859 C15.0765,3.1509 14.9125,2.8499 14.7055,2.7689 C14.4905,2.6879 14.1545,2.8359 13.9735,2.9329 C13.4855,3.1939 12.8815,3.0129 12.6195,2.5269 C12.3565,2.0409 12.5385,1.4339 13.0245,1.1719 C14.1105,0.5869 14.9485,0.7099 15.4595,0.9169 C16.5865,1.3729 16.9845,2.5379 17.0265,2.6699 C17.1935,3.1959 16.9025,3.7579 16.3765,3.9259 C16.2755,3.9569 16.1735,3.9729 16.0735,3.9729" id="Fill-3" fill="#7d3b58"/><path d="M15.2461,20.421 L6.6231,20.641 C5.2491,20.676 4.1991,21.875 4.3461,23.241 C4.6751,26.313 5.8751,31.248 10.1381,32.649 C13.7911,33.85 16.7391,28.352 16.2331,21.326 C16.1961,20.809 15.7641,20.408 15.2461,20.421" id="Fill-5" fill="#443389"/><path d="M6.5126,20.5406 L15.0546,20.3196 C15.7946,20.3006 16.3956,20.9146 16.3616,21.6536 L16.2496,24.0766 L4.5236,24.5216 C4.5236,24.5216 4.3706,23.8046 4.3276,23.0366 C4.2416,21.9606 5.3366,20.5706 6.5126,20.5406" id="Fill-7" fill="#FFF"/><g id="Group-11" transform="translate(4.000000, 23.817100)" fill="#ED9CF7"><path d="M0.5231,0.7045 L8.2751,0.4105 C8.2751,0.4105 12.1851,2.5995 11.4191,4.7055 C10.8721,6.2075 9.9951,8.9115 7.2331,8.9975 C1.5891,9.1725 0.5231,0.7045 0.5231,0.7045" id="Fill-9"/></g><path d="M2.6261,13.053 C2.6261,10.84 4.0891,9.047 5.8931,9.047 C7.6971,9.047 9.1601,10.84 9.1601,13.053 C9.1601,15.266 7.6971,17.059 5.8931,17.059 C4.0891,17.059 2.6261,15.266 2.6261,13.053" id="Fill-12" fill="#FFF"/><path d="M5.8931,17.0594 L5.8931,9.0464 C4.0891,9.0464 2.6261,10.8404 2.6261,13.0534 C2.6261,15.2654 4.0891,17.0594 5.8931,17.0594" id="Fill-14" fill="#1D1D1B"/><path d="M12.9735,12.9135 C12.9735,10.8875 13.8485,9.2455 14.9285,9.2455 C16.0085,9.2455 16.8835,10.8875 16.8835,12.9135 C16.8835,14.9395 16.0085,16.5815 14.9285,16.5815 C13.8485,16.5815 12.9735,14.9395 12.9735,12.9135" id="Fill-16" fill="#FFF"/><path d="M14.9285,16.5816 L14.9285,9.2456 C13.8485,9.2456 12.9735,10.8876 12.9735,12.9136 C12.9735,14.9396 13.8485,16.5816 14.9285,16.5816" id="Fill-18" fill="#1D1D1B"/></g></g></g><g id="Beard" transform="translate(154.000000, 58.000000) scale(1 1)" fill="#000"><g id="Beard/None" stroke="none" stroke-width="1" fill="none" fill-rule="evenodd" fill-opacity="0"/></g><g id="Accesories" transform="translate(152.000000, 50.000000) scale(1 1)"><g id="Accesories/None" stroke="none" stroke-width="1" fill="none" fill-rule="evenodd" fill-opacity="0"/></g><g id="Standing/Lower Body" transform="translate(14.000000, 164.000000) scale(1 1)"><g id="Standing/Lower Body/Skirt" stroke="none" stroke-width="1" fill="none" fill-rule="evenodd"><g id="Group-37" transform="translate(36.000000, -1.000000)"><polyline id="Fill-1" fill="#b67831" points="162.6735 209.5426 135.7675 103.9966 162.4815 58.5896 225.1655 203.0526 200.2255 225.3046 165.6765 209.5426"/><polygon id="Fill-2" fill="#b67831" points="13.8191 199.2931 70.3121 94.4011 123.2281 73.4261 72.5041 225.7411 34.5131 222.1241"/><g id="Group-36" transform="translate(0.000000, 0.045000)"><path d="M257.0796,230.7148 L161.7026,220.1458 L159.8016,199.8328 L174.7586,206.1408 C177.2036,207.0368 216.8836,180.3488 216.8836,180.3488 C262.2986,189.7198 260.0826,215.6718 260.0826,221.3848 L257.0796,230.7148 Z" id="Fill-3" fill="#443389"/><polygon id="Fill-5" fill="#8069FF" points="158.7143 215.6716 158.2823 232.9996 180.9473 232.9996 181.1193 226.4856 201.0243 232.9996 262.2983 232.9996 262.2983 221.3326"/><path d="M110.8111,230.7148 L5.4231,220.1458 L14.8201,193.5178 C14.8201,193.5178 24.6171,206.9898 27.0301,206.0078 L86.0841,185.8578 C120.6331,189.9848 110.8111,230.7148 110.8111,230.7148" id="Fill-7" fill="#443389"/><polygon id="Fill-9" fill="#8069FF" points="5.4381 215.6716 0.0001 232.9996 26.6691 232.9996 26.8421 226.4856 46.7461 232.9996 113.0261 232.9996 113.0271 221.3326"/><path d="M75.2533,184.2659 C73.5343,184.2659 71.8823,184.5049 70.5783,185.1599 C69.3593,185.7709 68.5763,186.6699 68.1843,187.9079 C67.2933,190.7089 68.0623,193.2829 70.0943,194.3109 C72.8033,195.6809 78.1563,194.2479 84.4613,185.8329 C82.9253,185.3639 78.9353,184.2659 75.2533,184.2659 M72.1743,195.7749 C71.2133,195.7749 70.3633,195.5679 69.6433,195.2039 C67.1553,193.9449 66.1873,190.8909 67.2313,187.6049 C67.7033,186.1179 68.6793,184.9939 70.1303,184.2659 C75.3383,181.6529 85.0313,184.9539 85.4413,185.0959 L86.0793,185.3169 L85.6823,185.8629 C80.3473,193.1939 75.5683,195.7749 72.1743,195.7749" id="Fill-11" fill="#BEC2CB"/><path d="M86.5247,185.3303 C89.0587,186.4913 94.8487,188.6393 97.1047,187.2383 C97.7337,186.8483 98.0457,186.1953 98.0547,185.2433 C98.0877,182.0773 96.1157,179.1203 93.6567,178.6513 C91.0337,178.1483 88.4387,180.5783 86.5247,185.3303 M95.0417,188.6873 C91.2087,188.6873 85.9487,186.1683 85.6707,186.0343 L85.2567,185.8333 L85.4207,185.4053 C88.4307,177.5453 92.3137,177.3743 93.8437,177.6693 C96.7557,178.2243 99.0927,181.6263 99.0547,185.2533 C99.0417,186.5583 98.5617,187.5123 97.6307,188.0883 C96.9407,188.5173 96.0387,188.6873 95.0417,188.6873" id="Fill-13" fill="#BEC2CB"/><path d="M83.682,200.9504 L82.729,200.6454 C86.203,189.7844 84.824,185.7834 84.81,185.7434 L84.481,184.8464 L85.405,185.0844 L103.656,189.8664 L103.402,190.8334 L85.951,186.2614 C86.229,187.9864 86.411,192.4154 83.682,200.9504" id="Fill-15" fill="#BEC2CB"/><path d="M205.8587,179.0461 C204.1387,179.0461 202.4877,179.2851 201.1827,179.9401 C199.9647,180.5511 199.1817,181.4501 198.7887,182.6881 C197.8987,185.4891 198.6667,188.0631 200.6997,189.0911 C203.4097,190.4631 208.7617,189.0271 215.0667,180.6131 C213.5307,180.1441 209.5407,179.0461 205.8587,179.0461 M202.7797,190.5551 C201.8187,190.5551 200.9687,190.3481 200.2487,189.9841 C197.7607,188.7261 196.7917,185.6721 197.8357,182.3851 C198.3077,180.8981 199.2837,179.7741 200.7357,179.0461 C205.9457,176.4321 215.6367,179.7351 216.0467,179.8761 L216.6847,180.0971 L216.2877,180.6431 C210.9527,187.9741 206.1737,190.5551 202.7797,190.5551" id="Fill-17" fill="#BEC2CB"/><path d="M217.1292,180.1106 C219.6642,181.2716 225.4522,183.4186 227.7092,182.0186 C228.3382,181.6286 228.6502,180.9756 228.6592,180.0236 C228.6932,176.8576 226.7212,173.9006 224.2622,173.4316 C221.6262,172.9296 219.0422,175.3606 217.1292,180.1106 M225.6462,183.4676 C221.8132,183.4676 216.5532,180.9486 216.2752,180.8146 L215.8612,180.6136 L216.0252,180.1856 C219.0332,172.3306 222.9072,172.1566 224.4492,172.4496 C227.3612,173.0046 229.6982,176.4066 229.6592,180.0336 C229.6462,181.3386 229.1662,182.2926 228.2352,182.8686 C227.5452,183.2976 226.6432,183.4676 225.6462,183.4676" id="Fill-19" fill="#BEC2CB"/><path d="M214.2864,195.7307 L213.3334,195.4257 C216.8074,184.5647 215.4294,180.5637 215.4154,180.5237 L215.0864,179.6267 L216.0104,179.8647 L234.2614,184.6467 L234.0074,185.6137 L216.5564,181.0417 C216.8344,182.7667 217.0164,187.1957 214.2864,195.7307" id="Fill-21" fill="#BEC2CB"/><path d="M89.3509,12.8869 L137.0179,12.8869 C137.0179,12.8869 168.9899,60.8759 189.6589,114.5429 C189.6589,114.5429 73.9289,186.3559 22.4119,153.8989 L89.3509,12.8869 Z" id="Fill-23" fill="#F85786"/><g id="Group-35" transform="translate(85.000000, 0.000000)" fill="#643FE1"><path d="M52.0179,12.8869 C52.0179,12.8869 47.4559,1.8099 28.7309,0.95479494 C10.0059,0.9139 4.3509,12.8869 4.3509,12.8869 L0.5319,20.9309 L56.9299,20.7689 L52.0179,12.8869 Z" id="Fill-33"/></g></g></g></g></g><g id="Upper Body" transform="translate(34.000000, 28.000000) scale(1 1)"><g id="Upper Body/Dancing" stroke="none" stroke-width="1" fill="none" fill-rule="evenodd"><g id="Group-38" transform="translate(27.000000, 11.000000)"><g id="Group-3" transform="translate(161.000000, 50.635000)" fill="#b67831"><path d="M22.8082,11.9766 C22.5152,12.5696 20.8152,7.4086 18.1302,6.9666 C15.7202,6.5696 18.4442,18.4846 18.4442,18.4846 C18.4442,18.4846 -0.1418,28.5916 0.9492,35.7086 C3.8482,54.6226 28.9962,32.3526 33.1872,28.0396 C35.7542,25.3976 37.6792,22.5896 39.4922,17.0296 C39.7212,16.3266 41.9572,12.5236 42.6592,11.2686 C43.5482,9.6776 43.0532,7.8876 42.5122,7.8556 C41.4122,7.7896 36.9612,12.8106 37.0002,12.3996 C37.1042,11.3146 44.2422,4.3666 41.2762,3.2276 C40.4772,2.9206 33.9222,9.9886 34.1562,9.5836 C35.3312,7.5416 39.9272,1.0956 37.5582,0.5416 C36.5262,0.2996 30.2002,8.4056 30.2492,8.2776 C31.1142,6.0136 33.6192,1.0156 31.7832,0.5796 C30.5602,0.2896 29.7012,1.5976 26.3052,5.6656 C25.3842,6.7686 23.9132,9.7366 22.8082,11.9766" id="Fill-1"/></g><path d="M174.4328,70.7419 L185.6728,85.4339 C186.2878,86.2369 186.1308,87.3849 185.3158,87.9849 C179.4408,92.3029 156.9118,107.6419 136.9668,104.7019 C112.0598,101.0309 105.5408,92.2039 95.3168,83.4449 L125.2758,60.3229 C125.2758,60.3229 136.6398,71.9689 146.7178,73.9759 C151.6088,74.9499 158.2798,74.2169 163.8518,73.2039 C169.7608,72.1299 174.4328,70.7419 174.4328,70.7419" id="Fill-4" fill="#8069FF"/><g id="Group-8" transform="translate(67.000000, 38.635000)" fill="#8069FF"><path d="M1.7378,30.6801 C-3.5442,7.4601 16.6398,-5.0719 31.4488,2.0161 L46.2988,11.1281 L52.1588,15.7361 C63.2388,23.0061 65.9158,33.5041 64.2988,46.6571 L61.0608,84.8891 C60.7828,89.9021 62.6498,89.6011 63.2328,93.2401 C63.5978,95.5271 62.3438,96.9471 60.9428,96.9771 L45.5518,96.9771 L14.6588,96.9771 C10.5648,97.4241 13.9208,91.3081 14.3878,84.3961 C15.4138,69.2001 1.7378,30.6801 1.7378,30.6801" id="Fill-6"/></g><path d="M122.4202,123.8563 C122.4202,124.8073 121.9272,125.5793 121.3182,125.5793 C120.7092,125.5793 120.2162,124.8073 120.2162,123.8563 C120.2162,122.9053 120.7092,122.1333 121.3182,122.1333 C121.9272,122.1333 122.4202,122.9053 122.4202,123.8563" id="Fill-9" fill="#643FE1"/><path d="M122.4202,110.0773 C122.4202,111.0283 121.9272,111.8003 121.3182,111.8003 C120.7092,111.8003 120.2162,111.0283 120.2162,110.0773 C120.2162,109.1263 120.7092,108.3543 121.3182,108.3543 C121.9272,108.3543 122.4202,109.1263 122.4202,110.0773" id="Fill-11" fill="#643FE1"/><path d="M122.4202,96.2984 C122.4202,97.2494 121.9272,98.0214 121.3182,98.0214 C120.7092,98.0214 120.2162,97.2494 120.2162,96.2984 C120.2162,95.3474 120.7092,94.5754 121.3182,94.5754 C121.9272,94.5754 122.4202,95.3474 122.4202,96.2984" id="Fill-13" fill="#643FE1"/><path d="M122.4202,81.4596 C122.4202,82.4106 121.9272,83.1826 121.3182,83.1826 C120.7092,83.1826 120.2162,82.4106 120.2162,81.4596 C120.2162,80.5086 120.7092,79.7366 121.3182,79.7366 C121.9272,79.7366 122.4202,80.5086 122.4202,81.4596" id="Fill-15" fill="#643FE1"/><path d="M120.2629,67.7312 C120.5599,68.6352 120.3319,69.5222 119.7539,69.7122 C119.1759,69.9022 118.4659,69.3232 118.1689,68.4192 C117.8719,67.5152 118.0999,66.6292 118.6779,66.4382 C119.2559,66.2482 119.9659,66.8272 120.2629,67.7312" id="Fill-17" fill="#643FE1"/><path d="M115.4695,56.8828 C115.7665,57.7868 115.5385,58.6738 114.9605,58.8638 C114.3825,59.0538 113.6725,58.4748 113.3755,57.5708 C113.0785,56.6668 113.3065,55.7808 113.8845,55.5898 C114.4625,55.3998 115.1725,55.9788 115.4695,56.8828" id="Fill-19" fill="#643FE1"/><path d="M106.9533,64.3544 L91.3043,38.9034 L92.0473,38.1654 C92.8033,37.4154 93.9793,37.2934 94.8733,37.8724 L114.2233,50.3934 L106.9533,64.3544 Z" id="Fill-21" fill="#443389"/><path d="M114.223,50.393 L122.42,65.724 L123.055,58.116 C123.589,58.99 120.821,46.715 114.223,50.393" id="Fill-23" fill="#443389"/><g id="Group-27" transform="translate(0.000000, 0.635000)" fill="#b67831"><path d="M9.9711,0.7345 C8.9821,1.0075 12.0001,9.0635 11.3821,8.9985 C10.5671,8.9135 8.4081,0.8555 6.4591,0.4165 C2.8251,-0.4005 8.1201,8.6825 7.2741,9.6985 C6.9061,10.1395 4.0611,2.7235 2.3131,4.0905 C-0.1259,5.9965 4.6231,13.5345 4.1891,14.0465 C3.3331,15.0575 1.9071,9.9625 0.2611,11.0765 C-0.9419,11.8905 2.3551,20.0835 3.1411,21.6885 C6.2421,28.0215 8.3581,31.4495 11.4491,35.5085 C15.1691,40.3935 31.4971,32.2825 27.8691,27.6695 C23.2371,21.7785 23.3211,9.4315 20.0421,9.1235 C17.3341,8.8695 20.6321,19.1365 18.0081,14.2125 C13.8221,6.3565 13.6881,-0.2905 9.9711,0.7345" id="Fill-25"/></g><path d="M25.1241,23.9263 L8.5761,36.7453 C8.5761,36.7453 19.6811,69.3903 47.4481,77.1073 C72.7281,84.1343 87.8481,75.0383 87.8481,75.0383 L84.4691,39.3433 C84.4691,39.3433 64.6191,45.2313 54.0351,42.9813 C40.7661,40.1603 32.6081,29.7133 29.3581,24.6663 C28.4311,23.2263 26.4781,22.8773 25.1241,23.9263" id="Fill-28" fill="#8069FF"/><path d="M14.1958,39.6039 L14.7538,49.5699 C14.7538,49.5699 8.7968,38.8939 8.5758,36.7459 C8.3978,35.0149 20.9378,26.4429 25.8238,23.1719 C26.8928,22.4569 28.3318,22.7149 29.0908,23.7539 L34.9748,31.8079 C34.9748,31.8079 30.7608,39.5349 23.3918,41.5519 C20.6608,42.2989 17.9728,42.2289 14.1958,39.6039" id="Fill-30" fill="#443389"/><path d="M170.6376,88.4978 C174.5186,90.0368 178.9536,87.1548 178.9536,87.1548 L175.7516,94.7798 L185.4626,88.4628 C186.4406,87.8268 186.6646,86.4908 185.9496,85.5698 L174.4326,70.7418 L163.8516,73.2048 C163.8516,73.2048 166.7566,86.9588 170.6376,88.4978" id="Fill-32" fill="#443389"/><path d="M72.967,79.8706 C72.696,79.8706 72.475,79.6556 72.467,79.3846 C72.459,79.1086 72.677,78.8786 72.953,78.8706 C72.983,78.8696 76.119,78.7126 81.304,74.8896 C81.527,74.7266 81.839,74.7726 82.003,74.9956 C82.167,75.2176 82.119,75.5306 81.898,75.6946 C76.423,79.7316 73.118,79.8666 72.981,79.8706 L72.967,79.8706 Z" id="Fill-34" fill="#643FE1"/><path d="M79.8127,81.6338 C79.8057,81.6338 79.7987,81.6338 79.7917,81.6338 C75.2887,81.4438 73.2427,80.2518 73.1587,80.2008 C72.9207,80.0598 72.8447,79.7548 72.9847,79.5178 C73.1247,79.2808 73.4277,79.2008 73.6687,79.3418 C73.6877,79.3528 75.6167,80.4568 79.8337,80.6338 C80.1097,80.6458 80.3237,80.8788 80.3127,81.1548 C80.3007,81.4238 80.0797,81.6338 79.8127,81.6338" id="Fill-36" fill="#643FE1"/></g></g></g></g></g></g></svg>