<svg viewBox="33.22500000000002 150.42424242424238 819.5500000000002 575.151515151515" xmlns="http://www.w3.org/2000/svg" overflow="visible" xmlns:xlink="http://www.w3.org/1999/xlink" width="819.5500000000002px" height="575.151515151515px"><g id="Master/Spot Illustrations/Home Vacations" stroke="none" stroke-width="1" fill="none" fill-rule="evenodd"><g id="Group-69" transform="translate(33.000000, 157.000000)"><g id="Group-11" transform="translate(0.000000, 0.982000)"><g id="Group-3" transform="translate(0.000000, 320.000000)" fill="#AA99F2"><path d="M795.7024,161.2182 C789.7404,155.4762 767.0574,149.6582 756.1144,145.4542 C741.8154,139.9612 727.1024,134.8512 713.2404,129.3822 C674.4344,114.0722 634.5304,99.9132 592.9384,87.2572 C508.5994,61.5952 416.1354,31.2602 335.3584,3.2692 C311.3314,-5.0568 290.8314,6.0022 265.1844,8.6112 C225.8514,12.6112 206.5184,18.6112 171.8514,23.9442 C141.2514,28.6512 118.5184,34.6112 90.5184,39.2772 C74.1574,42.0032 11.1104,46.7692 3.3804,51.9082 C2.3104,51.4042 -2.6376,57.1622 1.8514,61.2772 C52.0304,84.9532 103.0874,108.1962 159.1844,126.6112 C212.2934,144.0442 425.7764,240.3802 435.8514,241.9442 C447.8344,243.8062 632.2784,198.7822 643.8514,198.6112 C693.8724,197.8692 752.0184,175.0512 783.0444,171.8482 C800.7754,170.0182 797.9814,163.4172 795.7024,161.2182" id="Fill-1"/></g><g id="Group-6" transform="translate(313.000000, 0.000000)" fill="#AA99F2"><path d="M506.7844,176.0512 C506.1014,153.9262 506.7394,112.3392 455.9034,102.1302 C424.7614,95.8772 298.7904,64.0002 266.2234,56.7172 C237.2224,50.2292 103.5854,8.3482 67.2644,2.8582 C60.0404,1.7642 31.7844,-3.9488 18.0714,4.8112 C7.4214,11.6152 8.8514,34.9612 8.7334,45.9232 C7.9544,118.3422 -11.2156,298.0512 12.7844,322.0512 C21.0444,330.3112 123.0244,358.4962 157.1534,375.9692 C214.7314,405.4462 276.4504,412.1302 336.0404,436.3462 C368.9774,449.7312 401.6554,459.5612 435.2294,471.0942 C445.0434,474.4642 474.5124,490.8192 479.7094,485.7052 L481.1864,484.1352 C485.4404,485.2932 496.2844,481.7172 497.4504,466.7172 C499.0734,445.8522 498.7094,427.4922 500.7844,405.3852 C504.3934,366.9302 503.3884,326.0762 504.4504,287.3852 C505.4684,250.3562 507.9234,212.9342 506.7844,176.0512" id="Fill-4"/></g><path d="M336.7845,27.0511 C336.7845,27.0511 372.2385,34.5491 385.0785,37.3321 C403.4385,41.3151 661.0555,104.1841 701.9735,115.0161 C722.9215,120.5611 787.7845,135.5511 787.7845,135.5511 C787.7845,135.5511 786.2845,194.5511 785.7125,217.2441 C785.1225,240.7291 779.2145,427.8441 780.2395,451.3071 C754.6305,447.9901 735.1145,433.4401 710.0305,428.2461 C679.3355,421.8931 649.9305,411.9591 620.7515,400.4161 C550.9415,372.8011 477.0145,359.7331 406.3445,330.3111 C391.7705,324.2421 331.2845,303.0511 331.2845,303.0511 C331.2845,303.0511 332.9135,233.8991 331.4505,205.3851 C329.7315,171.8641 330.7235,138.8241 332.3965,105.3461 C333.1625,90.0281 336.7845,27.0511 336.7845,27.0511" id="Fill-7" fill="#FD839D"/><path d="M542.1184,57.0492 C533.9674,56.3012 531.7064,63.6022 536.8084,66.9592 C543.8754,71.6042 549.8134,65.7212 547.8574,60.4212 C547.2144,58.6782 544.0714,57.2272 542.1184,57.0492" id="Fill-9" fill="#556EF8"/></g><g id="Group-21" transform="translate(327.000000, 50.982000)"><g id="Group-14" transform="translate(0.000000, 161.000000)" fill="#0042FF"><path d="M4.55201604,-8.52651283e-14 C24.870016,-8.52651283e-14 34.5756,3.405 54.4556,8.507 C71.3876,12.85 86.8366,24.508 103.7866,30.303 C121.0776,36.215 136.8666,36.737 154.9386,38.284 C170.5896,39.621 186.8186,48.487 201.2346,54.362 C214.1536,59.627 227.2906,65.061 240.2106,70.303 C255.3886,76.461 271.6236,76.166 287.2586,80.061 C314.5196,86.852 336.9286,107.089 364.2346,114.11 C383.2066,118.987 402.7126,118.799 421.4646,123.03 C435.9176,126.289 443.2116,134.642117 456.2396,139.985117 L456.2396,249.307 L0.2846,102.551 L4.55201604,-8.52651283e-14 Z" id="Fill-12"/></g><g id="Group-17" transform="translate(214.000000, 74.000000)" fill="#000"><path d="M126.626,80.052 C119.44,57.975 75.606,50.882 57.472,36.765 C59.339,37.413 70.341,34.429 71.901,34.798 C68.205,28.284 59.844,23.886 54.456,18.3 C54.456,18.3 98.542,36.593 89.799,20.223 C103.958,18.694 127.321,36.977 133.387,43.011 C131.684,36.366 131.462,28.557 134.319,18.61 C135.183,19.491 143.601,26.864 144.493,27.71 C156.692,8.03 176.212,0.018 176.212,0.018 C176.212,0.018 166.696,29.317 169.705,38.333 C172.044,45.345 188.208,33.456 188.208,33.456 C188.208,33.456 154.761,77.864 155.778,98.589 C166.86,71.073 189.302,40.309 222.874,56.27 C194.206,63.063 221.052,73.432 213.114,80.044 C205.979,85.987 190.188,84.598 197.46,97.89 C185.749,99.792 175.602,88.401 161.165,106.95 C169.55,118.753 242.0386,209.706117 242.2396,226.985117 C242.3896,239.911117 242.2396,282.6404 242.2396,282 C209.3546,222.037 182.683,153.71 136.294,101.526 C126.647,110.966 119.007,118.788 106.198,124.614 C107.692,117.745 106.981,113.569 106.981,113.569 C95.899,122.622 79.226,128.37 79.226,128.37 L83.764,118.872 C56.251,124.364 42.729,136.391 42.729,136.391 C42.22,118.618 23.515,140.038 14.667,137.323 C20.503,122.595 34.116,103.134 50.559,95.28 L48.745,104.643 C59.708,94.061 73.851,90.057 73.851,90.057 C73.851,90.057 58.657,94.268 35.917,87.095 C36.616,86.184 44.459,83.263 44.978,82.35 C35.786,81.845 24.952,83.823 17.06,79.003 C23.72,65.501 1.622,75.239 -5.68434189e-14,66.411 C-5.68434189e-14,66.411 61.131,39.204 126.626,80.052 Z" id="Fill-15"/></g><g id="Group-20" transform="translate(70.000000, 0.000000)" fill="#FFC5EB"><path d="M34.7386,0.807 C10.6186,3.866 0.0176,25.68 0.2386,45.33 C0.4606,65.024 14.1266,88.258 30.3126,99.633 C54.7956,116.834 96.6626,122.711 117.9876,97.055 C135.1526,76.407 140.2046,34.723 115.9646,18.561 C95.9316,5.205 60.5776,-2.47 34.7386,0.807" id="Fill-18"/></g></g><g id="Group-68" transform="translate(35.000000, 326.982000)" fill="#556EF8"><path d="M288.0481,0.6029 C288.1651,0.5679 288.2551,0.5529 288.2551,0.5529 C288.2551,0.5529 287.7781,0.4909 288.0481,0.6029" id="Fill-22"/><path d="M678.4465,153.2006 C660.7905,147.4936 642.5305,143.4296 624.5875,138.7486 C643.8215,135.7706 663.0075,132.6446 682.0275,128.4876 C698.7775,132.5366 715.6135,136.4296 731.9405,142.0016 C715.6325,149.4056 695.9325,150.5676 678.4465,153.2006 M498.0505,185.1656 C485.6085,178.9176 471.6755,175.8956 458.8055,171.2556 C457.2255,170.6856 455.6355,170.0426 454.0745,169.4236 C477.7555,163.7986 501.5225,158.6346 525.4635,154.2326 C530.1765,155.6366 535.0675,156.8746 539.9585,158.0556 C552.5445,161.0966 564.8975,166.1986 577.9485,168.1696 C575.2065,168.6306 572.7345,169.0486 570.6245,169.4216 C546.2665,173.7316 522.0535,178.8996 498.0505,185.1656 M414.2075,207.0896 C398.4755,204.7986 382.4035,200.7166 367.3605,193.9076 C391.8915,186.8306 416.2035,179.2086 440.9095,172.7146 C445.4875,175.0396 450.5425,177.1456 456.2245,178.4806 C468.4795,181.3606 481.1785,183.0816 493.4285,186.4426 C490.1885,187.3566 486.9405,188.2866 483.7395,189.2726 C461.8725,196.0076 436.9695,210.4016 414.2075,207.0896 M336.8515,175.6196 C334.4265,173.9276 332.2505,172.3846 328.8075,170.6366 C338.1735,168.1026 346.8415,164.5766 351.6345,162.8626 C365.4585,157.9196 379.5225,153.7526 393.6495,149.7426 C400.7235,152.4036 407.9275,155.2866 415.3535,158.4296 C422.5005,161.4556 428.6345,165.7676 435.4685,169.7436 C411.3935,175.0256 384.4035,179.6326 362.5585,191.6126 C353.5405,187.0206 345.0795,181.3586 336.8515,175.6196 M224.9755,126.8606 C242.0035,121.8026 259.0215,116.7556 275.9455,111.3586 C293.9465,118.5096 311.9345,125.8546 330.5985,131.1346 C314.5305,137.2886 298.5985,143.6166 282.8585,150.5716 C278.1545,148.7206 273.2905,146.8646 268.3805,144.9346 C253.8795,139.2346 239.4255,132.9386 224.9755,126.8606 M170.5545,107.0426 C168.7055,106.4696 166.6375,105.8416 164.4395,105.1456 C164.6375,105.0936 164.8355,105.0506 165.0375,104.9916 C182.2865,100.0096 199.3105,94.1806 216.1355,87.8526 C234.0805,94.7106 251.9525,101.7466 269.7825,108.8996 C253.5125,113.8376 235.7885,117.3946 220.5035,125.0186 C204.0205,118.4306 187.3805,112.2576 170.5545,107.0426 M103.0865,84.7676 C103.4775,84.6496 103.9395,84.5126 104.4665,84.3446 C121.7275,78.7776 139.0345,72.5916 157.0305,69.3846 C158.6535,69.0956 160.3035,68.8086 161.9485,68.5136 C176.9485,73.4776 191.8005,78.7706 206.6125,84.2636 C190.9545,90.3436 175.5725,97.0236 160.2045,103.7986 C141.1125,97.6146 122.1015,91.1806 103.0865,84.7676 M38.6065,64.4786 C57.0145,60.7676 75.2055,56.0926 93.7555,53.1456 C95.5605,52.8586 97.3925,52.5966 99.2425,52.3486 C99.5535,52.4076 99.8605,52.4676 100.1655,52.5236 C118.1005,55.8456 135.6805,60.6006 153.1825,65.7646 C142.8485,68.0576 132.5485,70.2916 122.6245,73.8686 C117.8205,75.5996 104.8005,80.0116 98.0025,83.0466 C78.3485,76.3896 58.5165,70.3216 38.6065,64.4786 M9.3065,55.7576 C8.0145,55.1416 6.5815,54.0936 5.2175,53.2626 C10.0815,46.8566 21.6825,46.9136 29.2965,45.8476 C38.9715,44.4946 48.7965,43.2816 58.5815,42.3046 C68.7745,45.3236 79.0985,47.7896 89.4325,50.2686 C80.0475,51.4156 71.2315,52.7376 63.0125,54.4626 C53.2945,56.5016 43.7225,59.3176 34.6165,63.3096 C21.0935,59.3546 11.9875,57.0296 9.3065,55.7576 M139.8675,34.1506 C150.6635,37.4386 161.7195,39.9176 172.6835,42.5676 C148.6555,44.7726 124.5835,46.5346 100.5815,49.0126 C88.4835,46.2216 76.3095,43.6496 64.0355,41.7576 C89.3285,39.3396 114.6235,37.0486 139.8675,34.1506 M145.3355,33.4816 C170.4485,30.2846 195.5875,26.5926 220.6885,22.9526 C231.2065,27.6266 242.3035,30.0656 253.4405,32.7356 C231.0185,36.0256 208.5675,38.8116 186.0365,41.2356 C171.8585,38.4796 157.6255,36.0636 143.3745,33.7236 C144.0255,33.6426 144.6825,33.5656 145.3355,33.4816 M287.0895,5.0346 C300.4895,9.8356 314.3445,13.4886 327.9365,17.7046 C306.0475,23.2866 284.0365,27.6576 261.7665,31.4276 C251.2665,28.3576 240.6015,25.9746 229.9875,24.3456 C228.4095,24.1026 225.6755,23.3786 223.0365,22.6066 C223.1805,22.5856 223.3245,22.5636 223.4685,22.5426 C244.1005,19.4676 268.7455,15.8006 287.0895,5.0346 M397.9035,44.5306 C380.2745,48.2916 363.0105,53.1606 345.5015,57.3826 C342.2415,55.7726 338.9065,54.1416 335.4625,52.5146 C329.6595,49.7746 323.2045,47.4566 315.9395,45.3216 C330.9465,42.7516 345.9385,40.0836 360.6565,36.2476 C365.1735,35.0696 366.8065,33.7826 369.2295,32.7036 C378.5935,37.2816 388.1015,41.0116 397.9035,44.5306 M495.9815,77.3546 C478.2625,82.0266 460.4675,86.3436 442.6445,90.6016 C438.7375,89.3276 434.9285,88.0236 431.3005,86.7806 C417.3665,82.0076 403.0575,77.8376 388.7845,73.7936 C395.5255,72.3236 400.5375,71.2106 402.8395,70.6396 C415.8415,67.4196 429.0095,64.2926 441.6065,59.5936 C459.6965,65.6226 477.8565,71.4356 495.9815,77.3546 M508.8685,81.6686 C529.3485,88.7166 550.3935,94.6106 571.4375,100.2686 C555.4855,104.5856 539.5325,108.8996 523.6015,113.2986 C500.3725,107.2646 477.1345,101.2806 454.1785,94.2516 C470.5035,90.8176 487.4645,87.9236 502.0615,79.3596 C504.7215,80.2436 507.0325,81.0366 508.8685,81.6686 M378.3185,138.9306 C367.4735,136.3506 356.7665,133.0326 346.0345,129.9286 C364.2165,123.3706 382.1755,116.2436 400.3805,109.7486 C418.9025,115.9856 437.2805,122.5956 455.6345,129.3076 C436.2905,134.0436 417.1655,139.4716 398.0415,145.0206 C391.6065,142.6186 385.0105,140.5226 378.3185,138.9306 M337.5515,132.9376 C354.8745,137.0676 371.6045,141.9336 388.4125,147.8026 C387.8975,147.9506 387.3805,148.1086 386.8705,148.2526 C366.0075,154.1556 345.9125,161.4976 325.5265,168.9896 C312.8225,162.7516 299.7665,157.2526 286.6075,152.0546 C303.2925,144.9236 320.4585,138.9936 337.5515,132.9376 M300.4565,102.3246 C310.3625,98.0346 320.2435,93.8486 330.3915,90.0626 C350.8435,95.8726 371.4855,100.8066 391.8345,106.9906 C374.2535,113.7346 356.9325,121.0986 339.3385,127.8156 C322.1615,122.0576 305.1575,115.8696 288.1475,109.6396 C287.0105,109.2236 285.8735,108.7966 284.7295,108.3736 C290.4645,106.3546 295.8005,104.3416 300.4565,102.3246 M277.0755,72.3896 C283.1765,74.4576 288.3875,76.2886 292.3545,77.7226 C303.1445,81.6266 314.1185,85.1576 325.1185,88.4916 C314.5035,92.1026 304.0505,95.8766 293.9175,100.5426 C290.6265,102.0576 285.2335,103.9736 278.6425,106.1116 C260.2555,99.1816 241.8785,92.2296 223.4485,85.4116 C241.0065,79.8846 259.0095,75.8546 277.0755,72.3896 M228.6615,57.2576 C228.6925,57.2536 228.7275,57.2496 228.7595,57.2456 C242.4625,61.2686 256.1175,65.4196 269.6755,69.9146 C250.8355,72.9796 232.2695,76.8466 213.8725,81.9326 C199.3855,76.8396 184.8015,72.0076 170.1065,67.8506 C169.5745,67.7006 168.9755,67.5366 168.3395,67.3536 C188.4025,63.6476 208.4645,60.1656 228.6615,57.2576 M221.4505,55.1756 C200.5855,57.9966 179.7625,60.9216 159.0325,64.6166 C142.6415,59.7376 126.1595,55.2666 109.5655,51.1326 C123.1785,49.8626 136.8395,48.7946 150.4285,47.6346 C160.6735,46.7596 170.9565,45.7386 181.2065,44.6596 C194.6715,47.9716 208.0935,51.4506 221.4505,55.1756 M328.7375,61.1046 C313.9405,63.8826 298.7745,65.8006 283.7195,67.8176 C270.9505,63.1436 258.0345,58.8726 244.9645,55.1186 C264.3505,52.6456 283.7275,50.1366 303.0705,47.3296 C308.1305,48.9666 312.9555,50.5876 317.4865,52.1866 C324.6075,54.7036 331.7515,56.8216 338.3645,59.0526 C334.9095,59.8346 331.6325,60.5616 328.7375,61.1046 M398.9525,104.1986 C386.2175,100.5186 373.4275,97.1576 360.5885,93.9296 C352.1375,91.8046 344.8805,89.6536 337.9595,87.4426 C352.3445,82.4546 366.8935,78.5566 381.7685,75.3276 C383.8035,75.9606 385.8685,76.5916 387.9585,77.2096 C404.4265,82.0836 420.9095,87.0186 437.3955,91.8856 C424.2785,95.2466 411.3485,98.6456 398.9525,104.1986 M461.1235,124.8486 C443.5815,118.4256 425.8505,112.5546 408.0265,106.9486 C410.1765,106.1416 412.2375,105.3846 414.0285,104.6256 C425.0695,99.9466 437.1385,97.7236 449.0065,95.2846 C471.6715,101.8846 494.3615,108.3806 516.9875,115.1106 C500.2675,119.3436 483.4735,123.1736 466.6305,126.8786 C464.6515,126.1456 462.8015,125.4646 461.1235,124.8486 M352.7605,64.6966 C359.4585,67.8826 368.4445,71.0816 378.1045,74.1746 C362.9175,77.4666 348.1625,81.4306 333.2915,85.9216 C318.6825,80.8876 304.2355,75.4756 289.7705,70.0466 C306.8645,66.9916 324.0145,64.0016 341.0035,60.6526 C341.4035,60.5736 341.8285,60.4876 342.2545,60.4026 C345.9595,61.7316 349.4645,63.1306 352.7605,64.6966 M437.9875,58.3836 C426.8235,61.8666 415.5715,65.6106 404.4405,68.5316 C400.9875,69.4376 393.9975,70.8566 385.0815,72.7146 C380.9775,71.5126 376.9875,70.3136 373.1585,69.0716 C363.3375,65.8866 355.9735,62.5696 348.9325,59.0826 C366.4955,55.6576 384.9875,52.4826 401.6595,45.8626 C413.7455,50.1086 425.8525,54.2806 437.9875,58.3836 M269.2925,36.8096 C278.2025,39.5816 287.0115,42.2506 295.3245,44.8636 C276.0695,47.7626 256.7845,50.4326 237.4875,53.0316 C223.5635,49.2556 209.5085,46.1086 195.3995,43.1066 C217.1515,40.5526 238.8395,37.6646 260.4995,34.4216 C263.7295,35.2206 266.7145,36.0086 269.2925,36.8096 M332.3755,19.1196 C344.1015,23.0316 355.6205,27.1666 367.0905,31.7776 C347.3215,34.8846 327.9895,40.2446 308.1475,42.9966 C308.0105,43.0146 307.8485,43.0366 307.7045,43.0556 C301.4565,41.4426 294.6715,39.8896 287.2335,38.2726 C280.7705,36.8686 274.5205,35.0936 268.0795,33.2376 C278.4605,31.5836 288.8355,29.8156 299.1745,27.9836 C310.3195,26.0096 322.0655,24.0226 332.3755,19.1196 M448.0965,166.9846 C433.1675,160.4446 418.4325,153.4996 403.4365,147.1116 C423.9015,141.8866 444.4535,137.1776 465.1065,132.7616 C473.9605,135.9756 482.8475,139.1546 491.6635,142.4216 C500.3475,145.6396 508.8645,148.8846 517.5885,151.7616 C494.4155,156.4346 471.3935,161.7516 448.3315,166.9326 C448.2555,166.9496 448.1735,166.9686 448.0965,166.9846 M612.9095,140.4936 C626.5255,143.9156 640.3155,147.1006 653.7845,150.6516 C657.0815,151.5206 664.3835,153.5226 670.5125,154.3456 C641.5355,158.4546 612.5425,162.4626 583.6595,167.2176 C568.1355,162.0076 552.4425,157.2986 536.8865,152.1806 C545.7475,150.6306 553.3835,149.3846 559.4645,148.4566 C577.2665,145.7386 595.0915,143.1226 612.9095,140.4936 M532.3095,149.0436 C531.2845,149.2206 530.2555,149.4036 529.2235,149.5876 C511.4735,143.4386 493.8275,137.0246 476.2315,130.4466 C494.2955,126.7516 512.3585,123.1006 530.3415,119.0266 C539.2685,121.6046 546.0505,123.4316 549.8585,124.3136 C567.7885,128.4666 585.6785,133.4836 603.5715,138.1106 C579.7765,141.4826 555.9955,144.9626 532.3095,149.0436 M677.1015,127.3376 C656.5505,129.0286 636.0365,133.4466 615.6355,136.3966 C597.9055,131.7276 580.1765,126.7046 562.3565,122.6366 C554.5255,120.8476 546.4995,118.9856 538.3915,117.0026 C552.1355,112.9276 565.8245,108.8606 578.5635,102.1436 C611.3885,110.6246 644.2935,118.7916 677.1015,127.3376 M736.6695,140.3996 C735.6455,139.3246 730.0445,138.3456 726.6345,137.4456 C704.3235,131.5576 681.5545,125.9056 659.3755,119.9596 C647.0095,116.6436 634.2465,113.6716 621.8725,110.1626 C608.8975,106.4836 595.6365,103.2496 582.5055,99.8916 C582.6475,99.8056 582.7965,99.7186 582.9365,99.6326 C582.6495,99.6976 582.3825,99.7476 582.1245,99.7916 C570.4465,96.7966 560.5655,94.2466 558.2175,93.5716 C540.5865,88.5016 523.0855,82.7006 505.7105,76.7086 C505.8075,76.6266 505.9135,76.5466 506.0095,76.4626 C505.8385,76.5296 505.6805,76.5916 505.5305,76.6466 C496.4715,73.4576 487.3155,70.3546 478.4605,66.8006 C472.3425,64.3446 466.6065,62.8976 461.2555,60.8436 C435.7965,51.0676 407.6005,43.2026 383.3155,33.9996 C353.3195,22.6326 320.2315,11.0086 288.0485,0.6026 C267.0015,7.8026 245.4735,14.6156 223.8845,18.8646 C210.7255,21.4546 197.1765,23.4976 183.7735,25.5296 C170.6375,27.5216 157.5095,29.7826 144.2815,31.1716 C132.3395,32.4236 120.3875,33.6966 108.4445,34.9266 C90.8185,36.7396 73.1875,38.7066 55.5835,40.7816 C55.2265,40.7676 55.0355,40.7926 54.9925,40.8506 C39.1635,42.8336 23.0105,44.5896 7.6925,48.0306 C4.1435,48.8276 1.0515,50.1586 0.3925,52.8486 C-0.6485,57.1056 8.7295,59.9216 14.2185,61.8466 C29.5515,67.2246 45.3465,71.4626 60.9885,75.6756 C80.8925,81.0366 100.4135,88.1616 119.5675,95.5026 C130.6395,99.7456 142.0425,103.3546 153.4735,106.8846 C153.3375,106.9486 153.1945,107.0126 153.0595,107.0756 C153.2905,107.0366 153.5125,107.0056 153.7395,106.9686 C160.1695,108.9646 166.6085,111.1696 172.6675,113.3746 C182.8705,117.0876 194.0835,119.1106 204.2375,123.2376 C222.0595,130.4796 241.2985,136.4016 258.3255,145.7706 C290.0835,163.2476 323.0515,181.0076 355.1925,196.6326 C373.2125,205.3926 391.7025,211.7906 411.4015,214.4156 C416.3545,215.0756 420.9325,216.3276 426.0095,215.1736 C431.2455,213.9796 437.7075,211.2436 443.0075,209.5276 C458.8805,204.3876 474.9035,199.2876 490.7765,194.2896 C521.1285,184.7326 552.3315,176.8616 583.4365,170.7786 C613.9365,164.8136 645.2455,160.6556 676.2025,155.9786 C687.6885,154.2436 699.2605,152.6306 710.6855,150.7806 C717.2905,149.7116 739.0915,142.9436 736.6695,140.3996" id="Fill-24"/></g></g><g transform="translate(407.000000, 348.500000) scale(-1, 1) translate(-407.000000, -348.500000) translate(147.000000, 90.000000) scale(1 1)" id="Master/Character/Red Sitting On Floor"><g id="Master/Character/Red Sitting On Floor" stroke="none" stroke-width="1" fill="none" fill-rule="evenodd"><g id="Red Sitting On Floor" transform="translate(-16.000000, 324.000000) scale(1 1)"><g id="Red Sitting On Floor/Relaxed Black Pants" stroke="none" stroke-width="1" fill="none" fill-rule="evenodd"><g id="Red-Sitting-On-Floor"><g id="Group-3" transform="translate(442.000000, 110.734000)" fill="#FA0000"><path d="M0.9394,28.961 L16.2054,58.26 C20.5484,58.97 24.6684,58.963 29.2614,58.328 C29.2614,58.328 28.4904,51.49 28.4024,48.156 C42.4394,60.461 53.5974,60.18 75.9064,58.47 C78.0354,58.307 78.5754,57.131 76.5444,56.801 C40.6894,50.961 20.6064,0.377 20.6064,0.377" id="Fill-1"/></g><path d="M375.3495,157.0416 L391.2745,187.6066 C395.8065,188.3476 400.1055,188.3416 404.8965,187.6796 C404.8965,187.6796 404.0895,180.5446 403.9975,177.0686 C418.6425,189.9026 430.2835,189.6106 453.5565,187.8276 C455.7775,187.6566 456.3405,186.4296 454.2225,186.0856 C416.8185,179.9926 395.8675,127.2226 395.8675,127.2226" id="Fill-4" fill="#FA0000"/><g id="Group-8" transform="translate(0.000000, 160.734000)" fill="#FA0000"><path d="M72.7421,5.5142 C62.0191,25.6602 45.6001,29.1312 41.7451,30.5642 C40.0361,31.2012 36.7111,32.2772 34.8431,31.9342 C31.5711,31.3332 34.0511,29.5832 35.8701,28.4512 C38.1051,27.0592 40.8161,26.2182 42.8811,24.6932 C38.9401,24.4552 34.5621,24.3512 30.7361,24.6602 C26.5851,24.9932 22.9141,26.2312 19.0891,27.5182 C16.3531,28.4392 10.3951,30.8302 8.7021,29.8732 C6.1201,28.4152 11.2921,26.3792 12.9401,25.3562 C9.8911,25.2822 6.1821,28.2812 3.9171,26.3812 C2.2111,24.9492 6.9391,23.1882 8.4421,22.2732 C6.9261,21.8562 -0.3079,23.7642 0.0101,21.3902 C0.2331,19.7252 6.1181,18.6102 7.1151,18.1892 C5.1671,18.0782 2.6221,18.5182 2.3571,16.8672 C1.9771,14.4932 17.3301,11.8982 24.2471,11.8982 C31.0341,11.8982 41.4581,12.7642 45.5231,10.5672 C49.4761,8.4282 52.0201,4.6432 55.7391,1.8342 C59.6591,-1.1288 75.0071,1.2582 72.7421,5.5142" id="Fill-6"/></g><path d="M216.1093,140.7775 C203.1193,140.1175 165.1093,110.4435 155.2733,68.4435 C104.4433,95.1095 98.4213,144.7525 85.7753,161.6935 C72.5253,179.4435 49.5573,177.3415 46.8343,157.8345 C44.1733,138.8215 57.4753,107.3395 67.6133,93.1885 C90.3383,61.4575 117.1253,27.3835 159.2113,27.4945 C171.5503,27.5265 182.9573,28.3235 194.5333,26.8965 C198.7263,26.3785 221.3083,17.8195 227.2753,21.1935 C231.9683,23.8445 232.2383,30.0945 234.7733,34.4525 C240.2753,43.8985 244.4543,53.4395 248.7503,63.5245 C252.6763,72.7455 259.8253,100.0365 258.5763,109.9565 C256.3413,127.7145 237.1013,141.8455 216.1093,140.7775" id="Fill-9" fill="#FFC5EB"/><path d="M405.7695,21.3273 C426.8985,26.0433 474.0765,100.3703 490.3045,133.5143 C480.4515,141.0573 453.2735,151.4423 437.4985,145.5603 C422.1525,139.8393 398.0525,92.2363 398.0525,92.2363 L345.5255,140.6933 C335.3815,148.7303 321.1245,158.0743 307.2065,156.1583 C297.4105,154.8083 279.4195,144.9203 277.2725,135.4453 C268.0995,94.9783 396.1055,19.1723 405.7695,21.3273" id="Fill-11" fill="#000"/><path d="M218.9823,20.7443 C250.5253,15.6933 273.6073,22.8773 305.7753,18.6933 C336.5253,14.6933 373.5763,-0.2897 397.1603,0.0663 C404.9843,0.1853 413.8543,2.0393 419.2693,8.3633 C426.7343,17.0803 421.1483,21.1323 412.4793,26.5193 C399.0023,34.8923 338.6343,56.6283 322.9533,58.9063 C295.6643,62.8743 202.7763,68.4443 221.3573,23.2013" id="Fill-13" fill="#FFC5EB"/><path d="M301.4941,57.6193 C310.9081,51.2443 330.0721,38.7653 339.7361,40.9243 C351.5411,43.5623 361.1501,59.7193 368.5571,68.0313 C379.6401,80.4773 387.8341,92.5903 396.5801,106.5063 C404.7831,119.5533 416.9671,139.8273 424.2731,153.1093 C416.0801,158.9733 382.2731,169.5773 369.2731,165.7773 C353.1691,161.0643 337.6951,117.6363 330.5141,112.4863 C317.5941,131.7263 300.0311,148.3673 280.1701,161.5483 C269.3871,168.7033 258.6471,173.5513 244.7441,175.5893 C225.8851,178.3563 213.3871,164.5173 211.2381,155.0403 C202.0661,114.5743 288.5551,66.3853 301.4941,57.6193" id="Fill-15" fill="#000"/><path d="M357.2128,53.9767 C368.9808,63.4097 383.8578,80.6207 389.7768,97.2457 L357.2128,53.9767 Z" id="Fill-17" fill="#0042FF"/><path d="M295.2949,149.9845 C307.5659,139.4515 320.7759,119.7105 329.4549,104.5325 C329.4549,104.5325 342.5239,130.0395 346.0539,136.1865 C346.0539,136.1865 334.6659,120.5875 329.3149,112.5025 C312.5769,136.9845 307.3969,140.5845 295.2949,149.9845" id="Fill-19" fill="#0042FF"/><path d="M408.9902,4.9933 C419.1992,4.7443 430.5992,9.2443 439.3532,12.9823 C449.5692,17.3433 469.3912,27.6173 468.9512,31.5633 C468.6542,34.2323 462.5842,29.3893 460.5582,28.8963 C461.2752,30.1103 469.7482,35.7563 468.1402,37.6543 C466.7132,39.3373 460.9062,34.3863 458.5412,32.6743 C460.8872,34.8853 467.5042,40.2093 466.1502,41.6933 C464.7412,43.2363 457.2832,36.8913 455.5432,35.0113 C455.8752,35.7493 462.3082,41.5683 459.8652,43.0213 C457.2552,44.5723 452.2542,35.2653 436.1252,26.1613 C438.2282,28.3243 446.1362,34.8553 443.2082,36.7493 C439.5692,39.1033 429.0402,25.3543 423.5702,21.6493 C418.9782,18.5393 411.1852,17.1693 406.8822,13.4943 C404.5102,11.4663 401.8992,5.1653 408.9902,4.9933" id="Fill-21" fill="#FA0000"/><path d="M207.7118,37.1412 C207.6058,30.2792 207.4618,24.9982 207.9978,21.5852 C208.1458,20.6542 205.4668,15.8672 195.8048,15.5812 C184.4718,15.2492 181.5368,19.5332 181.9828,21.4302 C183.3578,27.2772 181.8248,30.2832 182.2038,33.0392 C182.2038,33.0392 182.1988,45.8552 196.5808,46.0062 C208.5448,46.1312 207.7118,37.1412 207.7118,37.1412" id="Fill-23" fill="#FA0000"/><path d="M187.4716,17.9996 C189.2216,17.3316 192.2716,16.8606 193.1266,16.8316 C201.7936,16.5406 205.3296,19.4986 205.6586,20.0936 C206.1586,21.0016 205.9616,21.9856 205.3256,22.7356 C204.6696,23.5116 200.2366,25.8046 194.5136,25.4996 C189.0546,25.2076 184.6796,23.8746 183.9716,21.8316 C183.1756,19.5416 185.7106,18.6696 187.4716,17.9996" id="Fill-25" fill="#FA0000"/><path d="M193.7734,19.7867 C194.7794,19.6827 196.3304,19.6177 197.1254,20.2917 C198.0814,21.1017 197.7874,21.9037 196.5844,22.2147 C195.6624,22.4527 193.3724,22.4707 192.6154,21.8937 C191.4724,21.0177 192.5744,19.8707 193.7734,19.7867" id="Fill-27" fill="#FFC5EB"/></g></g></g><g id="Head" transform="translate(129.000000, 283.000000)"><path d="M62.9618,63.2482 C63.2598,60.9642 63.6908,59.4042 64.6578,58.6532 C67.0548,56.7922 73.8138,59.4852 75.2228,55.5382 C75.8478,53.7882 71.6578,48.1532 71.5928,46.3332 C71.5358,44.7542 82.3728,46.1802 80.9958,43.8192 C79.8288,41.8192 67.4958,43.8192 64.8298,26.4872 C64.0878,21.6602 59.6488,18.2622 48.3298,16.3192 C44.8048,15.7152 36.3268,14.8912 29.9368,19.0782 C24.1598,22.8642 22.6238,36.7052 29.7848,47.5332 C34.2708,54.3152 36.1758,59.2072 36.9838,62.9182 C37.1378,63.6222 38.6648,68.5442 50.4148,68.5442 C62.6658,68.5442 62.8988,63.7322 62.9618,63.2482" id="Fill-41" fill="#FA0000"/><g id="Group-9" fill="#000"><path d="M67.2844,12.8012956 C70.2024,17.3425116 66.5574,24.8458209 63.3914,25.9097969 C63.1304,25.1093383 62.4604,24.2633089 62.3314,23.4549249 C62.1044,22.0343089 62.9254,21.6003969 63.9894,20.4868876 C65.3934,19.0157476 67.3044,15.1402596 67.2844,12.8012956" id="Fill-1"/><g id="Group-8" transform="translate(0.000000, 0.193675)"><path d="M64.6613,9.42857093 C59.3583,5.3341456 50.7363,8.80346027 47.6013,11.6417203 C41.9233,9.82285627 35.5353,9.96947493 30.3233,12.5600683 C21.7113,-6.83718507 7.1753,2.21255493 4.0753,8.35468827 C0.1533,16.1274589 3.5983,24.3440483 6.5863,32.3664669 C7.1363,35.2701109 7.1343,38.3124483 5.9503,40.4275216 C3.8913,44.1098296 -1.2237,45.5027069 0.2683,50.2797016 C1.2033,53.2695336 5.0153,55.4202709 8.1303,54.3245936 C6.4083,56.9567949 3.9073,58.9302029 2.6183,61.8932869 C0.7233,66.2492483 2.6323,70.0524176 7.3683,70.8092869 C12.0523,71.5582309 15.6033,69.8235736 18.5463,66.6336269 C16.0723,69.7205443 14.7043,74.0507483 20.4423,73.2007563 C24.5203,72.5954589 27.7863,68.1543003 29.0423,64.5344043 C31.6673,56.9587763 26.3353,49.6139736 25.9603,42.3147416 C27.7693,45.2867416 31.6123,49.7813963 34.8933,56.2801696 C38.4913,50.6363416 37.9893,46.0049749 38.5343,39.4368549 C38.7163,37.2544163 39.4913,32.6389003 42.7923,33.2392443 C44.6363,33.5740896 44.7243,39.2971709 46.5773,39.2317869 C48.4343,39.1664029 47.7463,36.3073389 46.9923,32.8717069 C47.0523,32.9549229 47.0993,33.0371483 47.1613,33.1213549 C45.0183,23.5861883 52.8623,24.1607749 58.9933,23.5475523 C60.8503,23.3613069 63.1493,23.5208043 64.3683,22.8025709 C69.3433,19.8731696 69.9523,13.5150709 64.6613,9.42857093" id="Fill-6"/></g></g></g><g id="Red Expression" transform="translate(165.000000, 298.000000) scale(1 1)"><g id="Red Expression/Gum" stroke="none" stroke-width="1" fill="none" fill-rule="evenodd"><g id="Group-18" transform="translate(15.000000, 11.000000)"><g id="Group-6" transform="translate(0.000000, 0.636880)" fill="#000"><path d="M10.4924,0.873787037 C8.5954,2.33332407 4.7464,1.85665741 2.7204,1.07036111 C1.0084,0.407305556 -1.1866,3.89063889 0.7664,4.64739815 C4.1294,5.95008333 8.9484,5.8054537 11.9084,3.53110185 C13.7184,2.13980556 12.6404,-0.777231481 10.4924,0.873787037" id="Fill-4"/></g><path d="M16.8625,5.68221296 L17.6125,5.68221296 C18.5355,5.68221296 19.3565,4.83684259 19.6225,3.98943519 C19.8585,3.23573148 19.5915,2.28850926 18.6785,2.28850926 L17.9285,2.28850926 C17.0065,2.28850926 16.1845,3.13387963 15.9195,3.98128704 C15.6825,4.73499074 15.9505,5.68221296 16.8625,5.68221296" id="Fill-7" fill="#000"/><path d="M19.6828,12.5283889 C20.2528,12.6119074 20.9118,12.5345 21.4168,12.2289444 C21.9218,11.9233889 22.3868,11.3285741 22.2758,10.6889444 C22.1728,10.1002407 21.5208,9.98311111 21.0698,10.2560741 C20.8668,10.3782963 21.3198,10.1776481 21.0618,10.2632037 C20.9048,10.3151481 20.6408,10.3019074 20.3938,10.2662593 C19.3088,10.1083889 18.2828,12.3246852 19.6828,12.5283889" id="Fill-9" fill="#000"/><path d="M12.6496,10.6693889 C10.7526,11.003463 8.8666,10.5858704 7.0766,9.94624074 C5.8876,9.52151852 4.3856,11.9211481 5.7346,12.4029074 C7.9186,13.1830926 10.1426,13.5344815 12.4386,13.1301296 C13.6926,12.9091111 14.3626,10.3679074 12.6496,10.6693889" id="Fill-11" fill="#000"/><path d="M7.633,15.6755093 C10.529,15.4616204 13.48,16.570787 15.463,18.7239352 C16.349,19.6864352 18.185,17.5251389 17.27,16.5320833 C15.07,14.1426389 11.642,12.8959722 8.432,13.13125 C7.217,13.2208796 6.091,15.7885648 7.633,15.6755093" id="Fill-13" fill="#FD839D"/><g id="Group-17" transform="translate(21.000000, 19.988731)" fill="#000"><path d="M4.5217,0.7425 C2.7127,1.04601852 0.5327,2.87018519 0.9667,4.93166667 C1.2887,6.46046296 3.0327,6.72324074 4.2667,7.07666667 C5.1567,7.3312963 6.0407,6.62851852 6.4517,5.87685185 C6.7897,5.25861111 6.9497,4.0537037 6.0557,3.79805556 C5.7457,3.70944444 5.4307,3.63712963 5.1187,3.55259259 C4.9307,3.50064815 4.7467,3.44055556 4.5617,3.37638889 C4.4717,3.34481481 4.3817,3.30916667 4.2937,3.27046296 C3.9077,3.11055556 4.4587,3.40388889 4.1357,3.19101852 C4.0707,3.14518519 4.0097,3.09425926 3.9537,3.03824074 C4.0557,3.1787963 4.0697,3.18287037 3.9957,3.0525 C4.2157,3.4925 3.8767,3.98342593 3.5777,4.26861111 C3.7377,4.14333333 3.7297,4.14231481 3.5537,4.26555556 C3.6427,4.21157407 3.7337,4.1637037 3.8267,4.11888889 C3.6587,4.18 3.6647,4.17898148 3.8437,4.11685185 C3.9727,4.07407407 4.1057,4.04861111 4.2387,4.02722222 C5.9157,3.74509259 6.8097,0.358518519 4.5217,0.7425" id="Fill-15"/></g></g><g id="Group-6" transform="translate(40.000000, 16.000000)"><g id="Group-3" transform="translate(0.000000, 0.761100)" fill="#FFC5EB"><path d="M0.5586,17.4642 C11.0256,15.1422 9.2816,1.0272 21.4566,0.2692 C34.8106,-0.5608 37.4786,16.0852 29.7516,23.4562 C25.0666,27.9272 18.3126,25.6422 13.3746,23.1512 C8.8436,20.8642 4.4746,18.9502 -0.0004,17.4642" id="Fill-1"/></g><path d="M20.8945,5.3361 C23.9675,5.6301 30.0835,8.5511 29.1405,12.4731 C28.7575,14.0651 30.8205,13.6761 31.1095,12.4781 C32.3735,7.2231 26.0815,3.5431 21.6055,3.1141 C20.5135,3.0101 19.4895,5.2011 20.8945,5.3361" id="Fill-4" fill="#FFF"/></g></g></g><g id="Accesories" transform="translate(50.000000, 205.000000) scale(1 1)" fill="#000"><g id="Accesories/Flowers" stroke="none" stroke-width="1" fill="none" fill-rule="evenodd"><g id="Group-21" transform="translate(86.000000, 72.000000)"><g id="Group-3" transform="translate(36.000000, 0.914300)" fill="#FA0000"><path d="M7.1817,13.1584 C8.1647,13.2114 9.0697,13.8954 10.0737,13.9974 C11.1607,14.1094 12.2377,14.1944 13.3287,14.0744 C14.6147,13.9324 16.0887,13.3684 16.7787,12.0944 C17.3647,11.0124 17.4017,9.2474 16.1987,8.6844 C14.8277,8.0434 12.7807,8.5044 11.4207,8.9904 C11.2897,9.0354 11.1337,9.1304 11.0147,9.2064 C13.1847,7.7514 14.7037,4.2684 12.5777,1.9674 C10.7647,0.0034 7.6797,0.8464 6.3507,2.8594 C6.3057,2.1884 6.5517,0.0024 5.3507,0.4974 C4.7357,0.7504 4.5577,2.0184 4.5777,2.6304 C4.4947,1.9684 4.3307,0.4564 3.7137,0.1534 C3.1407,-0.1246 2.2277,0.5124 1.9127,0.9914 C1.1757,2.1184 1.0107,4.0844 0.8427,5.4064 C0.6457,6.9544 0.6357,8.3054 1.8997,9.2554 C2.8457,9.9674 3.8997,10.6114 4.8587,11.3464 C5.4947,11.8374 6.1377,12.2804 6.7587,12.7774" id="Fill-1"/></g><g id="Group-6" transform="translate(28.000000, 0.914300)" fill="#FFC5EB"><path d="M4.6143,9.2248 C3.4343,6.6868 4.6863,-0.0512 8.3723,0.0878 C12.1823,0.2328 10.2253,5.6178 9.1883,7.6288 C10.4253,6.6668 14.6843,2.7108 15.9403,5.1588 C16.9853,7.1888 13.6883,9.5558 12.3843,10.2488 C16.1103,9.9468 19.8133,14.1288 15.3173,16.5848 C13.2643,17.7038 7.7333,17.8108 7.2183,14.5248 C5.5323,15.3988 2.5483,15.8258 1.2803,13.6918 C0.0073,11.5498 1.3233,7.8708 4.6143,9.2248" id="Fill-4"/></g><path d="M29.1104,9.7416 C29.0134,7.0866 25.6104,2.3156 22.3354,3.7196 C19.3724,4.9886 19.4304,9.1946 22.0104,12.2456 C19.6714,12.2026 17.5334,14.5046 18.5684,17.0956 C19.1184,18.4726 21.0434,19.3456 22.3894,18.7516 C23.3214,18.3426 23.6534,17.4276 24.0514,16.5656 C23.8174,19.5356 27.5964,22.3326 29.8564,20.8396 C31.7604,19.5826 30.6004,16.5406 28.7604,15.6226 C31.9974,16.9486 36.4734,18.7546 39.8714,17.0486 C40.7554,16.6056 41.5854,16.1866 41.7664,15.1346 C41.8744,14.5256 41.8764,13.9506 41.2494,13.8046 C40.7624,13.6926 40.0184,14.1326 39.5514,14.2576 C38.8314,14.4486 38.0814,14.5396 37.3394,14.6436 C34.8314,15.0036 32.0854,14.3456 30.0224,12.7996 C31.1774,13.1806 33.3114,13.1776 34.3424,12.3816 C35.3244,11.6216 35.0774,10.3406 34.1984,9.5896 C32.8254,8.4146 30.3584,8.5526 29.1104,9.7416" id="Fill-7" fill="#556EF8"/><path d="M14.8526,15.6967 C12.2236,19.4977 15.4776,23.0917 17.9606,21.9187 C20.3346,20.7987 20.6376,17.2717 18.4876,15.4697 C21.2506,13.4397 19.4406,7.4477 15.5266,8.8607 C14.1256,9.3657 11.8346,12.2077 14.8526,15.6967" id="Fill-9" fill="#FFC5EB"/><g id="Group-13" transform="translate(6.000000, 16.914300)" fill="#FA0000"><path d="M14.253,7.5109 C13.147,4.3979 11.964,1.0759 8.585,0.5019 C4.358,-0.2161 1.327,5.8899 4.916,10.4919 C2.755,10.8689 0.792,12.1809 0.935,15.4609 C1.095,19.1289 4.397,21.2809 7.733,19.7289 C9.355,22.6149 11.169,25.8429 14.778,24.7999 C17.401,24.0409 20.003,19.5049 16.993,17.5669 C19.458,16.0849 22.579,14.6839 22.95,11.1859 C23.411,6.8269 20.171,5.0699 17.083,7.4989 C16.954,5.2679 17.688,2.6399 15.86,2.3769 C14.253,2.1459 14.05,5.3159 14.253,7.5109" id="Fill-11"/></g><g id="Group-16" transform="translate(0.000000, 20.914300)" fill="#FD839D"><path d="M8.4444,9.1579 C8.0964,11.1629 5.8764,13.4039 4.1084,13.9309 C2.7154,14.3469 -0.3016,14.0359 0.0244,11.8419 C0.4624,8.8839 5.8154,8.6429 7.7294,8.5539 C5.7434,7.8289 4.2514,7.0529 3.3474,4.9549 C2.6674,3.3769 2.5954,1.1069 4.6644,0.9619 C7.6364,0.7529 9.2564,7.1599 8.4444,9.1579" id="Fill-14"/></g><path d="M31.3487,1.6088 C27.8037,0.6678 26.8177,6.4488 31.2137,7.2488 C32.7767,7.5338 33.9267,6.9928 33.9967,5.5218 C34.0517,4.4448 32.8327,2.0028 31.3487,1.6088" id="Fill-17" fill="#556EF8"/><path d="M15.5655,32.6518 C15.9345,31.2808 16.1615,27.7408 14.0155,28.0808 C12.0655,28.3908 12.4565,31.7278 13.0085,32.8578 C12.2585,31.9138 9.1225,30.6138 8.5425,32.6518 C8.0815,34.2808 11.3355,34.9748 12.3565,35.2498 C9.1265,34.9078 5.9345,40.3768 10.0675,41.4908 C13.2145,42.3398 13.8645,39.5258 14.0475,36.9288 C15.0525,39.7868 18.8155,41.6808 19.7955,37.6788 C20.3955,35.2328 18.3745,29.3658 15.4245,32.5008" id="Fill-19" fill="#FFC5EB"/></g></g></g></g></g></g></svg>