<svg viewBox="63.75 76.5 918.0000000000002 854.2499999999999" xmlns="http://www.w3.org/2000/svg" xmlns:xlink="http://www.w3.org/1999/xlink" overflow="visible" width="918.0000000000002px" height="854.2499999999999px"><defs><path d="M0.611,4.152 C0.516,6.977 4.407,8.141 8.572,9.455 L8.572,9.455 C16.217,11.868 20.367,12.194 21.052,9.038 L21.052,9.038 C21.453,7.193 20.288,5.826 18.679,5.317 L18.679,5.317 C17.91,5.073 16.958,4.844 15.818,4.517 L15.818,4.517 C15.818,4.517 12.448,3.701 6.92,1.517 L6.92,1.517 C6.885,1.502 6.85,1.488 6.813,1.475 L6.813,1.475 C5.923,1.139 5.098,0.988999462 4.36,0.988999462 L4.36,0.988999462 C2.113,0.988 0.672,2.381 0.611,4.152 L0.611,4.152 Z" id="masterspot-illustrationwaiting-for-flight-path-3"/><path d="M51.435,0.087 C51.435,0.087 44.897,0.087 38.836,1.908 L38.836,1.908 C28.006,5.162 15.113,16.205 9.537,34.505 L9.537,34.505 C1.796,59.903 0.573044623,161.261 0.573044623,161.261 L0.573044623,161.261 C0.523,163.974 2.523,164.806 4.382,164.806 L4.382,164.806 L108.19,164.806 C109.706,164.806 110.931,163.568 110.914175,162.053 L110.914175,162.053 L104.975,13.276 L99.987,0.087 L51.435,0.087 Z" id="masterspot-illustrationwaiting-for-flight-path-7"/><path d="M51.435,0.087 C51.435,0.087 44.897,0.087 38.836,1.908 L38.836,1.908 C28.006,5.162 15.113,16.205 9.537,34.505 L9.537,34.505 C1.796,59.903 0.573044623,161.261 0.573044623,161.261 L0.573044623,161.261 C0.523,163.974 2.523,164.806 4.382,164.806 L4.382,164.806 L108.19,164.806 C109.706,164.806 110.931,163.568 110.914175,162.053 L110.914175,162.053 L104.975,13.276 L99.987,0.087 L51.435,0.087 Z" id="masterspot-illustrationwaiting-for-flight-path-9"/><path d="M51.435,0.087 C51.435,0.087 44.897,0.087 38.836,1.908 L38.836,1.908 C28.006,5.162 15.113,16.205 9.537,34.505 L9.537,34.505 C1.796,59.903 0.573044623,161.261 0.573044623,161.261 L0.573044623,161.261 C0.523,163.974 2.523,164.806 4.382,164.806 L4.382,164.806 L108.19,164.806 C109.706,164.806 110.931,163.568 110.914175,162.053 L110.914175,162.053 L104.975,13.276 L99.987,0.087" id="masterspot-illustrationwaiting-for-flight-path-11"/><path d="M51.435,0.087 C51.435,0.087 44.897,0.087 38.836,1.908 L38.836,1.908 C28.006,5.162 15.113,16.205 9.537,34.505 L9.537,34.505 C1.796,59.903 0.573044623,161.261 0.573044623,161.261 L0.573044623,161.261 C0.523,163.974 2.523,164.806 4.382,164.806 L4.382,164.806 L108.19,164.806 C109.706,164.806 110.931,163.568 110.914175,162.053 L110.914175,162.053 L104.975,13.276 L99.987,0.087 L51.435,0.087 Z" id="masterspot-illustrationwaiting-for-flight-path-13"/><path d="M51.435,0.087 C51.435,0.087 44.897,0.087 38.836,1.908 L38.836,1.908 C28.006,5.162 15.113,16.205 9.537,34.505 L9.537,34.505 C1.796,59.903 0.573044623,161.261 0.573044623,161.261 L0.573044623,161.261 C0.523,163.974 2.523,164.806 4.382,164.806 L4.382,164.806 L108.19,164.806 C109.706,164.806 110.931,163.568 110.914175,162.053 L110.914175,162.053 L104.975,13.276 L99.987,0.087 L51.435,0.087 Z" id="masterspot-illustrationwaiting-for-flight-path-15"/><path d="M51.435,0.087 C51.435,0.087 44.897,0.087 38.836,1.908 L38.836,1.908 C28.006,5.162 15.113,16.205 9.537,34.505 L9.537,34.505 C1.796,59.903 0.573044623,161.261 0.573044623,161.261 L0.573044623,161.261 C0.523,163.974 2.523,164.806 4.382,164.806 L4.382,164.806 L108.19,164.806 C109.706,164.806 110.931,163.568 110.914175,162.053 L110.914175,162.053 L104.975,13.276 L99.987,0.087 L51.435,0.087 Z" id="masterspot-illustrationwaiting-for-flight-path-17"/><path d="M0.611,4.152 C0.516,6.977 4.407,8.141 8.572,9.455 L8.572,9.455 C16.217,11.868 20.367,12.194 21.052,9.038 L21.052,9.038 C21.453,7.193 20.288,5.826 18.679,5.317 L18.679,5.317 C17.91,5.073 16.958,4.844 15.818,4.517 L15.818,4.517 C15.818,4.517 12.448,3.701 6.92,1.517 L6.92,1.517 C6.885,1.502 6.85,1.488 6.813,1.475 L6.813,1.475 C5.923,1.139 5.098,0.988999462 4.36,0.988999462 L4.36,0.988999462 C2.113,0.988 0.672,2.381 0.611,4.152 L0.611,4.152 Z" id="masterspot-illustrationwaiting-for-flight-path-19"/><polygon id="masterspot-illustrationwaiting-for-flight-path-1" points="0.644 0.0174503817 98.896 0.0174503817 98.896 28.4488725 0.644 28.4488725"/><polygon id="masterspot-illustrationwaiting-for-flight-path-5" points="0.644 0.018 98.896 0.018 98.896 31.1879 0.644 31.1879"/></defs><g id="Master/Spot Illustration/Waiting for Flight" stroke="none" stroke-width="1" fill="none" fill-rule="evenodd"><g id="Window" opacity=".75" transform="translate(88.000000, 82.000000)"><path d="M513.539869,269.677546 C571.403195,263.303185 596.875001,283.528903 596.875001,283.528903 C596.875001,283.528903 625.286134,248.103028 675.740252,244.670861 C726.193583,241.238694 737.460609,255.764845 737.460609,255.764845 C737.460609,255.764845 750.038192,219.531262 793.792594,213.780574 C816.675499,210.773103 832.465049,214.211561 844,221.613842 L844,5.14431773 C844,2.30279198 841.698667,0 838.860696,0 L704.552094,0 C699.646146,31.898545 680.421489,73.0955564 637.532149,70.6071569 C586.832891,67.6649626 578.751118,21.697208 578.751118,21.697208 C578.751118,21.697208 559.646674,72.8132127 516.296126,70.6071569 C472.944791,68.4003146 464.127597,22.8006292 464.127597,22.8006292 C464.127597,22.8006292 447.96248,63.9874164 392.11999,63.9874164 C346.185253,63.9874164 330.004422,26.8761306 324.307267,0 L4.87137786,0 C2.18112015,0 0,2.18324813 0,4.87691703 L0,342 L413.061414,342 C413.061414,342 438.531649,277.522611 513.539869,269.677546" id="Fill-5" fill="#FFCFE0"/><path d="M0,342 L0,569.591597 C0,572.579088 2.4239056,575 5.41430582,575 L836.439929,575 C840.615175,575 844,571.619356 844,567.449267 L844,342 L413.061799,342 L0,342 Z" id="Fill-7" fill="#FFE2E9"/><path d="M392.76906,64.2454803 C448.575595,64.2454803 464.729519,22.8920768 464.729519,22.8920768 C464.729519,22.8920768 473.541036,68.6762303 516.864458,70.8920001 C560.18788,73.1069803 579.279238,21.7849815 579.279238,21.7849815 C579.279238,21.7849815 587.356592,67.9379036 638.022422,70.8920001 C680.884931,73.3904662 700.09721,32.0267972 705,0 L325,0 C330.693487,26.9840651 346.8639,64.2454803 392.76906,64.2454803" id="Fill-9" fill="#FFE2E9"/><path d="M793.785439,214.083676 C750.025587,219.82077 737.445426,255.968698 737.445426,255.968698 C737.445426,255.968698 726.17758,241.476887 675.716272,244.90094 C625.254964,248.325778 596.839782,283.667909 596.839782,283.667909 C596.839782,283.667909 571.364346,263.489219 513.492774,269.848511 C438.474651,277.675031 413,342 413,342 L844,342 L844,221.898426 C832.463405,214.513644 816.67239,211.083314 793.785439,214.083676" id="Fill-11" fill="#F9A9B4"/><path d="M83.4967524,108.975227 C83.4967524,108.975227 79.646405,90.6029396 59.7539953,92.8687357 C42.5252686,94.8305156 41.464845,113.257717 41.464845,113.257717 C41.464845,113.257717 36.0088712,145.941846 62.4807987,145.944234 C85.5781492,145.946621 85.4219261,125.555252 85.4219261,125.555252 C85.4219261,125.555252 87.9885614,147.239088 106.276923,145.944234 C124.566073,144.650175 123.603486,125.555252 123.603486,125.555252 C123.603486,125.555252 128.09135,143.474699 140.608135,143.355321 C157.613573,143.193762 161.508105,126.542111 157.613573,104.518445 C154.501735,86.9237069 137.086014,88.0132309 137.086014,88.0132309 C137.086014,88.0132309 121.357187,88.7294995 121.357187,103.582521 C121.357187,103.582521 116.243642,89.091613 103.068826,89.9559104 C83.3365843,91.2499688 83.4967524,108.975227 83.4967524,108.975227" id="Fill-13" fill="#FFE2E9"/><path d="M653.438197,99.0446105 L646.81065,73.3676656 C646.81065,73.3676656 643.89661,63.7072122 649.118386,60.9753207 C655.177475,57.8055706 663.833654,63.3764556 663.833654,63.3764556 L702,87.9067779 C702,87.9067779 687.667909,107.045769 653.438197,99.0446105" id="Fill-15" fill="#FCABA4"/><path d="M574.7971,103.385766 L592.830889,155.364035 L659.980253,137.974497 L661.322643,173.901126 C661.322643,173.901126 661.226702,188.233395 669.524824,189.762421 C677.822161,191.291447 685.687762,185.367254 692.402855,174.092254 C699.117949,162.817254 714.27429,125.171254 714.27429,125.171254 L759.743315,115.043023 C759.743315,115.043023 772.405973,111.984971 770.870915,103.385766 C769.335857,94.7857782 739.59882,85.6139719 739.59882,85.6139719 C739.59882,85.6139719 727.703691,81.9825351 712.739232,85.6139719 C697.774773,89.2438421 605.68543,110.073689 605.68543,110.073689 L587.075994,94.9776897 C587.075994,94.9776897 582.278936,90.9639964 577.098901,93.0656239 C571.919652,95.1680347 574.7971,103.385766 574.7971,103.385766" id="Fill-17" fill="#FCC8C0"/><path d="M618.08877,127.37173 C619.291712,134.579567 631.038844,132.893903 629.925721,125.592868 C628.849489,118.536578 616.856155,119.988033 618.08877,127.37173" id="Fill-19" fill="#FFF"/><path d="M640.08877,120.37173 C641.291712,127.579567 653.038844,125.893903 651.925721,118.592868 C650.849489,111.536578 638.856155,112.988033 640.08877,120.37173" id="Fill-21" fill="#FFF"/><path d="M664.088776,115.372316 C665.291717,122.579472 677.038843,120.893777 675.925721,113.592612 C674.848687,106.536196 662.856161,107.988487 664.088776,115.372316" id="Fill-23" fill="#FFF"/><path d="M691.08877,109.37173 C692.291712,116.579567 704.038844,114.893903 702.925721,107.592868 C701.849489,100.536578 689.856155,101.988033 691.08877,109.37173" id="Fill-25" fill="#FFF"/><path d="M718.08877,103.372316 C719.291712,110.579472 731.038844,108.893777 729.925721,101.592612 C728.849489,94.536196 716.856155,95.9884869 718.08877,103.372316" id="Fill-27" fill="#FFF"/><path d="M242,155.26826 L242,349 L258,349 L258,155.26826 C258,155.26826 251.675918,147.914675 242,155.26826" id="Fill-29" fill="#F8FBF8"/><path d="M307.796828,70 L188.601194,72.5826839 C188.601194,72.5826839 182,71.8454508 182,78.4884422 C182,85.132223 183.833839,151.196678 183.833839,151.196678 C183.833839,151.196678 183.466758,155.994219 190.068736,155.994219 L312.197885,155.994219 C312.197885,155.994219 318.799079,156.363625 319.166161,151.196678 C319.533242,146.028942 321,81.0719155 321,81.0719155 C321,81.0719155 321,70 307.796828,70" id="Fill-31" fill="#FCC8C0"/><path d="M196.026499,98.2424448 C196.763083,108.069303 214.647007,109.34808 212.876831,97.495626 C211.272189,86.7510197 195.262195,88.0529606 196.026499,98.2424448" id="Fill-33" fill="#FCABA4"/><path d="M290.026499,129.243152 C290.763083,139.069205 308.647007,140.347982 306.876831,128.495535 C305.272189,117.750936 289.262195,119.052876 290.026499,129.243152" id="Fill-35" fill="#FCABA4"/><path d="M228.023711,100.531124 C228.762416,111.491704 246.37969,112.471608 245.993751,99.5789153 C245.617521,86.9924934 227.251023,89.0655224 228.023711,100.531124" id="Fill-37" fill="#FCABA4"/><path d="M197.023711,128.531124 C197.762416,139.491704 215.37969,140.471608 214.993751,127.578915 C214.617521,114.992493 196.251023,117.065522 197.023711,128.531124" id="Fill-39" fill="#FCABA4"/><path d="M260.023711,128.531124 C260.762416,139.491704 278.37969,140.471608 277.993751,127.578915 C277.617521,114.992493 259.251023,117.065522 260.023711,128.531124" id="Fill-41" fill="#FCABA4"/><path d="M260.006969,100.146443 C260.39437,110.15741 277.001547,111.398884 277,99.182084 C276.999227,89.2368328 259.601784,89.677841 260.006969,100.146443" id="Fill-43" fill="#FCABA4"/><path d="M229.006969,128.146548 C229.39437,138.15751 246.00232,139.398983 246,127.181398 C245.999227,117.236944 228.601784,117.677952 229.006969,128.146548" id="Fill-45" fill="#FCABA4"/><path d="M290.006969,100.146443 C290.39437,110.15741 307.00232,111.398884 307,99.182084 C306.999227,89.2368328 289.601784,89.677841 290.006969,100.146443" id="Fill-47" fill="#FCABA4"/><path d="M484,217.222728 L484,349 L495,349 L495,217.222728 C495,217.222728 490.651704,212.22159 484,217.222728" id="Fill-49" fill="#F8FBF8"/><path d="M528.976656,160 L447.511672,161.74207 C447.511672,161.74207 443,161.244448 443,165.724615 C443,170.204782 444.253199,214.760379 444.253199,214.760379 C444.253199,214.760379 444.002244,217.996099 448.514703,217.996099 L531.984175,217.996099 C531.984175,217.996099 536.496634,218.245301 536.746801,214.760379 C536.997756,211.275457 538,167.467466 538,167.467466 C538,167.467466 538,160 528.976656,160" id="Fill-51" fill="#FCC8C0"/><path d="M453.018673,178.666851 C453.538821,185.422289 466.16185,186.302277 464.913166,178.152719 C463.780162,170.7663 452.479655,171.661599 453.018673,178.666851" id="Fill-53" fill="#FCABA4"/><path d="M517.018674,199.666741 C517.538853,206.422186 530.162629,207.302175 528.913051,199.153414 C527.7808,191.766182 516.479624,192.661482 517.018674,199.666741" id="Fill-55" fill="#FCABA4"/><path d="M474.015818,179.354647 C474.508158,186.66131 486.253087,187.31396 485.995836,178.719528 C485.744916,170.328302 473.500522,171.710105 474.015818,179.354647" id="Fill-57" fill="#FCABA4"/><path d="M454.015818,199.353942 C454.508158,206.661411 466.253087,207.314063 465.995836,198.719618 C465.744916,190.32838 453.500522,191.710185 454.015818,199.353942" id="Fill-59" fill="#FCABA4"/><path d="M496.015818,199.353942 C496.508158,206.661411 508.253087,207.314063 507.995836,198.719618 C507.744916,190.32838 495.500522,191.710185 496.015818,199.353942" id="Fill-61" fill="#FCABA4"/><path d="M496.004918,179.601118 C496.278061,186.482613 508.001602,187.337308 508,178.937332 C507.999199,172.09977 495.718958,172.404105 496.004918,179.601118" id="Fill-63" fill="#FCABA4"/><path d="M475.004917,198.601012 C475.278043,205.482512 487.000801,206.337208 487,197.938024 C486.998398,191.099658 474.718977,191.403994 475.004917,198.601012" id="Fill-65" fill="#FCABA4"/><path d="M517.004918,179.601118 C517.278061,186.482613 529.001602,187.337308 529,178.937332 C528.999199,172.09977 516.718958,172.404105 517.004918,179.601118" id="Fill-67" fill="#FCABA4"/><path d="M278,302.506901 C275.262128,301.078853 272.156903,299.260336 268.819337,296.938775 C263.269808,293.078166 236.073191,273.853843 209.66387,255.16799 L127.734142,252.674024 L128.81893,224.919204 L169.382297,226.657422 C160.652974,220.477614 155.049285,216.509153 155.049285,216.509153 C155.049285,216.509153 124.21133,193.687158 88.243004,190.557892 C60.0762013,188.108011 0,185 0,185 L0.0345373793,419.102969 L273.590205,421.907893 C273.590205,421.907893 274.37436,421.978745 275.743296,422 C272.131,383.608823 275.609071,330.634872 278,302.506901" id="Fill-69" fill="#FCC8C0"/><path d="M327,369.411932 C327.016397,315.443808 289.747645,306.573235 289.747645,306.573235 C289.747645,306.573235 285.360375,305.45384 278.797045,302 C276.417906,330.245753 272.956985,383.441525 276.550688,421.99346 C286.406228,422.153939 326.984373,419.759413 327,369.411932" id="Fill-71" fill="#FCABA4"/><path d="M74.0441971,236.195643 C72.7592153,250.812895 99.9204504,251.177858 99.9204504,251.177858 L145,252 L128.201826,224.447291 L95.1486699,223.040584 C95.1486699,223.040584 75.329179,221.579171 74.0441971,236.195643" id="Fill-73" fill="#F9A9B4"/><path d="M145.829943,252.526546 L210,255 C194.896306,244.422236 180.050566,234.019363 169.641167,226.723923 L129,225 L145.829943,252.526546 Z" id="Fill-75" fill="#FFE2E9"/><path d="M23,419 L38.7265957,454.409091 C38.7265957,454.409091 41.3169609,460 48.7176653,460 L124.210232,460 C124.210232,460 130.131745,460 127.170988,452.172408 C124.210232,444.345614 111.258405,419.899137 111.258405,419.899137 L23,419 Z" id="Fill-77" fill="#FCABA4"/><polygon id="Fill-79" fill="#FF9786" points="70 460 70 509 90.2814214 509 91 460"/><path d="M52.1407682,528.788106 C54.6394129,560.287169 114.673694,560.656347 112.964178,524.18321 C111.216935,486.905594 48.6502111,484.789703 52.1407682,528.788106" id="Fill-85" fill="#FEB1CD"/><path d="M72,524.933626 C72,536.529136 92,535.211592 92,523.620882 C92,513.524509 72,512.963733 72,524.933626" id="Fill-87" fill="#FF9786"/><path d="M713.799684,324.780629 L713.426403,300.549422 C713.426403,300.549422 713.799684,290.296913 702.05544,290.111074 C690.31198,289.925235 629.169137,290.028741 629.169137,290.028741 C629.169137,290.028741 615.188342,289.179527 615.001702,298.312297 C614.815845,307.446636 629.914916,307.632475 629.914916,307.632475 L697.209057,307.632475 C697.209057,307.632475 701.869583,307.07339 701.869583,314.155658 L701.869583,346.401465 C701.869583,346.401465 702.428721,351.062338 695.345003,351.620639 C689.231347,352.103663 642.579031,354.668555 629.914916,355.361726 L629.914916,386.981013 C629.914916,390.304943 632.609442,393 635.934468,393 L711.767026,393 L779,325.466743 L713.799684,324.780629 Z" id="Fill-89" fill="#FCC8C0"/><path d="M821,387.02854 L821,332.337091 C821,329.063524 818.350917,326.400639 815.059703,326.365631 L780.055358,326 L713,393 L814.99635,393 C818.31181,393 821,390.326224 821,387.02854" id="Fill-91" fill="#FEB1CD"/><path d="M701.989601,346.990873 L701.989601,314.56921 C701.989601,307.448317 697.326812,308.010452 697.326812,308.010452 L630,308.010452 L630,356 C642.670264,355.303048 689.345228,352.72338 695.461853,352.23851 C702.54901,351.676376 701.989601,346.990873 701.989601,346.990873" id="Fill-93" fill="#F8FBF8"/><path d="M666.015322,393.479731 C665.145962,418.319855 701.559475,417.915352 701.997244,393.814574 C702.36012,373.815028 666.775047,371.786972 666.015322,393.479731" id="Fill-95" fill="#FCABA4"/><path d="M675.00194,395.846683 C675.222817,407.265521 691.951439,406.155874 692,395.846683 C692.046781,385.876056 674.789803,384.904102 675.00194,395.846683" id="Fill-97" fill="#FFE2E9"/><path d="M774.015322,393.479731 C773.145962,418.319855 809.559475,417.915352 809.997244,393.814574 C810.36012,373.815028 774.775047,371.786972 774.015322,393.479731" id="Fill-99" fill="#FCABA4"/><path d="M783.00194,395.846683 C783.222817,407.265521 799.951439,406.155874 800,395.846683 C800.046781,385.876056 782.789803,384.904102 783.00194,395.846683" id="Fill-101" fill="#FFE2E9"/><path d="M487.5285,456.705118 C487.6955,457.032494 487.8285,457.471162 487.9335,458 C487.8075,457.260764 487.5035,456.597888 487.0665,456 C487.2425,456.225833 487.4035,456.458164 487.5285,456.705118" id="Fill-347" fill="#B2C7B2"/><path d="M488.501,458.497 C488.502,458.506 488.502,458.515 488.503,458.523 C488.501,458.509 488.499,458.491 488.497,458.477 C488.498,458.484 488.5,458.49 488.501,458.497" id="Fill-349" fill="#006838"/><path d="M0,325.779644 L23.0199165,325.92736 C23.0199165,325.92736 34.9948059,327.397445 34.9948059,317.110779 L34.9948059,229.671761 C34.9948059,229.671761 35.6304965,220.027029 22.8367382,217.823866 C17.0580856,216.827571 0.0186282957,217.013787 0.0186282957,217.013787 L0,325.779644 Z" id="Fill-81" fill="#FCABA4"/><path d="M0,243.758851 C1.57396353,243.262055 3.34535531,242.989619 5.31573603,243.000303 C27.0820051,243.110956 25.6048048,270.095139 4.53460688,270 C2.87402463,269.992116 1.36248901,269.775388 0,269.384667 L0,243.758851 Z" id="Fill-83" fill="#FFE2E9"/></g><g id="Bag" transform="translate(66.000000, 522.000000)"><path d="M1.28369681,342.055642 C1.55369681,352.411642 10.0966968,360.627642 20.4556968,360.493306 L170.310697,358.519642 C170.310697,358.519642 180.064697,359.406642 180.064697,349.651642 L180.064697,120.730642 L52.9236968,120.730642 C52.9236968,120.730642 5.92469681,118.202642 1.82269681,178.060642 C-1.29330319,223.541642 0.325696807,305.371642 1.28369681,342.055642" id="Fill-175" fill="#A2D249"/><path d="M58.5767968,228.939442 C56.5947968,229.168442 25.9877968,230.602442 25.9877968,269.176442 L25.9877968,310.744442 C25.9877968,310.744442 25.3227968,326.706442 45.9397968,329.034442 C66.5577968,331.362442 101.474797,333.357442 101.474797,333.357442 C101.474797,333.357442 127.745797,335.241442 130.405797,311.409442 C132.638797,291.405442 132.733797,260.198442 129.075797,250.221442 C125.972797,241.760442 112.584797,228.276442 78.7667968,227.825442 C72.7117968,227.744442 66.0007968,228.081442 58.5767968,228.939442" id="Fill-177" fill="#67AD15"/><path d="M102.232497,266.683542 L99.8114968,291.346542 C99.8114968,291.346542 98.4784968,301.319542 106.240497,301.322544 C115.662497,301.327542 114.665497,293.008542 114.665497,293.008542 L111.123497,266.683542 L102.232497,266.683542 Z" id="Fill-179" fill="#EFD638"/><path d="M102.232497,173.495142 L99.8114968,198.157142 C99.8114968,198.157142 98.4784968,208.130142 106.240497,208.134143 C115.662497,208.138142 114.665497,199.820142 114.665497,199.820142 L111.123497,173.495142 L102.232497,173.495142 Z" id="Fill-181" fill="#EFD638"/><path d="M34.4673968,153.286142 C30.6433968,176.896142 61.4733968,177.063142 78.9793968,177.894142 C96.4863968,178.725142 114.942397,175.899142 114.942397,175.899142 C114.942397,175.899142 139.883397,173.571142 138.719397,153.785142 C138.319397,146.992142 129.637397,139.855142 113.944397,137.212142 C83.9273968,132.156142 36.9783968,137.781142 34.4673968,153.286142" id="Fill-183" fill="#67AD15"/><polygon id="Fill-185" fill="#000" points="180.065097 120.730442 180.065097 18.4414419 161.664097 18.4414419 161.664097 120.715442"/><polygon id="Fill-187" fill="#000" points="113.445897 120.730442 113.445897 18.4414419 95.0448968 18.4414419 95.0448968 120.715442"/><path d="M21.9971968,383.792942 C23.6031968,407.789942 63.6601968,404.244942 63.6752024,381.067942 C63.6931968,353.834942 19.9381968,353.036942 21.9971968,383.792942" id="Fill-189" fill="#EFD638"/><path d="M114.766197,382.346642 C116.372197,406.344642 156.429197,402.798642 156.445202,379.622642 C156.462197,352.388642 112.707197,351.591642 114.766197,382.346642" id="Fill-191" fill="#EFD638"/><path d="M36.7429158,380.438442 C36.7079968,388.781442 48.0229968,389.398442 48.8259968,380.854442 C49.6009968,372.596442 36.7789968,371.963442 36.7429158,380.438442" id="Fill-193" fill="#000"/><path d="M129.512016,378.993142 C129.477097,387.336142 140.792097,387.953142 141.595097,379.408142 C142.370097,371.151142 129.548097,370.517142 129.512016,378.993142" id="Fill-195" fill="#000"/><path d="M25.9915968,269.308542 C29.5095968,269.204542 29.4965968,268.785542 33.0145968,268.682542 C36.5325968,268.579542 36.5105968,267.836542 40.0285968,267.733542 C43.5465968,267.630542 43.5905968,269.132542 47.1075968,269.030542 C50.6255968,268.926542 50.6325968,269.182542 54.1505968,269.079542 C57.6685968,268.976542 57.6325968,267.758542 61.1505968,267.655542 C64.6695968,267.552542 64.7145968,269.089542 68.2325968,268.986542 C71.7495968,268.883542 71.7185968,267.832542 75.2345968,267.729542 C78.7525968,267.626542 78.7565968,267.778542 82.2745968,267.674542 C85.7925968,267.572542 85.8105968,268.185542 89.3275968,268.082542 C92.8455968,267.979542 92.8255968,267.288542 96.3435968,267.185542 C99.8625968,267.082542 99.8455968,266.515542 103.364597,266.412542 C106.880597,266.309542 106.885597,266.448542 110.401597,266.344542 C113.921597,266.242542 113.945597,267.047542 117.465597,266.944542 C120.987597,266.841542 120.986597,266.823542 124.509597,266.719542 C128.031597,266.617542 128.040597,266.941542 131.563597,266.837542" id="Stroke-197" stroke="#000" stroke-width="3" stroke-linecap="round"/><path d="M174.079297,0.0399419288 C172.528297,0.0859419288 101.807297,2.25694193 101.807297,2.25694193 C101.807297,2.25694193 81.0782968,1.92494193 81.6332968,15.3369419 C82.1272968,27.3009419 102.583297,26.1999419 118.766297,25.9789419 C134.950297,25.7569419 175.187297,24.4889419 175.187297,24.4889419 C175.187297,24.4889419 199.143297,24.0939419 199.131301,12.0119419 C199.121297,2.24694193 188.033297,-0.367058071 174.079297,0.0399419288" id="Fill-199" fill="#EFD638"/></g><g id="Chair" transform="translate(796.374505, 702.962350) scale(-1, 1) translate(-796.374505, -702.962350) translate(612.374505, 482.462350) scale(1 1)"><g id="Chair/Stool" stroke="none" stroke-width="1" fill="none" fill-rule="evenodd"><g id="Group-23" transform="translate(111.000000, 270.000000)"><polygon id="Fill-28" fill="#EFD638" points="30.8476954 133.439 121.597695 133.906 120.327695 113 33.3876954 113"/><polygon id="Fill-30" fill="#EFD638" points="42.4423954 50 75.3493954 50.373 106.710395 50.373 112.256395 71.373 40.7863954 71.373"/><path d="M27.7558954,3.15405628 L6.22289537,166.641082 C6.22289537,166.641082 5.31289537,170.068181 10.3638954,170.068181 L27.7558954,170.068181 C27.7558954,170.068181 29.9918954,170.538568 30.5718954,166.909874 C31.1518954,163.281181 50.3928954,3.15405628 50.3928954,3.15405628 C50.3928954,3.15405628 37.3628954,-3.74430059 27.7558954,3.15405628" id="Fill-32" fill="#70A0E6"/><path d="M123.575195,3.15405628 L145.108195,166.641082 C145.108195,166.641082 146.018195,170.068181 140.967195,170.068181 L123.575195,170.068181 C123.575195,170.068181 121.339195,170.538568 120.759195,166.909874 C120.179195,163.281181 100.938195,3.15405628 100.938195,3.15405628 C100.938195,3.15405628 113.968195,-3.74430059 123.575195,3.15405628" id="Fill-34" fill="#70A0E6"/><path d="M142.771495,23.82275 L142.771495,4.22375 C142.771495,-0.04625 137.774495,0.44375 137.774495,0.44375 C132.860495,0.58375 109.561495,0.23375 102.024495,0.09375 C95.2794954,-0.03125 47.5034954,-0.03125 40.7584954,0.09375 C33.2214954,0.23375 9.92149537,0.58375 5.00849537,0.44375 C5.00849537,0.44375 0.0114953718,-0.04625 0.0114953718,4.22375 L0.0114953718,23.82275 C0.0114953718,23.82275 -0.402504628,26.76275 3.73849537,26.76275 L70.6364954,26.76275 L72.1464954,26.76275 L139.044495,26.76275 C143.186495,26.76275 142.771495,23.82275 142.771495,23.82275" id="Fill-36" fill="#4C4ADC"/></g></g></g><g id="Chair" transform="translate(66.374505, 482.462350) scale(1 1)"><g id="Chair/Stool" stroke="none" stroke-width="1" fill="none" fill-rule="evenodd"><g id="Group-23" transform="translate(111.000000, 270.000000)"><polygon id="Fill-28" fill="#EFD638" points="30.8476954 133.439 121.597695 133.906 120.327695 113 33.3876954 113"/><polygon id="Fill-30" fill="#EFD638" points="42.4423954 50 75.3493954 50.373 106.710395 50.373 112.256395 71.373 40.7863954 71.373"/><path d="M27.7558954,3.15405628 L6.22289537,166.641082 C6.22289537,166.641082 5.31289537,170.068181 10.3638954,170.068181 L27.7558954,170.068181 C27.7558954,170.068181 29.9918954,170.538568 30.5718954,166.909874 C31.1518954,163.281181 50.3928954,3.15405628 50.3928954,3.15405628 C50.3928954,3.15405628 37.3628954,-3.74430059 27.7558954,3.15405628" id="Fill-32" fill="#70A0E6"/><path d="M123.575195,3.15405628 L145.108195,166.641082 C145.108195,166.641082 146.018195,170.068181 140.967195,170.068181 L123.575195,170.068181 C123.575195,170.068181 121.339195,170.538568 120.759195,166.909874 C120.179195,163.281181 100.938195,3.15405628 100.938195,3.15405628 C100.938195,3.15405628 113.968195,-3.74430059 123.575195,3.15405628" id="Fill-34" fill="#70A0E6"/><path d="M142.771495,23.82275 L142.771495,4.22375 C142.771495,-0.04625 137.774495,0.44375 137.774495,0.44375 C132.860495,0.58375 109.561495,0.23375 102.024495,0.09375 C95.2794954,-0.03125 47.5034954,-0.03125 40.7584954,0.09375 C33.2214954,0.23375 9.92149537,0.58375 5.00849537,0.44375 C5.00849537,0.44375 0.0114953718,-0.04625 0.0114953718,4.22375 L0.0114953718,23.82275 C0.0114953718,23.82275 -0.402504628,26.76275 3.73849537,26.76275 L70.6364954,26.76275 L72.1464954,26.76275 L139.044495,26.76275 C143.186495,26.76275 142.771495,23.82275 142.771495,23.82275" id="Fill-36" fill="#4C4ADC"/></g></g></g><g transform="translate(809.500000, 548.500000) scale(-1, 1) translate(-809.500000, -548.500000) translate(497.000000, 174.000000) scale(1 1)" id="Master/Character/Sitting"><defs><polygon id="mastercharactersitting-path-1" points="0.644 0.0174503817 98.896 0.0174503817 98.896 28.4488725 0.644 28.4488725"/><path d="M0.611,4.152 C0.516,6.977 4.407,8.141 8.572,9.455 L8.572,9.455 C16.217,11.868 20.367,12.194 21.052,9.038 L21.052,9.038 C21.453,7.193 20.288,5.826 18.679,5.317 L18.679,5.317 C17.91,5.073 16.958,4.844 15.818,4.517 L15.818,4.517 C15.818,4.517 12.448,3.701 6.92,1.517 L6.92,1.517 C6.885,1.502 6.85,1.488 6.813,1.475 L6.813,1.475 C5.923,1.139 5.098,0.988999462 4.36,0.988999462 L4.36,0.988999462 C2.113,0.988 0.672,2.381 0.611,4.152 L0.611,4.152 Z" id="mastercharactersitting-path-3"/></defs><g id="Master/Character/Sitting" stroke="none" stroke-width="1" fill="none" fill-rule="evenodd"><g id="Sitting/Lower Body" transform="translate(204.000000, 488.000000) scale(1 1)"><defs><polygon id="sittinglower-bodygreen-pants-path-1" points="0.644 0.018 98.896 0.018 98.896 31.1879 0.644 31.1879"/></defs><g id="Sitting/Lower Body/Green Pants" stroke="none" stroke-width="1" fill="none" fill-rule="evenodd"><g id="Group-100" transform="translate(51.000000, 6.000000)"><g id="Group-99" transform="translate(0.000000, 0.982000)"><path d="M173.4432,190.5383 C173.4432,190.5383 172.8462,246.4163 173.0112,248.5213 C173.1752,250.6263 173.6182,252.5333 177.9292,252.7263 C182.2392,252.9193 185.0112,252.9973 185.0112,252.9973 C185.0112,252.9973 187.5152,253.1743 188.4332,250.3563 C189.3502,247.5393 193.2712,238.2293 193.2712,238.2293 L198.2452,251.4343 C198.2452,251.4343 198.0862,253.9173 203.2242,254.1633 C208.3622,254.4083 230.2332,254.9633 234.9072,254.8943 C290.6162,254.0753 234.6182,234.9473 220.1072,230.6053 C218.2052,230.0363 216.8962,228.2983 216.8812,226.3123 C216.8102,217.1143 216.6402,192.4983 216.8542,191.7963 L173.4432,190.5383 Z" id="Fill-88" fill="#4D33A2"/><path d="M137.4939,190.558816 C136.1649,190.5479 135.0779,191.6149 135.0649,192.9429 C134.9529,203.6649 134.5139,246.6789 134.6579,248.5219 C134.8219,250.6259 135.2649,252.5339 139.5759,252.7269 C143.8859,252.9189 146.6579,252.9969 146.6579,252.9969 C146.6579,252.9969 149.1619,253.1739 150.0799,250.3569 C150.5019,249.0589 151.5619,246.3839 152.5829,243.8749 C153.4089,241.8459 156.2959,241.8859 157.0679,243.9369 L158.2049,246.9549 C158.2049,246.9549 160.2879,252.7759 165.3819,253.4919 C172.0879,254.4339 191.8799,254.9629 196.5549,254.8949 C254.3819,254.0439 194.1699,232.7219 182.9729,229.3169 C181.9659,229.0099 181.2819,228.0939 181.2729,227.0419 C181.2229,220.8249 181.0709,200.4079 181.1529,193.3399 C181.1679,192.0049 180.0989,190.9129 178.7639,190.9019 L137.4939,190.558816 Z" id="Fill-90" fill="#8C72CB"/><path d="M100.2401,25.3509 L86.2371,21.6909 L43.4856803,21.6909 L43.4856803,33.1069 L43.4856803,33.1069 C43.4856803,33.1069 42.3851,89.5889 101.5871,94.3399 L137.9261,99.4089 C137.9261,99.4089 167.2641,99.6319 167.2641,128.8549 C167.2641,140.2879 168.6301,190.3709 168.2881,195.9029 C168.1911,197.4919 168.1451,200.6929 168.1231,203.5739 C168.0991,206.8449 170.8131,209.7549 174.4621,209.8759 C175.4581,209.9099 175.9661,209.8759 176.8821,209.8759 C184.1911,209.8759 213.2091,209.891011 216.2501,209.891011 C221.8211,209.891011 222.1611,205.6819 222.2461,200.0289 C222.9971,150.0159 227.0591,94.9429 204.7451,67.3849 C187.8221,46.4849 164.9031,36.8409 100.2401,25.3509" id="Fill-92" fill="#A2D249"/><path d="M100.2401,25.3509 L75.2631,21.6909 L0.64368039,21.6909 L0.64368039,33.1069 L0.64368039,33.1069 C0.64368039,33.1069 -0.4569,89.5889 58.7461,94.3399 L95.0841,99.4089 C95.0841,99.4089 124.4231,99.6319 124.4231,128.8549 C124.4231,140.2879 125.7881,190.3709 125.4471,195.9029 C125.3491,197.4919 125.3031,200.6929 125.2821,203.5739 C125.2581,206.8449 127.9711,209.7549 131.6201,209.8759 C132.6161,209.9099 133.1241,209.8759 134.0401,209.8759 L181.9431,209.8759 C187.5131,209.8759 187.7121,205.6629 187.9391,200.0139 C188.1601,194.5249 196.4741,118.8129 181.9431,85.2539 C169.8851,57.4099 133.1621,42.8289 100.2401,25.3509" id="Fill-94" fill="#DDF77D"/><g id="Group-98"><mask id="sittinglower-bodygreen-pants-mask-2" fill="#ffffff"><use xlink:href="#sittinglower-bodygreen-pants-path-1" fill="#ffffff"/></mask><g id="Clip-97"/><path d="M77.223,0.0179 L22.318,0.0179 C10.347,0.0179 0.644,9.7209 0.644,21.6909 L0.644,29.3449 L98.707,31.1879 L98.896,21.6909 C98.896,9.7209 89.193,0.0179 77.223,0.0179" id="Fill-96" fill="#DDF77D" mask="url(#sittinglower-bodygreen-pants-mask-2)"/></g></g></g></g></g><g id="Upper Body" transform="translate(-1.000000, 53.000000) scale(1 1)"><g id="Upper Body/Typing" stroke="none" stroke-width="1" fill="none" fill-rule="evenodd"><g id="Group-691" transform="translate(249.500000, 180.500000)"><g id="Group-330" transform="translate(0.000000, 0.095000)"><path d="M272.9796,124.1949 C271.3596,118.7769 261.3096,78.7549 261.3096,78.7549 C261.3096,78.7549 248.5016,0.8069 183.1236,0.8069 C141.9586,0.8069 116.3966,23.8019 98.7236,55.6869 C109.9366,63.1949 124.9246,73.3469 139.4476,83.2189 C150.2096,62.9009 163.7736,46.6869 179.7586,46.3049 C207.0626,45.6549 215.2216,72.8509 218.6586,89.3419 L221.1816,103.0339 C221.1816,103.0339 200.2936,131.0109 208.6716,137.0599 C214.2886,141.1149 224.8136,124.1949 224.8136,124.1949 C224.8136,124.1949 231.2856,167.2489 239.5856,166.0989 C246.7476,164.8749 243.4396,148.9609 241.2116,140.6939 C242.8336,145.3239 245.7916,151.5069 249.9586,151.2009 C254.1946,150.8889 254.1236,144.7699 253.3596,139.8269 C254.6736,144.1929 257.0366,149.0989 260.9256,148.2599 C265.4746,147.2799 264.7596,139.8879 263.8616,135.3419 C265.0136,139.3799 267.3366,145.3139 270.9266,144.6199 C276.6166,143.5189 274.6986,129.9459 272.9796,124.1949" id="Fill-286" fill="#feb1cd"/><path d="M243.5919,153.7867 C242.8519,153.7867 242.2069,153.2377 242.1069,152.4837 C241.0139,144.2467 237.9949,130.4207 237.9649,130.2817 C237.7869,129.4737 238.2999,128.6737 239.1099,128.4957 C239.9199,128.3187 240.7179,128.8317 240.8949,129.6407 C240.9259,129.7807 243.9709,143.7287 245.0809,152.0897 C245.1899,152.9107 244.6129,153.6647 243.7909,153.7727 C243.7249,153.7827 243.6569,153.7867 243.5919,153.7867" id="Fill-288" fill="#000"/><path d="M253.044,150.3854 C252.817,150.3854 252.587,150.3334 252.371,150.2254 C251.635,149.8554 251.336,148.9614 251.699,148.2234 C251.734,148.1474 253.079,145.1864 252.271,139.2964 C251.374,132.7594 249.945,128.6854 249.932,128.6454 C249.654,127.8644 250.063,127.0074 250.843,126.7304 C251.627,126.4514 252.481,126.8614 252.758,127.6394 C252.82,127.8154 254.3,132.0184 255.243,138.8884 C256.198,145.8494 254.46,149.4104 254.385,149.5594 C254.122,150.0824 253.593,150.3854 253.044,150.3854" id="Fill-290" fill="#000"/><path d="M263.1133,148.4088 C262.8143,148.4088 262.5123,148.3198 262.2503,148.1348 C261.5813,147.6628 261.4153,146.7428 261.8723,146.0678 C261.9373,145.9608 263.6693,143.0298 262.3833,135.5978 C261.4453,130.1778 260.2423,127.3658 260.2303,127.3388 C259.9013,126.5798 260.2483,125.6958 261.0073,125.3658 C261.7663,125.0348 262.6463,125.3798 262.9793,126.1378 C263.0343,126.2628 264.3323,129.2628 265.3403,135.0868 C266.8603,143.8798 264.6023,147.3998 264.3413,147.7718 C264.0493,148.1868 263.5843,148.4088 263.1133,148.4088" id="Fill-292" fill="#000"/><path d="M51.6607,150.2623 C36.0597,189.2583 89.7487,209.6763 107.5187,167.1123 C107.5187,167.1123 122.7797,131.7283 141.9887,88.2983 C143.4987,84.8833 142.0807,80.5753 138.8527,78.6993 C125.3627,70.8613 112.7047,62.0423 101.7067,55.3133 C98.6427,53.4383 94.6257,54.3713 92.7567,57.4383 C74.2137,87.8563 62.0177,124.3733 51.6607,150.2623" id="Fill-294" fill="#3164CF"/><path d="M7.0411,286.778 L131.3161,286.778 C134.4421,286.778 137.0721,284.435 137.4311,281.33 L126.9931,221.6 C126.9931,221.6 124.8321,210.71 136.7481,204.53 C144.8621,200.321 150.4931,193.667 151.1581,189.455 C151.8231,185.242 154.2611,174.823 140.7381,165.955 C127.2151,157.087 121.4511,154.426 116.5731,144.229 C111.6961,134.031 111.8001,122.032 100.6111,122.032 L51.5681,122.032 C37.6501,122.032 25.7701,132.081 23.4721,145.807 C16.9911,184.503 4.5241,258.871 0.9731,279.59 C0.3291,283.35 3.2261,286.778 7.0411,286.778" id="Fill-296" fill="#AFDCFD"/><path d="M46.2198,165.4762 C46.2198,165.4762 22.4668,179.0082 41.3778,207.9402 C60.2878,236.8712 80.9058,267.1322 80.9058,267.1322 C80.9058,267.1322 102.5208,302.7132 144.7538,278.1062 C187.6278,253.1242 200.3108,244.7492 200.3108,244.7492 L256.8388,245.7462 C256.8388,245.7462 232.1008,185.5802 183.7958,201.6402 C180.6158,202.6972 177.5538,204.0782 174.5878,205.6382 L118.4828,234.8752 L85.5608,181.0032 C85.5608,181.0032 70.2638,151.4082 46.2198,165.4762" id="Fill-298" fill="#feb1cd"/><path d="M55.6856,229.7438 L100.8486,200.3698 C103.6966,198.5168 104.5906,194.7578 102.8706,191.8278 C93.8606,176.4798 72.8146,134.9558 40.4476,142.2718 C29.2756,144.7978 13.6226,164.2198 25.8156,189.9358 C34.0166,207.2338 42.3186,220.8198 46.8746,227.8618 C48.7886,230.8188 52.7336,231.6648 55.6856,229.7438" id="Fill-300" fill="#AFDCFD"/><path d="M238.0606,238.3971 C237.8696,238.3971 237.6746,238.3601 237.4876,238.2831 C228.7766,234.6701 212.9346,234.4911 212.7756,234.4891 C211.9466,234.4821 211.2816,233.8041 211.288545,232.9761 C211.2946,232.1481 211.9666,231.4361 212.8006,231.4891 C213.4736,231.4951 229.3836,231.6741 238.6356,235.5111 C239.4016,235.8291 239.7646,236.7071 239.4476,237.4711 C239.2076,238.0481 238.6496,238.3971 238.0606,238.3971" id="Fill-302" fill="#000"/><path d="M236.9522,226.8688 C236.7132,226.8688 236.4702,226.8108 236.2452,226.6908 C231.7372,224.2748 217.7252,223.0378 212.7072,222.7648 C211.8802,222.7208 211.2452,222.0138 211.2902,221.1858 C211.3362,220.3588 212.0452,219.7098 212.8692,219.7698 C213.6332,219.8108 231.6442,220.8218 237.6612,224.0468 C238.3912,224.4378 238.6672,225.3468 238.2752,226.0768 C238.0052,226.5818 237.4872,226.8688 236.9522,226.8688" id="Fill-304" fill="#000"/><path d="M237.3126,218.1949 C237.0346,218.1949 236.7526,218.1179 236.5016,217.9559 C230.8336,214.3059 212.8806,213.2149 212.7006,213.2049 C211.8736,213.1559 211.2426,212.4459 211.2916,211.6189 C211.3396,210.7929 212.0296,210.1589 212.8756,210.2099 C213.6456,210.2549 231.7976,211.3599 238.1246,215.4329 C238.8226,215.8819 239.0236,216.8099 238.5756,217.5069 C238.2886,217.9519 237.8046,218.1949 237.3126,218.1949" id="Fill-306" fill="#000"/><path d="M55.521,231.3463 C55.017,231.3463 54.525,231.0923 54.242,230.6313 C53.757,229.8433 53.679,229.2563 53.628,228.8683 C53.593,228.6063 53.583,228.5273 53.433,228.2833 C53.177,227.8673 53.035,227.7003 52.854,227.4903 C52.631,227.2293 52.378,226.9343 51.999,226.3163 C51.61,225.6833 51.459,225.2933 51.337,224.9803 C51.236,224.7203 51.164,224.5323 50.917,224.1303 C50.805,223.9483 50.774,223.9303 50.539,223.7993 C50.162,223.5883 49.591,223.2693 49.069,222.4193 C48.799,221.9803 48.648,221.7913 48.475,221.5743 C48.269,221.3163 48.036,221.0243 47.67,220.4283 C47.225,219.7023 47.109,219.2053 47.024,218.8423 C46.964,218.5853 46.935,218.4563 46.744,218.1473 C46.467,217.6963 46.305,217.4853 46.143,217.2733 C45.946,217.0173 45.723,216.7273 45.365,216.1443 L44.091,214.0753 C43.869,213.7143 43.744,213.5913 43.554,213.4053 C43.296,213.1523 42.977,212.8373 42.563,212.1633 C42.113,211.4313 42.001,210.9253 41.919,210.5573 C41.863,210.3033 41.835,210.1763 41.649,209.8733 C41.375,209.4283 41.226,209.2363 41.052,209.0133 C40.852,208.7563 40.625,208.4663 40.264,207.8783 C39.827,207.1683 39.703,206.6863 39.612,206.3333 C39.547,206.0773 39.51,205.9373 39.311,205.6123 C38.911,204.9603 38.766,204.5543 38.649,204.2273 C38.559,203.9733 38.493,203.7893 38.257,203.4063 C38.034,203.0423 37.908,202.9183 37.718,202.7293 C37.462,202.4773 37.144,202.1613 36.731,201.4903 C36.476,201.0753 36.334,200.9093 36.152,200.7003 C35.927,200.4383 35.671,200.1423 35.29,199.5213 C35.021,199.0823 34.87,198.8963 34.695,198.6793 C34.487,198.4193 34.25,198.1263 33.881,197.5263 C33.61,197.0843 33.459,196.8953 33.285,196.6753 C33.08,196.4173 32.846,196.1243 32.48,195.5283 C32.046,194.8223 32.268,193.8983 32.973,193.4643 C33.681,193.0323 34.604,193.2523 35.037,193.9573 C35.308,194.3993 35.458,194.5883 35.633,194.8083 C35.838,195.0673 36.071,195.3593 36.438,195.9553 C36.707,196.3943 36.857,196.5803 37.032,196.7973 C37.24,197.0573 37.477,197.3503 37.846,197.9503 C38.1,198.3653 38.243,198.5313 38.424,198.7403 C38.649,199.0013 38.905,199.2983 39.288,199.9193 C39.511,200.2843 39.637,200.4083 39.828,200.5973 C40.083,200.8493 40.401,201.1633 40.813,201.8353 C41.214,202.4883 41.359,202.8943 41.475,203.2203 C41.565,203.4743 41.631,203.6583 41.867,204.0413 C42.303,204.7523 42.427,205.2343 42.518,205.5863 C42.583,205.8423 42.62,205.9833 42.819,206.3083 C43.093,206.7523 43.243,206.9453 43.417,207.1663 C43.617,207.4233 43.844,207.7143 44.206,208.3033 C44.656,209.0343 44.767,209.5403 44.849,209.9093 C44.905,210.1623 44.933,210.2903 45.119,210.5923 C45.341,210.9543 45.466,211.0773 45.657,211.2653 C45.914,211.5173 46.233,211.8313 46.647,212.5053 L47.921,214.5743 C48.198,215.0243 48.36,215.2353 48.522,215.4463 C48.719,215.7013 48.941,215.9923 49.301,216.5763 C49.746,217.3023 49.861,217.7993 49.946,218.1623 C50.006,218.4193 50.036,218.5483 50.226,218.8583 C50.495,219.2963 50.646,219.4843 50.819,219.7023 C51.025,219.9603 51.259,220.2523 51.625,220.8493 C51.737,221.0323 51.768,221.0483 52.002,221.1803 C52.38,221.3913 52.951,221.7093 53.473,222.5603 C53.862,223.1943 54.013,223.5823 54.134,223.8953 C54.235,224.1563 54.309,224.3443 54.555,224.7453 C54.812,225.1623 54.954,225.3283 55.134,225.5393 C55.357,225.8003 55.609,226.0953 55.988,226.7123 C56.473,227.5003 56.551,228.0863 56.602,228.4753 C56.637,228.7373 56.647,228.8163 56.797,229.0603 C57.231,229.7663 57.011,230.6903 56.305,231.1233 C56.06,231.2743 55.789,231.3463 55.521,231.3463" id="Fill-308" fill="#000"/><polygon id="Fill-310" fill="#5A593D" points="200.3111 244.7496 177.0391 204.4046 168.3981 208.8636 192.7801 249.4956"/><path d="M184.669,235.9781 C184.744,236.1041 192.44,231.1051 192.44,231.1051 L189.843,226.4211 L181.69,231.0141 L184.669,235.9781 Z" id="Fill-312" fill="#000"/><path d="M172.4405,224.5924 C173.2165,236.0104 191.6275,235.4004 190.9515,223.4544 C190.2865,211.7064 171.5685,211.7634 172.4405,224.5924" id="Fill-314" fill="#F8FBF8"/><path d="M180.5323,227.1735 C180.3423,227.1735 180.1493,227.1375 179.9683,227.0635 C179.4643,226.8585 179.1103,226.3975 179.0443,225.8575 L178.2133,219.1225 C178.1113,218.3005 178.6953,217.5525 179.5173,217.4505 C180.3363,217.3515 181.0883,217.9335 181.1893,218.7555 L181.6913,222.8205 L186.1273,219.2655 C186.7753,218.7485 187.7183,218.8515 188.2353,219.4975 C188.7543,220.1445 188.6503,221.0885 188.0043,221.6065 L181.4703,226.8435 C181.2003,227.0605 180.8683,227.1735 180.5323,227.1735" id="Fill-316" fill="#000"/><path d="M332.835,286.7828 C332.051,290.6748 328.632,293.4728 324.663,293.4728 L116.832,293.4728 C107.355,293.4728 109.168,284.5138 109.168,284.5138 C109.683,275.3498 117.997,275.8488 117.997,275.8488 L211.835,276.3258 L231.451,188.2758 C232.377,184.1208 236.172,181.2448 240.423,181.4768 L343.515,187.1078 C347.885,187.3468 351.043,191.3838 350.222,195.6828 L332.835,286.7828 Z" id="Fill-318" fill="#4166FF"/><path d="M292.6617,201.7516 C291.0497,208.1646 301.3167,209.6386 302.5317,203.9336 C303.9857,197.1056 294.4307,194.7136 292.6617,201.7516" id="Fill-320" fill="#F8FBF8"/><path d="M235.3643,213.0729 L239.3873,193.2089 C240.0353,190.0079 242.8923,187.7359 246.1573,187.8259 L271.7883,188.5299 C271.7883,188.5299 277.3453,188.5849 277.373446,192.5679 C277.4023,196.6929 273.1143,197.4669 268.0693,197.4669 C263.0233,197.4669 260.9603,201.9349 260.9603,201.9349 C260.9603,201.9349 258.6633,206.6429 253.7423,206.5749 C247.5553,206.4889 246.8683,211.2159 246.8683,211.2159 C246.8683,211.2159 244.7313,217.8299 240.5093,218.7769 C236.2983,219.7219 234.5793,216.3709 235.3643,213.0729" id="Fill-322" fill="#AFDCFD"/><path d="M327.2501,280.2145 L327.1611,280.2145 C326.3151,280.1995 325.8361,280.0295 325.4851,279.9055 C325.2411,279.8185 325.1181,279.7755 324.7611,279.7695 C323.8521,279.7535 323.3241,279.5185 322.9751,279.3625 C322.7361,279.2565 322.6561,279.2205 322.3601,279.2155 C322.0581,279.2105 321.9681,279.2455 321.7291,279.3395 C321.3561,279.4855 320.8401,279.6845 319.9461,279.6725 C319.2441,279.6605 318.8731,279.6045 318.5451,279.5535 C318.2661,279.5115 318.0451,279.4775 317.5461,279.4695 C316.9061,279.4575 316.5871,279.4365 316.2681,279.4155 C315.9851,279.3965 315.7031,279.3775 315.1401,279.3675 C314.4771,279.3565 314.1461,279.3235 313.8151,279.2915 C313.5461,279.2655 313.2751,279.2385 312.7341,279.2305 C312.3821,279.2245 312.2641,279.2635 312.0211,279.3435 C311.6651,279.4605 311.1691,279.6165 310.3211,279.6065 C309.9351,279.5975 309.7821,279.6405 309.5341,279.7075 C309.1911,279.8015 308.7291,279.9275 307.9081,279.9145 C307.0741,279.9005 306.5921,279.7175 306.1321,279.5145 C305.8921,279.4085 305.8121,279.3735 305.5131,279.3685 C304.9931,279.3565 304.7611,279.3845 304.4851,279.4115 C304.1611,279.4445 303.7901,279.4825 303.1041,279.4715 C302.2561,279.4565 301.7761,279.2845 301.4261,279.1585 C301.1831,279.0715 301.0611,279.0285 300.7071,279.0235 L298.3021,278.9795 C298.0891,278.9735 298.0711,278.9885 297.8361,279.1165 C297.4571,279.3225 296.8861,279.6105 295.8871,279.6185 C294.9541,279.6035 294.4151,279.3405 294.0601,279.1675 C293.8251,279.0535 293.7631,279.0235 293.4941,279.0185 C293.2201,279.0095 293.1611,279.0415 292.9221,279.1485 C292.5601,279.3085 291.9891,279.5485 291.0811,279.5355 C290.1351,279.5195 289.5911,279.2425 289.2301,279.0605 C288.9971,278.9425 288.9421,278.9135 288.6871,278.9095 C288.4071,278.9065 288.3161,278.9375 288.0781,279.0355 C287.7231,279.1815 287.1551,279.4045 286.2771,279.3865 C285.7521,279.3755 285.4921,279.4005 285.2291,279.4215 C284.9131,279.4485 284.5501,279.4785 283.8771,279.4685 C283.0561,279.4535 282.5891,279.3055 282.2491,279.1965 C281.9991,279.1165 281.8621,279.0725 281.4821,279.0675 C281.0211,279.0595 280.8311,279.0925 280.5621,279.1395 C280.2311,279.1975 279.8231,279.2725 279.0741,279.2575 C278.5781,279.2425 278.3621,279.2775 278.0871,279.3125 C277.7531,279.3555 277.3721,279.4025 276.6671,279.3915 C275.5531,279.3725 274.9311,278.8725 274.5601,278.5735 C274.4891,278.5175 274.3921,278.4395 274.3591,278.4245 C273.7121,278.4075 273.4261,278.4155 273.1411,278.4225 C272.8231,278.4305 272.5081,278.4375 271.8741,278.4285 C271.4811,278.4235 271.3481,278.4605 271.0931,278.5295 C270.7501,278.6245 270.2881,278.7555 269.4641,278.7395 C268.8001,278.7285 268.4691,278.6945 268.1381,278.6615 C267.8691,278.6345 267.6011,278.6075 267.0631,278.5985 C266.6141,278.5915 266.4141,278.6245 266.1461,278.6715 C265.8141,278.7305 265.4031,278.8065 264.6561,278.7905 C263.8531,278.7775 263.4141,278.6495 263.0611,278.5455 C262.8091,278.4725 262.6561,278.4275 262.2571,278.4205 C261.5961,278.4085 261.2671,278.3775 260.9371,278.3455 C260.6671,278.3195 260.3961,278.2935 259.8551,278.2845 C259.4951,278.2775 259.3961,278.3165 259.1491,278.3995 C258.7921,278.5185 258.2951,278.6815 257.4451,278.6665 C256.7881,278.6545 256.4601,278.6235 256.1321,278.5935 C255.8601,278.5685 255.5891,278.5425 255.0451,278.5335 C254.2161,278.5195 253.7451,278.3635 253.4011,278.2505 C253.1551,278.1695 253.0211,278.1245 252.6471,278.1185 C252.2911,278.1095 252.1971,278.1515 251.9541,278.2345 C251.5941,278.3585 251.0981,278.5295 250.2361,278.5125 L247.8341,278.4755 C247.3991,278.4645 247.2341,278.5055 246.9731,278.5615 C246.6281,278.6355 246.1851,278.7165 245.4281,278.7145 C244.7061,278.7015 244.3251,278.6335 243.9881,278.5725 C243.7211,278.5255 243.5091,278.4865 243.0291,278.4795 C242.4471,278.4685 242.1551,278.4715 241.8641,278.4735 C241.5541,278.4755 241.2421,278.4775 240.6271,278.4675 C240.1481,278.4595 239.9301,278.4885 239.6591,278.5275 C239.3221,278.5745 238.9451,278.6285 238.2201,278.6165 L235.8161,278.5675 C234.8751,278.5505 234.3331,278.2785 233.9751,278.0995 C233.7391,277.9815 233.6841,277.9535 233.4251,277.9485 C232.7831,277.9385 232.4631,277.9155 232.1421,277.8925 C231.8631,277.8725 231.5831,277.8525 231.0251,277.8435 C230.7171,277.8365 230.6101,277.8745 230.3711,277.9635 C230.0041,278.1015 229.4711,278.2835 228.6171,278.2745 C228.1691,278.2625 227.9851,278.3025 227.7261,278.3535 C227.3891,278.4185 226.9641,278.4975 226.2121,278.4865 C225.4691,278.4745 225.0601,278.3885 224.7311,278.3195 C224.4651,278.2635 224.2721,278.2235 223.8151,278.2155 C222.8341,278.1985 222.2751,277.8835 221.9061,277.6745 C221.6781,277.5455 221.6441,277.5255 221.4241,277.5225 C221.3171,277.5145 221.3201,277.5215 221.1181,277.6675 C220.7391,277.9425 220.0601,278.3865 219.0051,278.3815 C217.9501,278.3635 217.3451,277.9445 216.9831,277.6955 C216.7631,277.5435 216.7631,277.5435 216.6161,277.5405 C216.1701,277.5285 215.9891,277.5695 215.7291,277.6205 C215.3921,277.6875 214.9831,277.7625 214.2121,277.7575 C213.5841,277.7465 213.2711,277.7305 212.9581,277.7135 C212.6721,277.6975 212.3851,277.6835 211.8121,277.6735 C210.9841,277.6585 210.3241,276.9765 210.337881,276.1475 C210.3531,275.3185 211.0271,274.6645 211.8631,274.6735 C212.4911,274.6845 212.8041,274.7005 213.1171,274.7175 C213.4031,274.7335 213.6901,274.7475 214.2631,274.7575 C214.7061,274.7665 214.8911,274.7285 215.1491,274.6775 C215.4871,274.6105 215.8981,274.5325 216.6671,274.5405 C217.7221,274.5595 218.3271,274.9775 218.6881,275.2275 C218.9091,275.3795 218.9091,275.3795 219.0561,275.3815 C219.1481,275.3875 219.1551,275.3845 219.3601,275.2365 C219.7391,274.9625 220.4021,274.5385 221.4751,274.5225 C222.4561,274.5385 223.0151,274.8545 223.3841,275.0635 C223.6121,275.1925 223.6461,275.2125 223.8661,275.2155 C224.6091,275.2285 225.0191,275.3145 225.3471,275.3835 C225.6131,275.4395 225.8061,275.4795 226.2631,275.4865 C226.7061,275.4985 226.8941,275.4575 227.1541,275.4075 C227.4911,275.3425 227.9191,275.2685 228.6681,275.2745 C228.9931,275.2795 229.0841,275.2425 229.3221,275.1525 C229.6891,275.0155 230.1861,274.8225 231.0761,274.8435 C231.7161,274.8545 232.0361,274.8775 232.3551,274.9005 C232.6361,274.9195 232.9151,274.9405 233.4761,274.9485 C234.4181,274.9655 234.9601,275.2365 235.3191,275.4175 C235.5541,275.5345 235.6091,275.5625 235.8671,275.5675 L238.2711,275.6165 C238.7601,275.6245 238.9681,275.5955 239.2381,275.5575 C239.5751,275.5095 239.9501,275.4575 240.6781,275.4675 C241.2611,275.4775 241.5531,275.4755 241.8431,275.4735 C242.1521,275.4705 242.4641,275.4685 243.0801,275.4795 C243.8021,275.4915 244.1831,275.5605 244.5201,275.6205 C244.7871,275.6685 244.9991,275.7065 245.4791,275.7145 C245.9091,275.7265 246.0781,275.6855 246.3391,275.6285 C246.6841,275.5545 247.1271,275.4655 247.8851,275.4755 L250.2871,275.5125 C250.6431,275.5165 250.7371,275.4805 250.9801,275.3975 C251.3411,275.2735 251.8361,275.1105 252.6981,275.1185 C253.5271,275.1325 253.9981,275.2885 254.3421,275.4025 C254.5881,275.4835 254.7231,275.5275 255.0961,275.5335 C255.7541,275.5445 256.0831,275.5755 256.4121,275.6065 C256.6831,275.6315 256.9541,275.6565 257.4961,275.6665 C257.8551,275.6715 257.9541,275.6345 258.2021,275.5525 C258.5611,275.4335 259.0631,275.2735 259.9061,275.2845 C260.5661,275.2965 260.8961,275.3275 261.2251,275.3605 C261.4951,275.3855 261.7661,275.4115 262.3081,275.4205 C263.1101,275.4345 263.5491,275.5635 263.9021,275.6655 C264.1541,275.7395 264.3071,275.7835 264.7071,275.7905 C265.1571,275.8025 265.3561,275.7655 265.6231,275.7175 C265.9561,275.6585 266.3831,275.5895 267.1141,275.5985 C267.7781,275.6105 268.1091,275.6435 268.4401,275.6765 C268.7091,275.7035 268.9781,275.7315 269.5151,275.7395 C269.9061,275.7465 270.0411,275.7075 270.2961,275.6385 C270.6401,275.5435 271.1091,275.4215 271.9251,275.4285 C272.4921,275.4385 272.7781,275.4305 273.0631,275.4235 C273.3811,275.4155 273.6971,275.4075 274.3301,275.4175 C275.4451,275.4375 276.0671,275.9375 276.4381,276.2355 C276.5091,276.2925 276.6051,276.3695 276.6391,276.3855 C277.2011,276.4015 277.4291,276.3725 277.7051,276.3365 C278.0381,276.2945 278.4181,276.2485 279.1251,276.2575 C279.5861,276.2685 279.7761,276.2325 280.0451,276.1855 C280.3761,276.1265 280.8031,276.0565 281.5331,276.0675 C282.3541,276.0805 282.8201,276.2305 283.1601,276.3385 C283.4101,276.4175 283.5481,276.4615 283.9281,276.4685 C284.4531,276.4795 284.7141,276.4555 284.9761,276.4335 C285.2921,276.4065 285.6561,276.3785 286.3281,276.3865 C286.6061,276.3985 286.6981,276.3595 286.9371,276.2615 C287.2911,276.1145 287.8551,275.8955 288.7371,275.9095 C289.6841,275.9265 290.2281,276.2025 290.5881,276.3855 C290.8211,276.5035 290.8761,276.5315 291.1321,276.5355 C291.4111,276.5465 291.4671,276.5125 291.7051,276.4055 C292.0671,276.2455 292.6461,276.0065 293.5451,276.0185 C294.4781,276.0345 295.0171,276.2965 295.3721,276.4705 C295.6061,276.5835 295.6691,276.6145 295.9381,276.6185 C296.1551,276.6295 296.1671,276.6095 296.4011,276.4825 C296.7811,276.2755 297.3451,275.9775 298.3531,275.9795 L300.7581,276.0235 C301.6061,276.0375 302.0861,276.2095 302.4371,276.3345 C302.6801,276.4215 302.8011,276.4655 303.1541,276.4715 C303.6731,276.4805 303.9061,276.4555 304.1821,276.4275 C304.5061,276.3955 304.8711,276.3575 305.5631,276.3685 C306.3971,276.3835 306.8801,276.5665 307.3401,276.7685 C307.5801,276.8735 307.6601,276.9095 307.9591,276.9145 C308.3521,276.9175 308.4991,276.8805 308.7471,276.8135 C309.0901,276.7195 309.5521,276.5895 310.3721,276.6065 C310.7201,276.6155 310.8431,276.5715 311.0861,276.4925 C311.4421,276.3755 311.9461,276.2215 312.7851,276.2305 C313.4471,276.2415 313.7771,276.2745 314.1081,276.3065 C314.3781,276.3325 314.6481,276.3595 315.1901,276.3675 C315.8291,276.3795 316.1481,276.4015 316.4681,276.4215 C316.7501,276.4415 317.0321,276.4595 317.5971,276.4695 C318.2991,276.4815 318.6701,276.5375 318.9981,276.5885 C319.2771,276.6305 319.4981,276.6645 319.9971,276.6725 C320.3091,276.6835 320.3901,276.6435 320.6291,276.5485 C321.0011,276.4015 321.5081,276.1955 322.4111,276.2155 C323.3191,276.2315 323.8471,276.4665 324.1961,276.6225 C324.4351,276.7295 324.5151,276.7645 324.8121,276.7695 C325.6581,276.7835 326.1381,276.9535 326.4881,277.0775 C326.7321,277.1645 326.8551,277.2085 327.2131,277.2145 C327.4791,277.2185 327.5581,277.1885 327.7941,277.0845 C328.1551,276.9255 328.6981,276.6775 329.6321,276.7005 C330.5101,276.7155 331.0031,276.9115 331.3631,277.0555 C331.6071,277.1515 331.7091,277.1925 332.0381,277.1975 C332.1981,277.2025 332.1981,277.2005 332.4331,277.0545 C332.8021,276.8245 333.3971,276.4505 334.4651,276.4575 C335.2931,276.4725 335.9531,277.1545 335.939319,277.9835 C335.9261,278.8125 335.2201,279.4325 334.4141,279.4575 C334.2581,279.4575 334.2541,279.4545 334.0191,279.6015 C333.6501,279.8305 333.0611,280.1975 331.9871,280.1975 C331.1091,280.1825 330.6161,279.9855 330.2561,279.8435 C330.0121,279.7455 329.9101,279.7055 329.5811,279.7005 C329.3001,279.6935 329.2371,279.7265 329.0021,279.8305 C328.6511,279.9845 328.1281,280.2145 327.2501,280.2145" id="Fill-324" fill="#000"/><path d="M79.3086,92.9147 L67.9096,92.9147 C62.7556,92.9147 58.3696,96.6087 57.4536,101.6497 C57.4436,101.7127 57.4346,101.7727 57.4246,101.8367 L57.4196,101.8697 L57.4196,101.8707 C57.3826,102.1157 57.3446,102.3657 57.3076,102.6147 C55.9806,111.3557 54.3426,122.0667 54.3426,122.0667 L89.7756,122.0667 L89.8476,114.3017 L89.9456,103.6497 C90.0006,97.7367 85.2226,92.9147 79.3086,92.9147" id="Fill-326" fill="#feb1cd"/><path d="M89.7755,122.067 C75.9005,121.091 72.1095,118.116 72.2435,115.639 C72.3625,113.421 74.4475,113.73 75.3585,113.751 C79.3725,113.841 89.8475,114.301 89.8475,114.301" id="Fill-328" fill="#000"/></g></g></g></g><g id="Head" transform="translate(204.000000, 198.000000) scale(1 1)"><g id="Head/Short Ponytail 2" stroke="none" stroke-width="1" fill="none" fill-rule="evenodd"><g id="Group-183" transform="translate(57.000000, 70.000000)"><g id="Group-119" transform="translate(0.000000, 0.738000)"><path d="M94.2797,50.2955 C93.6827,48.2245 88.8087,47.3715 85.6927,47.0355 C84.3067,41.0205 82.7897,35.5255 81.4197,32.9635 C78.7147,27.9055 70.4677,22.5915 57.2797,24.6325 C48.5217,25.9875 39.1967,34.1565 45.2537,48.3775 C45.2537,48.3775 46.9867,51.8245 46.1567,57.5095 C46.0657,58.1355 45.9357,59.0105 45.7797,60.0515 L45.7787,60.0595 C45.5147,61.8185 45.1747,64.0745 44.8007,66.5395 C44.7917,66.6025 44.7817,66.6625 44.7727,66.7265 L44.7677,66.7605 C44.7297,67.0055 44.6927,67.2555 44.6547,67.5045 C44.4247,70.0945 45.1317,78.5695 64.2087,78.6665 L77.1947,79.1915 L77.3927,79.1995 C77.3927,79.1995 81.7437,79.1505 84.3777,79.1505 C89.8517,79.1505 90.7917,73.9325 90.1777,70.0695 C89.9677,68.7555 89.3007,64.8095 88.3697,59.9145 C92.7387,57.6265 95.0477,52.9565 94.2797,50.2955" id="Fill-111" fill="#feb1cd"/><path d="M1.2299,19.5719 C-3.9881,39.7319 27.1749,47.1209 32.8029,26.7989 C38.7829,5.2029 6.9299,-2.4471 1.2299,19.5719" id="Fill-113" fill="#fe5c4f"/><path d="M30.5057,37.6383 C35.2537,39.2823 37.6397,40.2323 39.1217,37.1743 C40.6047,34.1173 42.2717,30.5963 42.2717,30.5963 C42.2717,30.5963 43.9277,27.3193 40.2337,25.0383 C24.4407,15.2873 17.0947,32.9933 30.5057,37.6383" id="Fill-115" fill="#FEF864"/><path d="M87.5995,39.7047 C87.5995,39.7047 101.5375,33.9717 99.9125,20.5347 C98.2875,7.0987 87.4505,15.1167 86.2585,20.1007 C86.2585,20.1007 92.2185,0.1627 82.7915,0.0540678077 C73.3635,-0.0533 71.9545,13.7087 71.8475,16.4177 C71.8475,16.4177 50.8885,12.6467 41.0905,26.3357 C33.3025,37.2177 31.9555,51.9747 45.1115,64.5897 L52.2805,60.0087 C53.7495,59.0697 53.8885,56.9777 52.5515,55.8577 C50.8205,54.4067 49.1605,52.1327 49.8595,48.9917 C51.6465,40.9707 67.8915,42.0447 67.8915,42.0447 C67.8915,42.0447 83.5825,42.0107 87.5995,39.7047" id="Fill-117" fill="#fe5c4f"/></g></g></g></g><g id="Expression" transform="translate(315.000000, 299.000000) scale(1 1)"><defs><path d="M2.973,1.055 C-0.453,2.37 -2.944,13.004 10.567,16.001 L10.567,16.001 C16.271,17.266 19.387,14.583 19.536,11.9 L19.536,11.9 C19.665,9.554 17.527,7.208 12.869,7.501 L12.869,7.501 C11.822,7.568 10.572,7.073 9.905,5.972 L9.905,5.972 C8.651,3.902 7.906,0.626 4.999,0.626 L4.999,0.626 C4.417,0.626 3.749,0.757 2.973,1.055" id="expressionlaugh-path-1"/></defs><g id="Expression/Laugh" stroke="none" stroke-width="1" fill="none" fill-rule="evenodd"><g id="Group-77" transform="translate(13.400000, 13.300000)"><g id="Group-3" transform="translate(0.000000, 0.116900)"><g id="Group" transform="translate(0.000000, 15.000000)"><path d="M2.973,1.0549 C-0.453,2.3699 -2.944,13.0039 10.567,15.9999 C21.261,18.3719 22.855,6.8709 12.869,7.5009 C11.822,7.5679 10.571,7.0739 9.904,5.9719 C8.4,3.4879 7.63,-0.7321 2.973,1.0549" id="Fill-37" fill="#000"/><g id="Group-41"><mask id="expressionlaugh-mask-2" fill="#ffffff"><use xlink:href="#expressionlaugh-path-1" fill="#ffffff"/></mask><g id="Clip-40"/><path d="M-3.2101,3.4943 C-3.2101,3.4943 1.3509,2.7393 5.4389,7.3023 C9.5279,11.8643 9.1349,18.8593 9.1349,18.8593 C9.1349,18.8593 -6.6571,11.2823 -3.2101,3.4943" id="Fill-39" fill="#FF71DB" mask="url(#expressionlaugh-mask-2)"/></g></g><g id="Group-46" transform="translate(3.000000, 0.000000)"><path d="M3.1312,6.052 C3.7892,6.555 4.7312,6.427 5.2332,5.769 C7.2772,3.086 9.8032,4.136 10.1002,4.271 C10.8412,4.624 11.7342,4.313 12.0932,3.571 C12.4552,2.825 12.1432,1.928 11.3982,1.566 C10.3642,1.065 8.4892,0.66 6.5312,1.268 C5.2702,1.659 3.9732,2.472 2.8462,3.95 C2.3442,4.61 2.4722,5.55 3.1312,6.052" id="Fill-42" fill="#000"/><path d="M4.6669,6.3596 C4.6669,7.0556 3.7149,7.6196 2.5399,7.6196 C1.3649,7.6196 0.4129,7.0556 0.4129,6.3596 C0.4129,5.6646 1.3649,5.0996 2.5399,5.0996 C3.7149,5.0996 4.6669,5.6646 4.6669,6.3596" id="Fill-44" fill="#F8FBF8"/></g></g></g></g></g><g id="Facial Hair" transform="translate(311.300000, 303.950000) scale(1 1)" fill="#000"><g id="Facial Hair/None" stroke="none" stroke-width="1" fill="none" fill-rule="evenodd" fill-opacity="0"/></g><g id="Accesories" transform="translate(311.300000, 303.950000) scale(1 1)" fill="#000"><g id="Accesories/None" stroke="none" stroke-width="1" fill="none" fill-rule="evenodd" fill-opacity="0"/></g></g></g><g transform="translate(-49.000000, 174.000000) scale(1 1)" id="Master/Character/Sitting"><defs><polygon id="mastercharactersitting-path-1" points="0.644 0.0174503817 98.896 0.0174503817 98.896 28.4488725 0.644 28.4488725"/><path d="M0.611,4.152 C0.516,6.977 4.407,8.141 8.572,9.455 L8.572,9.455 C16.217,11.868 20.367,12.194 21.052,9.038 L21.052,9.038 C21.453,7.193 20.288,5.826 18.679,5.317 L18.679,5.317 C17.91,5.073 16.958,4.844 15.818,4.517 L15.818,4.517 C15.818,4.517 12.448,3.701 6.92,1.517 L6.92,1.517 C6.885,1.502 6.85,1.488 6.813,1.475 L6.813,1.475 C5.923,1.139 5.098,0.988999462 4.36,0.988999462 L4.36,0.988999462 C2.113,0.988 0.672,2.381 0.611,4.152 L0.611,4.152 Z" id="mastercharactersitting-path-3"/></defs><g id="Master/Character/Sitting" stroke="none" stroke-width="1" fill="none" fill-rule="evenodd"><g id="Sitting/Lower Body" transform="translate(204.000000, 488.000000) scale(1 1)"><defs><polygon id="sittinglower-bodypurple-pants-path-1" points="0.644 0.018 98.896 0.018 98.896 31.1879 0.644 31.1879"/></defs><g id="Sitting/Lower Body/Purple Pants" stroke="none" stroke-width="1" fill="none" fill-rule="evenodd"><g id="Group-100" transform="translate(51.000000, 6.000000)"><g id="Group-87" transform="translate(0.000000, 0.982000)"><path d="M270.1253,242.2669 C270.0513,241.5329 269.9343,240.8259 269.7683,240.1479 C269.3933,238.6119 268.7783,237.2229 267.9753,235.9509 C267.9723,235.9459 267.9653,235.9329 267.9653,235.9329 L267.9643,235.9329 C263.1223,228.2869 251.2083,224.9899 240.0723,221.2189 C229.0443,217.4849 218.7863,213.2819 216.9333,203.9179 L163.6533,205.4449 C163.6533,205.4449 164.4313,221.5149 164.9023,235.1189 C165.1103,241.1059 173.6543,250.8159 180.0133,250.9969 C196.0433,251.4549 255.8883,251.9129 255.8883,251.9129 C255.8883,251.9129 270.2173,251.3299 270.213301,243.9159 C270.213301,243.3629 270.1923,242.8099 270.1253,242.2669" id="Fill-54" fill="#FD2118"/><path d="M230.3113,228.0784 C229.9703,228.0784 229.6283,227.9634 229.3473,227.7264 C228.7123,227.1934 228.6303,226.2474 229.1643,225.6134 L237.2943,215.9394 C237.8283,215.3074 238.7753,215.2244 239.4083,215.7564 C240.0423,216.2894 240.1243,217.2354 239.5913,217.8704 L231.4603,227.5444 C231.1643,227.8964 230.7393,228.0784 230.3113,228.0784" id="Fill-56" fill="#D5E1D5"/><path d="M224.8045,224.72 C224.4575,224.72 224.1105,224.601 223.8265,224.357 C223.1995,223.816 223.1275,222.869 223.6685,222.241 L231.6165,213.008 C232.1575,212.381 233.1035,212.309 233.7315,212.85 C234.3595,213.391 234.4305,214.337 233.8895,214.965 L225.9425,224.199 C225.6455,224.543 225.2265,224.72 224.8045,224.72" id="Fill-58" fill="#D5E1D5"/><path d="M220.0149,220.7034 C219.6069,220.7034 219.1999,220.5374 218.9039,220.2114 C218.3469,219.5984 218.3939,218.6484 219.0069,218.0934 L226.1779,211.5894 C226.7899,211.0334 227.7409,211.0784 228.2969,211.6914 C228.8539,212.3064 228.8069,213.2544 228.1939,213.8104 L221.0229,220.3144 C220.7359,220.5754 220.3739,220.7034 220.0149,220.7034" id="Fill-60" fill="#D5E1D5"/><path d="M164.9026,236.2854 C164.9746,237.9774 165.0506,239.7374 165.1296,241.5514 C165.6266,252.9404 175.3566,252.6604 175.3566,252.6604 C175.3566,252.6604 199.6546,253.0884 222.0736,253.4294 C217.2916,249.9434 211.1106,246.1184 203.4576,242.6834 C189.4446,236.3944 173.8286,235.9034 164.9026,236.2854" id="Fill-62" fill="#D5E1D5"/><path d="M270.4017,243.7659 C270.3277,243.0169 269.5677,242.5429 268.8717,242.8299 C265.4287,244.2539 254.8937,247.8309 237.3147,247.1179 C215.4707,246.2309 218.5887,240.3559 198.4697,226.2229 C189.1157,219.6519 170.8467,220.1069 164.9117,220.4519 C163.8467,220.5129 163.0337,221.4119 163.0767,222.4789 C163.1717,224.8249 163.3657,229.4479 163.5887,234.7039 C163.6337,235.7749 164.5287,236.6109 165.5997,236.5839 C174.8787,236.3509 190.3987,236.8229 203.4577,242.6839 C211.1097,246.1189 217.2917,249.9439 222.0737,253.4289 C236.8667,253.6539 250.8407,253.8389 256.4737,253.8389 C269.8867,253.8389 270.7117,246.8959 270.4017,243.7659" id="Fill-64" fill="#4947D9"/><path d="M235.8733,242.2669 C235.7993,241.5329 235.6823,240.8259 235.5163,240.1479 C235.1413,238.6119 234.5273,237.2229 233.7233,235.9509 C233.7213,235.9459 233.7133,235.9329 233.7133,235.9329 L233.7123,235.9329 C228.8703,228.2869 216.9563,224.9899 205.8203,221.2189 C194.7933,217.4849 184.5343,213.2819 182.6813,203.9179 L129.4013,205.4449 C129.4013,205.4449 130.1793,221.5149 130.6513,235.1189 C130.8583,241.1059 139.4033,250.8159 145.7623,250.9969 C161.7913,251.4549 221.6363,251.9129 221.6363,251.9129 C221.6363,251.9129 235.9653,251.3299 235.961301,243.9159 C235.961301,243.3629 235.9403,242.8099 235.8733,242.2669" id="Fill-66" fill="#FE5C4F"/><path d="M100.2401,25.3509 L86.2371,21.6909 L43.4856803,21.6909 L43.4856803,33.1069 L43.4856803,33.1069 C43.4856803,33.1069 42.3851,89.5889 101.5871,94.3399 L137.9261,99.4089 C137.9261,99.4089 167.2641,99.6319 167.2641,128.8549 C167.2641,140.2879 168.6301,190.3709 168.2881,195.9029 C168.1911,197.4919 168.1451,200.6929 168.1231,203.5739 C168.0991,206.8449 170.8131,209.7549 174.4621,209.8759 C175.4581,209.9099 175.9661,209.8759 176.8821,209.8759 C184.1911,209.8759 213.2091,209.891011 216.2501,209.891011 C221.8211,209.891011 222.1611,205.6819 222.2461,200.0289 C222.9971,150.0159 227.0591,94.9429 204.7451,67.3849 C187.8221,46.4849 164.9031,36.8409 100.2401,25.3509" id="Fill-68" fill="#4947D9"/><path d="M100.2401,25.3509 L75.2631,21.6909 L0.64368039,21.6909 L0.64368039,33.1069 L0.64368039,33.1069 C0.64368039,33.1069 -0.4569,89.5889 58.7461,94.3399 L95.0841,99.4089 C95.0841,99.4089 124.4231,99.6319 124.4231,128.8549 C124.4231,140.2879 125.7881,190.3709 125.4471,195.9029 C125.3491,197.4919 125.3031,200.6929 125.2821,203.5739 C125.2581,206.8449 127.9711,209.7549 131.6201,209.8759 C132.6161,209.9099 133.1241,209.8759 134.0401,209.8759 L181.9431,209.8759 C187.5131,209.8759 187.7121,205.6629 187.9391,200.0139 C188.1601,194.5249 196.4741,118.8129 181.9431,85.2539 C169.8851,57.4099 133.1621,42.8289 100.2401,25.3509" id="Fill-70" fill="#7D7AF9"/><g id="Group-74"><mask id="sittinglower-bodypurple-pants-mask-2" fill="#ffffff"><use xlink:href="#sittinglower-bodypurple-pants-path-1" fill="#ffffff"/></mask><g id="Clip-73"/><path d="M77.223,0.0179 L22.318,0.0179 C10.347,0.0179 0.644,9.7209 0.644,21.6909 L0.644,29.3449 L98.707,31.1879 L98.896,21.6909 C98.896,9.7209 89.193,0.0179 77.223,0.0179" id="Fill-72" fill="#7D7AF9" mask="url(#sittinglower-bodypurple-pants-mask-2)"/></g><path d="M193.431,231.5442 C193.09,231.5442 192.748,231.4292 192.467,231.1922 C191.832,230.6592 191.75,229.7132 192.284,229.0782 L200.414,219.4042 C200.948,218.7722 201.895,218.6892 202.528,219.2222 C203.162,219.7552 203.244,220.7012 202.711,221.3352 L194.58,231.0092 C194.284,231.3612 193.859,231.5442 193.431,231.5442" id="Fill-75" fill="#F8FBF8"/><path d="M187.9241,228.1848 C187.5771,228.1848 187.2301,228.0658 186.9461,227.8218 C186.3191,227.2818 186.2471,226.3338 186.7881,225.7058 L194.7361,216.4738 C195.2771,215.8458 196.2231,215.7748 196.8511,216.3158 C197.4791,216.8558 197.5501,217.8028 197.0091,218.4308 L189.0621,227.6638 C188.7651,228.0078 188.3461,228.1848 187.9241,228.1848" id="Fill-77" fill="#F8FBF8"/><path d="M184.1194,221.8704 C183.7114,221.8704 183.3044,221.7044 183.0084,221.3784 C182.4514,220.7644 182.4984,219.8154 183.1114,219.2594 L190.2824,212.7554 C190.8944,212.1994 191.8454,212.2454 192.4014,212.8584 C192.9584,213.4724 192.9114,214.4214 192.2984,214.9764 L185.1274,221.4804 C184.8404,221.7414 184.4784,221.8704 184.1194,221.8704" id="Fill-79" fill="#F8FBF8"/><path d="M130.6512,236.2854 C130.7232,237.9774 130.7992,239.7374 130.8782,241.5514 C131.3752,252.9404 141.1042,252.6604 141.1042,252.6604 C141.1042,252.6604 165.4032,253.0884 187.8212,253.4294 C183.0402,249.9434 176.8582,246.1184 169.2062,242.6834 C155.1932,236.3944 139.5772,235.9034 130.6512,236.2854" id="Fill-81" fill="#D5E1D5"/><path d="M236.1497,243.7659 C236.0757,243.0169 235.3157,242.5429 234.6197,242.8299 C231.1767,244.2539 220.6427,247.8309 203.0637,247.1179 C181.2197,246.2309 184.3367,240.3559 164.2177,226.2229 C154.8637,219.6519 136.5947,220.1069 130.6607,220.4519 C129.5947,220.5129 128.7817,221.4119 128.8247,222.4789 C128.9197,224.8249 129.1137,229.4479 129.3367,234.7039 C129.3817,235.7749 130.2767,236.6109 131.3487,236.5839 C140.6277,236.3509 156.1467,236.8229 169.2067,242.6839 C176.8577,246.1189 183.0397,249.9439 187.8217,253.4289 C202.6147,253.6539 216.5887,253.8389 222.2217,253.8389 C235.6347,253.8389 236.4597,246.8959 236.1497,243.7659" id="Fill-83" fill="#7D7AF9"/><path d="M157.2898,242.5178 C157.2898,242.5178 142.7588,238.8148 141.2728,242.7398 C139.8868,246.3968 145.5438,249.0098 156.0708,249.4458 C164.1068,249.7778 163.0748,243.9038 157.2898,242.5178" id="Fill-85" fill="#FEF864"/></g></g></g></g><g id="Upper Body" transform="translate(-1.000000, 53.000000) scale(1 1)"><g id="Upper Body/Holding Puppy" stroke="none" stroke-width="1" fill="none" fill-rule="evenodd"><g id="Group-691" transform="translate(192.500000, 272.500000)"><g id="Group-636" transform="translate(0.000000, 0.095000)"><path d="M65.6822,54.4 L0.6492,234.026 C0.1332,238.765 3.6922,242.971 8.4522,243.238 C26.4432,244.246 112.8102,249.099 133.7552,245.767 C163.0182,241.112 195.6072,246.753 195.6072,246.753 C195.6072,246.753 213.5252,249.527 230.2322,248.894 C241.1942,248.479 248.4332,237.329 244.3372,227.153 L164.9742,30.032 L100.1682,29.926 L93.0622,29.9148354 C79.0152,29.871 70.5322,38.649 65.6822,54.4" id="Fill-592" fill="#CBB1F4"/><path d="M128.4341,105.9899 L167.7771,174.1359 C167.7771,174.1359 181.7741,205.1819 217.2231,198.1029 C275.0841,186.5489 254.6371,86.7509 231.6881,57.1059 L176.4861,65.4199 L128.4341,105.9899 Z" id="Fill-594" fill="#CBB1F4"/><path d="M171.6666,46.6627 L173.3536,46.3127 C177.3536,45.4837 180.7256,42.7357 182.2126,38.9317 C184.4686,33.1657 189.8056,25.2427 202.0916,25.3487 C221.3796,25.5147 222.7096,39.1487 222.7096,39.1487 C222.7096,39.1487 223.7076,45.1347 231.0226,44.8027 C238.3386,44.4697 254.7596,42.1187 256.4626,51.9517 C258.2916,62.5097 244.8236,63.7567 244.8236,63.7567 L228.4926,65.1047 C228.4926,65.1047 237.3416,96.3457 237.6736,115.6237 C237.9336,130.6477 231.3556,128.9257 231.3556,128.9257 C231.3556,128.9257 224.5386,129.0917 224.5386,119.7797 C224.5386,110.4697 221.8776,98.0087 221.8776,98.0087 L206.0826,98.6737 C206.0826,98.6737 210.0506,114.6777 207.4126,121.7847 C204.7746,128.8927 200.2636,128.9257 200.2636,128.9257 C200.2636,128.9257 192.2776,129.0827 193.1136,116.9637 C194.4436,97.6767 183.7876,76.7667 183.7876,76.7667 L171.6666,46.6627 Z" id="Fill-596" fill="#FECB72"/><path d="M193.2798,34.8258 C193.2798,34.8258 188.9748,35.8198 188.2908,42.3398 C187.6078,48.8588 183.0908,73.4558 199.2328,72.0558 C217.3058,70.4908 202.5908,31.9158 193.2798,34.8258" id="Fill-598" fill="#000"/><path d="M212.627,42.3688 C213.463,45.7858 218.68,44.8238 218.28,41.6588 C217.781,37.7128 211.626,38.2768 212.627,42.3688" id="Fill-600" fill="#000"/><path d="M252.0352,46.2545 C252.0352,46.2545 250.7262,42.8065 254.0512,40.2295 C256.8892,38.0305 262.1162,37.8935 264.7762,41.3105 C267.4362,44.7275 265.5492,49.8735 262.4482,51.4525 C259.2392,53.0875 253.7602,52.4455 252.0352,46.2545" id="Fill-602" fill="#000"/><path d="M236.2388,59.9772 C232.5468,59.9772 229.7338,59.6222 229.4988,59.5902 C228.6768,59.4842 228.0988,58.7312 228.2058,57.9102 C228.3118,57.0892 229.0538,56.5062 229.8858,56.6162 C229.9978,56.6302 241.0508,58.0212 247.8168,55.1792 C248.5808,54.8592 249.4608,55.2172 249.7808,55.9812 C250.1018,56.7452 249.7428,57.6232 248.9788,57.9452 C245.1008,59.5742 240.1708,59.9772 236.2388,59.9772" id="Fill-604" fill="#231F20"/><path d="M196.0894,128.7496 C195.6694,128.7496 195.2524,128.5736 194.9554,128.2316 C194.4164,127.6116 194.4794,126.6736 195.0914,126.1286 C195.1924,126.0346 196.9284,124.3566 196.6604,120.6166 C196.6014,119.7906 197.2234,119.0726 198.0494,119.0146 C198.8844,118.9546 199.5944,119.5766 199.6524,120.4026 C200.0344,125.7456 197.1934,128.2766 197.0714,128.3826 C196.7874,128.6286 196.4374,128.7496 196.0894,128.7496" id="Fill-606" fill="#231F20"/><path d="M202.5923,129.6637 C202.3073,129.6637 202.0183,129.5827 201.7633,129.4127 C201.0783,128.9577 200.8883,128.0367 201.3333,127.3487 C201.3783,127.2757 202.6283,125.1617 202.5313,120.5417 C202.5153,119.7137 203.1723,119.0277 204.0003,119.0107 C204.8253,118.9547 205.5143,119.6497 205.5313,120.4787 C205.6493,126.1067 204.0283,128.7147 203.8423,128.9937 C203.5543,129.4287 203.0773,129.6637 202.5923,129.6637" id="Fill-608" fill="#231F20"/><path d="M228.0269,129.3942 C227.8439,129.3942 227.6589,129.3602 227.4789,129.2902 C226.7089,128.9872 226.3299,128.1202 226.6299,127.3492 C226.6399,127.3202 227.7379,124.4212 227.3899,120.6482 C227.3149,119.8232 227.9219,119.0922 228.7469,119.0162 C229.5739,118.9352 230.3009,119.5482 230.3789,120.3732 C230.7939,124.8872 229.4789,128.2982 229.4229,128.4422 C229.1909,129.0332 228.6259,129.3942 228.0269,129.3942" id="Fill-610" fill="#231F20"/><path d="M233.7261,130.0328 C233.5641,130.0328 233.3991,130.0058 233.2371,129.9498 C232.4551,129.6798 232.0391,128.8298 232.3061,128.0488 C232.3201,128.0088 233.2471,125.1658 233.0161,119.9388 C232.9801,119.1108 233.6221,118.4108 234.4491,118.3748 C235.2731,118.3368 235.9771,118.9788 236.0141,119.8068 C236.2721,125.6788 235.1901,128.8878 235.1441,129.0218 C234.9291,129.6418 234.3481,130.0328 233.7261,130.0328" id="Fill-612" fill="#231F20"/><path d="M47.336,222.9762 C47.336,222.9762 85.204,224.5402 99.004,223.7082 C112.805,222.8772 122.12,223.1642 130.211,219.6392 C152.544,209.9092 151.047,179.8132 151.047,179.8132 L49.929,199.1532 L47.336,222.9762 Z" id="Fill-614" fill="#8C72CB"/><path d="M205.0582,201.5192 L205.0232,201.5192 C204.1712,201.5112 203.3342,201.4932 202.5102,201.4432 C202.2222,201.4252 201.9002,201.4462 201.5572,201.4662 C201.0792,201.4962 200.5412,201.5292 199.9802,201.4652 C199.3972,201.4002 198.8692,201.2402 198.4022,201.0982 C198.0822,201.0002 197.7802,200.9102 197.5172,200.8662 C197.2572,200.8222 196.9362,200.8232 196.5982,200.8232 C196.1222,200.8182 195.5532,200.8232 194.9782,200.6952 C194.4252,200.5732 193.9102,200.3832 193.4542,200.2152 C193.1592,200.1072 192.8652,199.9972 192.5692,199.9152 C192.3252,199.8472 192.0052,199.8182 191.6672,199.7882 C191.1742,199.7432 190.6152,199.6932 190.0492,199.5032 C189.4572,199.3052 188.9722,198.9972 188.5432,198.7242 C188.2682,198.5482 188.0082,198.3832 187.7962,198.3002 C187.4932,198.1802 187.1772,198.0922 186.8642,198.0022 C186.3872,197.8652 185.8942,197.7232 185.3962,197.4982 C185.1162,197.3722 184.8292,197.2532 184.5452,197.1372 C184.0632,196.9382 183.5642,196.7332 183.0792,196.4832 C182.5502,196.2122 182.1132,195.8682 181.7272,195.5642 C181.4652,195.3572 181.2172,195.1632 180.9962,195.0352 C180.4302,194.7092 180.0232,194.2892 179.6632,193.9182 C179.4462,193.6932 179.2402,193.4812 179.0732,193.3732 C178.7932,193.1952 178.4962,193.0512 178.2052,192.9072 C177.7702,192.6922 177.3212,192.4702 176.8812,192.1582 C176.3832,191.8052 176.0012,191.3992 175.6642,191.0412 C175.4452,190.8072 175.2372,190.5862 175.0482,190.4382 C174.7752,190.2252 174.4852,190.0472 174.2042,189.8732 C173.7992,189.6212 173.3812,189.3612 172.9862,189.0212 C172.8472,188.9022 172.5432,188.7862 172.2482,188.6722 C171.7462,188.4812 171.1762,188.2622 170.6932,187.8032 C170.1662,187.3042 169.8272,186.7452 169.5532,186.2952 C169.4162,186.0702 169.2752,185.8362 169.1792,185.7352 C168.4502,184.9642 168.2722,184.7162 168.0212,184.3452 C167.9222,184.1992 167.8022,184.0222 167.5652,183.7162 C167.0582,183.0612 167.1782,182.1192 167.8332,181.6122 C168.4872,181.1062 169.4302,181.2242 169.9382,181.8792 C170.2342,182.2622 170.3822,182.4822 170.5062,182.6652 C170.6712,182.9092 170.7612,183.0422 171.3602,183.6742 C171.6742,184.0072 171.9002,184.3782 172.1182,184.7382 C172.3262,185.0802 172.5222,185.4032 172.7582,185.6262 C172.8312,185.6842 173.1252,185.7962 173.3212,185.8712 C173.8052,186.0562 174.4082,186.2872 174.9422,186.7462 C175.1622,186.9352 175.4662,187.1242 175.7892,187.3262 C176.1292,187.5382 176.5162,187.7782 176.8962,188.0752 C177.2662,188.3642 177.5772,188.6952 177.8512,188.9862 C178.1152,189.2672 178.3642,189.5322 178.6162,189.7102 C178.8632,189.8852 179.1902,190.0472 179.5362,190.2182 C179.8912,190.3942 180.2942,190.5942 180.6922,190.8482 C181.1532,191.1442 181.5052,191.5082 181.8182,191.8302 C182.0622,192.0812 182.2922,192.3202 182.4932,192.4352 C182.9032,192.6702 183.2642,192.9562 183.5832,193.2072 C183.8892,193.4482 184.1782,193.6752 184.4482,193.8142 C184.8422,194.0162 185.2632,194.1882 185.6882,194.3632 C186.0032,194.4932 186.3202,194.6232 186.6312,194.7642 C186.9322,194.9002 187.3022,195.0062 187.6942,195.1192 C188.0962,195.2352 188.5012,195.3542 188.8932,195.5072 C189.3742,195.6972 189.7882,195.9602 190.1552,196.1932 C190.4642,196.3902 190.7572,196.5772 191.0002,196.6582 C191.2342,196.7372 191.5762,196.7672 191.9382,196.8002 C192.3712,196.8392 192.8652,196.8832 193.3702,197.0242 C193.7452,197.1272 194.1172,197.2622 194.4902,197.4002 C194.8922,197.5472 195.2712,197.6872 195.6272,197.7662 C195.8822,197.8232 196.2302,197.8232 196.5972,197.8232 C197.0352,197.8222 197.5062,197.8222 198.0102,197.9072 C198.4642,197.9822 198.8752,198.1072 199.2722,198.2272 C199.6502,198.3412 200.0052,198.4502 200.3162,198.4842 C200.6192,198.5202 200.9872,198.4972 201.3752,198.4722 C201.7722,198.4482 202.2212,198.4192 202.6892,198.4492 C203.4632,198.4952 204.2492,198.5122 205.0472,198.5192 C205.2782,198.5092 205.6452,198.4512 206.0022,198.3762 C206.4142,198.2902 206.8822,198.1922 207.3922,198.1702 C207.7882,198.1522 208.1902,198.1692 208.5922,198.1882 C209.0032,198.2072 209.3952,198.2252 209.7512,198.1932 C210.1562,198.1562 210.5652,198.1582 210.9782,198.1572 C211.3922,198.1602 211.7782,198.1612 212.1232,198.1112 C212.3022,198.0852 212.5932,197.9472 212.8742,197.8112 C213.3042,197.6062 213.7902,197.3732 214.3752,197.2612 C215.1392,197.1172 215.8962,196.9572 216.6782,196.7732 C217.2042,196.6492 217.7072,196.6412 218.1512,196.6342 C218.5012,196.6292 218.8322,196.6242 219.0622,196.5602 C219.2782,196.4992 219.5572,196.3362 219.8542,196.1652 C220.2452,195.9372 220.6872,195.6802 221.2172,195.5072 C221.7762,195.3262 222.3132,195.3012 222.7862,195.2802 C223.1202,195.2642 223.4362,195.2502 223.6202,195.1822 C224.0882,195.0092 224.5592,194.9182 224.9732,194.8372 C225.3432,194.7662 225.6932,194.6982 225.9592,194.5882 C226.0832,194.5382 226.3292,194.3092 226.5272,194.1252 C226.8852,193.7912 227.3322,193.3762 227.9252,193.1082 C228.2862,192.9442 228.6312,192.7452 228.9812,192.5452 C229.3232,192.3502 229.6682,192.1552 230.0282,191.9772 C230.3292,191.8292 230.6332,191.6952 230.9352,191.5642 C231.3372,191.3882 231.7182,191.2212 232.0482,191.0302 C232.3582,190.8502 232.6632,190.6082 232.9872,190.3522 C233.2692,190.1282 233.5512,189.9072 233.8482,189.7062 C234.2872,189.4082 234.7382,189.2262 235.1352,189.0662 C235.4402,188.9432 235.7272,188.8282 235.8832,188.7052 C236.0492,188.5752 236.2342,188.3202 236.4292,188.0492 C236.6772,187.7062 236.9582,187.3172 237.3462,186.9692 C237.7132,186.6402 238.1012,186.3962 238.4442,186.1802 C238.7372,185.9962 239.0142,185.8222 239.1812,185.6512 C239.5952,185.2282 240.0612,184.9642 240.4722,184.7312 C240.7062,184.5992 240.9972,184.4342 241.0902,184.3262 C241.2022,184.1972 241.3212,183.9012 241.4362,183.6162 C241.6082,183.1902 241.8022,182.7072 242.1472,182.2552 C242.4822,181.8162 242.7832,181.3592 243.0822,180.9072 L243.4252,180.3932 C243.5482,180.2112 243.6482,179.9132 243.7532,179.5962 C243.8892,179.1932 244.0422,178.7362 244.3112,178.2872 C244.6432,177.7322 245.1042,177.3512 245.4732,177.0452 C245.6402,176.9082 245.8922,176.7002 245.9452,176.6082 L246.2392,176.0582 C246.5052,175.5632 246.7682,175.0752 246.9962,174.5852 C247.3292,173.8752 247.6272,173.1652 247.9082,172.4832 C247.9792,172.3092 248.0012,171.9912 248.0242,171.6822 C248.0562,171.2292 248.0922,170.7172 248.2812,170.1902 C248.3992,169.8592 248.4722,169.4922 248.5502,169.1032 C248.6282,168.7162 248.7062,168.3392 248.8172,167.9812 C249.0242,167.3072 249.4172,166.8062 249.7342,166.4032 C249.8502,166.2552 250.0252,166.0322 250.0612,165.9462 C250.1162,165.7282 250.0912,165.3962 250.0652,165.0452 C250.0352,164.6252 249.9992,164.1502 250.1012,163.6582 C250.2442,162.9642 250.3362,162.6452 250.4082,162.3992 C250.4782,162.1552 250.5072,162.0532 250.5692,161.5232 C250.6642,160.7012 251.4102,160.1132 252.2322,160.2062 C253.0552,160.3012 253.6452,161.0462 253.5492,161.8692 C253.4632,162.6092 253.3942,162.8702 253.2892,163.2322 C253.2312,163.4332 253.1562,163.6952 253.0382,164.2632 C253.0222,164.3542 253.0422,164.6252 253.0572,164.8242 C253.0962,165.3492 253.1442,166.0012 252.9572,166.7222 C252.7902,167.3682 252.4042,167.8602 252.0932,168.2552 C251.9222,168.4742 251.7282,168.7212 251.6842,168.8632 C251.6022,169.1282 251.5492,169.4082 251.4922,169.6932 C251.4012,170.1482 251.2972,170.6642 251.1052,171.2002 C251.0552,171.3392 251.0362,171.6212 251.0162,171.8932 C250.9812,172.3882 250.9382,173.0032 250.6822,173.6232 C250.3852,174.3482 250.0672,175.1032 249.7142,175.8562 C249.4632,176.3932 249.1742,176.9332 248.8812,177.4782 L248.5962,178.0122 C248.2722,178.6252 247.7802,179.0322 247.3842,179.3582 C247.1922,179.5172 246.9532,179.7152 246.8852,179.8272 C246.7842,179.9972 246.6942,180.2652 246.5982,180.5492 C246.4412,181.0202 246.2622,181.5522 245.9112,182.0732 L245.5832,182.5642 C245.2472,183.0712 244.9082,183.5822 244.5332,184.0742 C244.4332,184.2042 244.3242,184.4752 244.2182,184.7382 C244.0322,185.2022 243.7982,185.7792 243.3632,186.2842 C242.9302,186.7872 242.3872,187.0942 241.9512,187.3412 C241.7012,187.4832 241.4422,187.6292 241.3252,187.7492 C240.9122,188.1722 240.4502,188.4622 240.0422,188.7192 C239.7772,188.8862 239.5272,189.0432 239.3482,189.2042 C239.2012,189.3352 239.0362,189.5642 238.8612,189.8062 C238.5662,190.2132 238.2332,190.6752 237.7322,191.0682 C237.2412,191.4512 236.7192,191.6622 236.2582,191.8472 C235.9752,191.9622 235.7062,192.0712 235.5312,192.1902 C235.2942,192.3492 235.0732,192.5272 234.8492,192.7052 C234.4752,193.0002 234.0512,193.3352 233.5572,193.6232 C233.0782,193.9022 232.5982,194.1112 232.1342,194.3132 C231.8752,194.4262 231.6142,194.5402 231.3552,194.6672 C231.0512,194.8182 230.7572,194.9862 230.4662,195.1522 C230.0552,195.3862 229.6292,195.6292 229.1632,195.8402 C229.0162,195.9072 228.7792,196.1272 228.5702,196.3232 C228.1952,196.6702 227.7282,197.1052 227.1012,197.3632 C226.5572,197.5862 226.0192,197.6912 225.5442,197.7832 C225.2122,197.8472 224.8992,197.9082 224.6602,197.9972 C224.0372,198.2262 223.4182,198.2542 222.9212,198.2772 C222.6242,198.2902 222.3182,198.3042 222.1462,198.3602 C221.9192,198.4342 221.6482,198.5912 221.3612,198.7582 C220.9372,199.0042 220.4552,199.2852 219.8742,199.4482 C219.2692,199.6182 218.6992,199.6262 218.1972,199.6342 C217.8772,199.6392 217.5762,199.6442 217.3662,199.6932 C216.5402,199.8882 215.7412,200.0562 214.9332,200.2092 C214.7342,200.2472 214.4612,200.3772 214.1722,200.5162 C213.7072,200.7392 213.1822,200.9912 212.5442,201.0822 C211.9842,201.1622 211.4422,201.1612 210.9642,201.1572 C210.6492,201.1542 210.3342,201.1522 210.0292,201.1802 C209.4662,201.2322 208.9292,201.2072 208.4532,201.1852 C208.1412,201.1702 207.8282,201.1552 207.5212,201.1672 C207.2562,201.1792 206.9462,201.2442 206.6172,201.3132 C206.1532,201.4102 205.6292,201.5192 205.0582,201.5192" id="Fill-616" fill="#231F20"/><path d="M164.3804,29.3834 C157.4984,24.9844 152.8314,32.5524 152.8304,32.5534 L91.6304,109.9344 L113.6354,109.9344 L165.9594,42.5314 C167.0694,41.1494 173.1374,34.9814 164.3804,29.3834" id="Fill-618" fill="#CB79AA"/><path d="M8.3868,139.4127 L10.0498,184.4697 C10.0498,184.4697 9.0518,213.7327 39.3128,215.3947 C69.5738,217.0587 107.1518,216.3927 121.4508,213.7327 C135.7498,211.0727 151.3798,203.7567 151.0468,179.8127 C150.7148,155.8707 148.1648,130.5977 148.1648,130.5977 C148.1648,130.5977 148.0538,109.9797 117.7928,109.9797 L39.3128,109.9797 C39.3128,109.9797 8.3868,107.4857 8.3868,139.4127" id="Fill-620" fill="#CB79AA"/><path d="M58.5855,174.1793 L28.9895,174.1793 C28.9895,174.1793 19.1825,173.8443 19.179499,179.5003 C19.1755,185.9023 30.9085,185.8883 30.9085,185.8883 C30.9085,185.8883 52.8795,186.7933 58.5855,186.4843 C66.2335,186.0683 69.7255,184.1563 70.4595,180.3603 C71.0405,177.3513 68.2295,174.1793 58.5855,174.1793" id="Fill-622" fill="#FECB72"/><path d="M91.6885,180.3698 C90.9225,185.7288 98.0065,186.1448 102.9945,186.1668 C107.9825,186.1888 131.0655,184.7628 134.7525,184.0278 C138.5085,183.2798 141.8185,182.1988 141.8185,178.6238 C141.8185,175.0498 137.9115,172.6798 129.4315,172.7218 C121.0245,172.7628 92.9355,171.6408 91.6885,180.3698" id="Fill-624" fill="#FECB72"/><path d="M32.4405,108.9821 C32.4405,108.9821 10.7145,111.4201 8.3865,127.8931 C8.3865,127.8931 6.9455,135.5861 7.3895,144.4541 C7.8325,153.3211 50.5135,157.9771 79.7195,157.0891 C108.9245,156.2031 150.1605,148.9461 150.1605,139.4131 C150.1605,129.8791 152.1555,112.0861 127.3255,108.9821 C102.4965,105.8781 45.5205,106.7651 32.4405,108.9821" id="Fill-626" fill="#FECB72"/><path d="M75.6709,145.4508 L75.6689,161.5798 C75.6689,161.5798 75.6689,165.4268 79.4949,165.4038 C82.4749,165.3868 85.9239,165.4268 85.9239,165.4268 C85.9239,165.4268 90.0509,165.4268 90.1139,161.5798 C90.1579,158.8728 90.0509,145.4508 90.0509,145.4508 C90.0509,145.4508 90.0509,141.1828 85.9899,140.8528 C83.3289,140.6368 75.6709,139.2438 75.6709,145.4508" id="Fill-628" fill="#000"/><path d="M136.1626,0.8785 L124.7636,0.8785 C119.6096,0.8785 115.2236,4.5725 114.3076,9.6145 C114.2976,9.6775 114.2886,9.7375 114.2796,9.8005 L114.2736,9.8345 C114.2366,10.0805 114.1986,10.3305 114.1616,10.5795 C112.8356,19.3205 111.1966,30.0315 111.1966,30.0315 L146.6296,30.0315 L146.7016,22.2665 L146.7996,11.6145 C146.8546,5.7015 142.0766,0.8785 136.1626,0.8785" id="Fill-630" fill="#b02d1c"/><path d="M146.6295,30.0319 C132.7545,29.0559 128.9635,26.0809 129.0975,23.6039 C129.2175,21.3859 131.3025,21.6949 132.2125,21.7159 C136.2265,21.8049 146.7015,22.2659 146.7015,22.2659" id="Fill-632" fill="#000"/><path d="M109.3233,23.9069 C109.3233,23.9069 105.1373,24.1289 105.16615,28.1749 C105.1943,31.9699 110.3213,32.5529 110.3213,32.5529 L149.2833,32.5529 C149.2833,32.5529 152.8233,31.8379 152.830329,28.8949 C152.8393,25.3469 150.7873,24.6699 148.1273,24.5589 C146.4713,24.4899 133.4753,23.7079 122.1813,23.5189 C115.3253,23.4049 109.3233,23.9069 109.3233,23.9069" id="Fill-634" fill="#8C72CB"/></g></g></g></g><g id="Head" transform="translate(204.000000, 198.000000) scale(1 1)"><g id="Head/Double Bun" stroke="none" stroke-width="1" fill="none" fill-rule="evenodd"><g id="Group-183" transform="translate(71.000000, 58.000000)"><g id="Group-93" transform="translate(0.000000, 0.738000)"><path d="M80.8934,66.7692 C80.3454,63.0942 74.3224,59.8552 71.6904,58.8062 C70.2904,52.7022 68.8684,47.5952 67.4804,45.0002 C64.7764,39.9432 56.5294,34.6282 43.3404,36.6692 C34.5834,38.0252 25.2574,46.1942 31.3144,60.4152 C31.3144,60.4152 33.0474,63.8622 32.2174,69.5462 C32.1264,70.1722 31.9964,71.0472 31.8404,72.0882 L31.8394,72.0962 C31.5764,73.8562 31.2354,76.1132 30.8624,78.5772 C30.8524,78.6392 30.8434,78.7002 30.8334,78.7632 L30.8284,78.7972 C30.7914,79.0422 30.7534,79.2922 30.7154,79.5412 C30.4864,82.1312 31.1924,90.6072 50.2694,90.7042 L63.2554,91.2292 L63.4534,91.2372 C63.4534,91.2372 67.8054,91.1892 70.4384,91.1892 C75.9134,91.1892 76.8534,85.9702 76.2384,82.1072 C76.0184,80.7262 75.2904,76.4322 74.2844,71.1892 C76.6804,71.0502 81.4244,70.3292 80.8934,66.7692" id="Fill-85" fill="#b02d1c"/><path d="M38.8339,32.9577 C49.7449,55.1767 90.0119,38.4277 76.6069,13.2267 C62.0509,-14.1363 25.5479,5.9007 38.8339,32.9577" id="Fill-87" fill="#150656"/><path d="M45.597,58.8063 C42.526,59.0033 40.241,60.6173 40.109,64.2383 C40.035,66.2843 41.033,68.5083 41.914,70.0573 C42.414,70.9333 41.78,72.0173 40.771,71.9985463 C38.386,71.9553 34.756,71.8783 32.275,71.7763 C32.275,71.7763 26.038,66.2093 26.925,48.6963 C26.925,48.6963 26.814,34.9953 48.651,34.9953 C70.488,34.9953 69.997,48.6963 69.997,48.6963 L52.531,48.6963 C52.531,48.6963 52.198,53.5183 50.313,56.5023 C48.99,58.5983 45.597,58.8063 45.597,58.8063" id="Fill-89" fill="#150656"/><path d="M3.4686,46.2458 C14.3796,68.4648 54.6466,51.7158 41.2416,26.5158 C26.6866,-0.8472 -9.8174,19.1898 3.4686,46.2458" id="Fill-91" fill="#150656"/></g></g></g></g><g id="Expression" transform="translate(315.000000, 299.000000) scale(1 1)"><defs><path d="M2.973,1.055 C-0.453,2.37 -2.944,13.004 10.567,16.001 L10.567,16.001 C16.271,17.266 19.387,14.583 19.536,11.9 L19.536,11.9 C19.665,9.554 17.527,7.208 12.869,7.501 L12.869,7.501 C11.822,7.568 10.572,7.073 9.905,5.972 L9.905,5.972 C8.651,3.902 7.906,0.626 4.999,0.626 L4.999,0.626 C4.417,0.626 3.749,0.757 2.973,1.055" id="expressionlaugh-path-1"/></defs><g id="Expression/Laugh" stroke="none" stroke-width="1" fill="none" fill-rule="evenodd"><g id="Group-77" transform="translate(13.400000, 13.300000)"><g id="Group-3" transform="translate(0.000000, 0.116900)"><g id="Group" transform="translate(0.000000, 15.000000)"><path d="M2.973,1.0549 C-0.453,2.3699 -2.944,13.0039 10.567,15.9999 C21.261,18.3719 22.855,6.8709 12.869,7.5009 C11.822,7.5679 10.571,7.0739 9.904,5.9719 C8.4,3.4879 7.63,-0.7321 2.973,1.0549" id="Fill-37" fill="#000"/><g id="Group-41"><mask id="expressionlaugh-mask-2" fill="#ffffff"><use xlink:href="#expressionlaugh-path-1" fill="#ffffff"/></mask><g id="Clip-40"/><path d="M-3.2101,3.4943 C-3.2101,3.4943 1.3509,2.7393 5.4389,7.3023 C9.5279,11.8643 9.1349,18.8593 9.1349,18.8593 C9.1349,18.8593 -6.6571,11.2823 -3.2101,3.4943" id="Fill-39" fill="#FF71DB" mask="url(#expressionlaugh-mask-2)"/></g></g><g id="Group-46" transform="translate(3.000000, 0.000000)"><path d="M3.1312,6.052 C3.7892,6.555 4.7312,6.427 5.2332,5.769 C7.2772,3.086 9.8032,4.136 10.1002,4.271 C10.8412,4.624 11.7342,4.313 12.0932,3.571 C12.4552,2.825 12.1432,1.928 11.3982,1.566 C10.3642,1.065 8.4892,0.66 6.5312,1.268 C5.2702,1.659 3.9732,2.472 2.8462,3.95 C2.3442,4.61 2.4722,5.55 3.1312,6.052" id="Fill-42" fill="#000"/><path d="M4.6669,6.3596 C4.6669,7.0556 3.7149,7.6196 2.5399,7.6196 C1.3649,7.6196 0.4129,7.0556 0.4129,6.3596 C0.4129,5.6646 1.3649,5.0996 2.5399,5.0996 C3.7149,5.0996 4.6669,5.6646 4.6669,6.3596" id="Fill-44" fill="#F8FBF8"/></g></g></g></g></g><g id="Facial Hair" transform="translate(311.300000, 303.950000) scale(1 1)" fill="#000"><g id="Facial Hair/None" stroke="none" stroke-width="1" fill="none" fill-rule="evenodd" fill-opacity="0"/></g><g id="Accesories" transform="translate(311.300000, 303.950000) scale(1 1)" fill="#000"><g id="Accesories/None" stroke="none" stroke-width="1" fill="none" fill-rule="evenodd" fill-opacity="0"/></g></g></g></g></svg>