<svg viewBox="63.75 76.5 918.0000000000002 854.2499999999999" xmlns="http://www.w3.org/2000/svg" xmlns:xlink="http://www.w3.org/1999/xlink" overflow="visible" width="918.0000000000002px" height="854.2499999999999px"><defs><path d="M0.611,4.152 C0.516,6.977 4.407,8.141 8.572,9.455 L8.572,9.455 C16.217,11.868 20.367,12.194 21.052,9.038 L21.052,9.038 C21.453,7.193 20.288,5.826 18.679,5.317 L18.679,5.317 C17.91,5.073 16.958,4.844 15.818,4.517 L15.818,4.517 C15.818,4.517 12.448,3.701 6.92,1.517 L6.92,1.517 C6.885,1.502 6.85,1.488 6.813,1.475 L6.813,1.475 C5.923,1.139 5.098,0.988999462 4.36,0.988999462 L4.36,0.988999462 C2.113,0.988 0.672,2.381 0.611,4.152 L0.611,4.152 Z" id="masterspot-illustrationwaiting-for-flight-path-3"/><path d="M51.435,0.087 C51.435,0.087 44.897,0.087 38.836,1.908 L38.836,1.908 C28.006,5.162 15.113,16.205 9.537,34.505 L9.537,34.505 C1.796,59.903 0.573044623,161.261 0.573044623,161.261 L0.573044623,161.261 C0.523,163.974 2.523,164.806 4.382,164.806 L4.382,164.806 L108.19,164.806 C109.706,164.806 110.931,163.568 110.914175,162.053 L110.914175,162.053 L104.975,13.276 L99.987,0.087 L51.435,0.087 Z" id="masterspot-illustrationwaiting-for-flight-path-7"/><path d="M51.435,0.087 C51.435,0.087 44.897,0.087 38.836,1.908 L38.836,1.908 C28.006,5.162 15.113,16.205 9.537,34.505 L9.537,34.505 C1.796,59.903 0.573044623,161.261 0.573044623,161.261 L0.573044623,161.261 C0.523,163.974 2.523,164.806 4.382,164.806 L4.382,164.806 L108.19,164.806 C109.706,164.806 110.931,163.568 110.914175,162.053 L110.914175,162.053 L104.975,13.276 L99.987,0.087 L51.435,0.087 Z" id="masterspot-illustrationwaiting-for-flight-path-9"/><path d="M51.435,0.087 C51.435,0.087 44.897,0.087 38.836,1.908 L38.836,1.908 C28.006,5.162 15.113,16.205 9.537,34.505 L9.537,34.505 C1.796,59.903 0.573044623,161.261 0.573044623,161.261 L0.573044623,161.261 C0.523,163.974 2.523,164.806 4.382,164.806 L4.382,164.806 L108.19,164.806 C109.706,164.806 110.931,163.568 110.914175,162.053 L110.914175,162.053 L104.975,13.276 L99.987,0.087" id="masterspot-illustrationwaiting-for-flight-path-11"/><path d="M51.435,0.087 C51.435,0.087 44.897,0.087 38.836,1.908 L38.836,1.908 C28.006,5.162 15.113,16.205 9.537,34.505 L9.537,34.505 C1.796,59.903 0.573044623,161.261 0.573044623,161.261 L0.573044623,161.261 C0.523,163.974 2.523,164.806 4.382,164.806 L4.382,164.806 L108.19,164.806 C109.706,164.806 110.931,163.568 110.914175,162.053 L110.914175,162.053 L104.975,13.276 L99.987,0.087 L51.435,0.087 Z" id="masterspot-illustrationwaiting-for-flight-path-13"/><path d="M51.435,0.087 C51.435,0.087 44.897,0.087 38.836,1.908 L38.836,1.908 C28.006,5.162 15.113,16.205 9.537,34.505 L9.537,34.505 C1.796,59.903 0.573044623,161.261 0.573044623,161.261 L0.573044623,161.261 C0.523,163.974 2.523,164.806 4.382,164.806 L4.382,164.806 L108.19,164.806 C109.706,164.806 110.931,163.568 110.914175,162.053 L110.914175,162.053 L104.975,13.276 L99.987,0.087 L51.435,0.087 Z" id="masterspot-illustrationwaiting-for-flight-path-15"/><path d="M51.435,0.087 C51.435,0.087 44.897,0.087 38.836,1.908 L38.836,1.908 C28.006,5.162 15.113,16.205 9.537,34.505 L9.537,34.505 C1.796,59.903 0.573044623,161.261 0.573044623,161.261 L0.573044623,161.261 C0.523,163.974 2.523,164.806 4.382,164.806 L4.382,164.806 L108.19,164.806 C109.706,164.806 110.931,163.568 110.914175,162.053 L110.914175,162.053 L104.975,13.276 L99.987,0.087 L51.435,0.087 Z" id="masterspot-illustrationwaiting-for-flight-path-17"/><path d="M0.611,4.152 C0.516,6.977 4.407,8.141 8.572,9.455 L8.572,9.455 C16.217,11.868 20.367,12.194 21.052,9.038 L21.052,9.038 C21.453,7.193 20.288,5.826 18.679,5.317 L18.679,5.317 C17.91,5.073 16.958,4.844 15.818,4.517 L15.818,4.517 C15.818,4.517 12.448,3.701 6.92,1.517 L6.92,1.517 C6.885,1.502 6.85,1.488 6.813,1.475 L6.813,1.475 C5.923,1.139 5.098,0.988999462 4.36,0.988999462 L4.36,0.988999462 C2.113,0.988 0.672,2.381 0.611,4.152 L0.611,4.152 Z" id="masterspot-illustrationwaiting-for-flight-path-19"/><polygon id="masterspot-illustrationwaiting-for-flight-path-1" points="0.644 0.0174503817 98.896 0.0174503817 98.896 28.4488725 0.644 28.4488725"/><polygon id="masterspot-illustrationwaiting-for-flight-path-5" points="0.644 0.018 98.896 0.018 98.896 31.1879 0.644 31.1879"/></defs><g id="Master/Spot Illustration/Waiting for Flight" stroke="none" stroke-width="1" fill="none" fill-rule="evenodd"><g id="Window" opacity=".75" transform="translate(88.000000, 82.000000)"><path d="M513.539869,269.677546 C571.403195,263.303185 596.875001,283.528903 596.875001,283.528903 C596.875001,283.528903 625.286134,248.103028 675.740252,244.670861 C726.193583,241.238694 737.460609,255.764845 737.460609,255.764845 C737.460609,255.764845 750.038192,219.531262 793.792594,213.780574 C816.675499,210.773103 832.465049,214.211561 844,221.613842 L844,5.14431773 C844,2.30279198 841.698667,0 838.860696,0 L704.552094,0 C699.646146,31.898545 680.421489,73.0955564 637.532149,70.6071569 C586.832891,67.6649626 578.751118,21.697208 578.751118,21.697208 C578.751118,21.697208 559.646674,72.8132127 516.296126,70.6071569 C472.944791,68.4003146 464.127597,22.8006292 464.127597,22.8006292 C464.127597,22.8006292 447.96248,63.9874164 392.11999,63.9874164 C346.185253,63.9874164 330.004422,26.8761306 324.307267,0 L4.87137786,0 C2.18112015,0 0,2.18324813 0,4.87691703 L0,342 L413.061414,342 C413.061414,342 438.531649,277.522611 513.539869,269.677546" id="Fill-5" fill="#FFCFE0"/><path d="M0,342 L0,569.591597 C0,572.579088 2.4239056,575 5.41430582,575 L836.439929,575 C840.615175,575 844,571.619356 844,567.449267 L844,342 L413.061799,342 L0,342 Z" id="Fill-7" fill="#FFE2E9"/><path d="M392.76906,64.2454803 C448.575595,64.2454803 464.729519,22.8920768 464.729519,22.8920768 C464.729519,22.8920768 473.541036,68.6762303 516.864458,70.8920001 C560.18788,73.1069803 579.279238,21.7849815 579.279238,21.7849815 C579.279238,21.7849815 587.356592,67.9379036 638.022422,70.8920001 C680.884931,73.3904662 700.09721,32.0267972 705,0 L325,0 C330.693487,26.9840651 346.8639,64.2454803 392.76906,64.2454803" id="Fill-9" fill="#FFE2E9"/><path d="M793.785439,214.083676 C750.025587,219.82077 737.445426,255.968698 737.445426,255.968698 C737.445426,255.968698 726.17758,241.476887 675.716272,244.90094 C625.254964,248.325778 596.839782,283.667909 596.839782,283.667909 C596.839782,283.667909 571.364346,263.489219 513.492774,269.848511 C438.474651,277.675031 413,342 413,342 L844,342 L844,221.898426 C832.463405,214.513644 816.67239,211.083314 793.785439,214.083676" id="Fill-11" fill="#F9A9B4"/><path d="M83.4967524,108.975227 C83.4967524,108.975227 79.646405,90.6029396 59.7539953,92.8687357 C42.5252686,94.8305156 41.464845,113.257717 41.464845,113.257717 C41.464845,113.257717 36.0088712,145.941846 62.4807987,145.944234 C85.5781492,145.946621 85.4219261,125.555252 85.4219261,125.555252 C85.4219261,125.555252 87.9885614,147.239088 106.276923,145.944234 C124.566073,144.650175 123.603486,125.555252 123.603486,125.555252 C123.603486,125.555252 128.09135,143.474699 140.608135,143.355321 C157.613573,143.193762 161.508105,126.542111 157.613573,104.518445 C154.501735,86.9237069 137.086014,88.0132309 137.086014,88.0132309 C137.086014,88.0132309 121.357187,88.7294995 121.357187,103.582521 C121.357187,103.582521 116.243642,89.091613 103.068826,89.9559104 C83.3365843,91.2499688 83.4967524,108.975227 83.4967524,108.975227" id="Fill-13" fill="#FFE2E9"/><path d="M653.438197,99.0446105 L646.81065,73.3676656 C646.81065,73.3676656 643.89661,63.7072122 649.118386,60.9753207 C655.177475,57.8055706 663.833654,63.3764556 663.833654,63.3764556 L702,87.9067779 C702,87.9067779 687.667909,107.045769 653.438197,99.0446105" id="Fill-15" fill="#FCABA4"/><path d="M574.7971,103.385766 L592.830889,155.364035 L659.980253,137.974497 L661.322643,173.901126 C661.322643,173.901126 661.226702,188.233395 669.524824,189.762421 C677.822161,191.291447 685.687762,185.367254 692.402855,174.092254 C699.117949,162.817254 714.27429,125.171254 714.27429,125.171254 L759.743315,115.043023 C759.743315,115.043023 772.405973,111.984971 770.870915,103.385766 C769.335857,94.7857782 739.59882,85.6139719 739.59882,85.6139719 C739.59882,85.6139719 727.703691,81.9825351 712.739232,85.6139719 C697.774773,89.2438421 605.68543,110.073689 605.68543,110.073689 L587.075994,94.9776897 C587.075994,94.9776897 582.278936,90.9639964 577.098901,93.0656239 C571.919652,95.1680347 574.7971,103.385766 574.7971,103.385766" id="Fill-17" fill="#FCC8C0"/><path d="M618.08877,127.37173 C619.291712,134.579567 631.038844,132.893903 629.925721,125.592868 C628.849489,118.536578 616.856155,119.988033 618.08877,127.37173" id="Fill-19" fill="#FFF"/><path d="M640.08877,120.37173 C641.291712,127.579567 653.038844,125.893903 651.925721,118.592868 C650.849489,111.536578 638.856155,112.988033 640.08877,120.37173" id="Fill-21" fill="#FFF"/><path d="M664.088776,115.372316 C665.291717,122.579472 677.038843,120.893777 675.925721,113.592612 C674.848687,106.536196 662.856161,107.988487 664.088776,115.372316" id="Fill-23" fill="#FFF"/><path d="M691.08877,109.37173 C692.291712,116.579567 704.038844,114.893903 702.925721,107.592868 C701.849489,100.536578 689.856155,101.988033 691.08877,109.37173" id="Fill-25" fill="#FFF"/><path d="M718.08877,103.372316 C719.291712,110.579472 731.038844,108.893777 729.925721,101.592612 C728.849489,94.536196 716.856155,95.9884869 718.08877,103.372316" id="Fill-27" fill="#FFF"/><path d="M242,155.26826 L242,349 L258,349 L258,155.26826 C258,155.26826 251.675918,147.914675 242,155.26826" id="Fill-29" fill="#F8FBF8"/><path d="M307.796828,70 L188.601194,72.5826839 C188.601194,72.5826839 182,71.8454508 182,78.4884422 C182,85.132223 183.833839,151.196678 183.833839,151.196678 C183.833839,151.196678 183.466758,155.994219 190.068736,155.994219 L312.197885,155.994219 C312.197885,155.994219 318.799079,156.363625 319.166161,151.196678 C319.533242,146.028942 321,81.0719155 321,81.0719155 C321,81.0719155 321,70 307.796828,70" id="Fill-31" fill="#FCC8C0"/><path d="M196.026499,98.2424448 C196.763083,108.069303 214.647007,109.34808 212.876831,97.495626 C211.272189,86.7510197 195.262195,88.0529606 196.026499,98.2424448" id="Fill-33" fill="#FCABA4"/><path d="M290.026499,129.243152 C290.763083,139.069205 308.647007,140.347982 306.876831,128.495535 C305.272189,117.750936 289.262195,119.052876 290.026499,129.243152" id="Fill-35" fill="#FCABA4"/><path d="M228.023711,100.531124 C228.762416,111.491704 246.37969,112.471608 245.993751,99.5789153 C245.617521,86.9924934 227.251023,89.0655224 228.023711,100.531124" id="Fill-37" fill="#FCABA4"/><path d="M197.023711,128.531124 C197.762416,139.491704 215.37969,140.471608 214.993751,127.578915 C214.617521,114.992493 196.251023,117.065522 197.023711,128.531124" id="Fill-39" fill="#FCABA4"/><path d="M260.023711,128.531124 C260.762416,139.491704 278.37969,140.471608 277.993751,127.578915 C277.617521,114.992493 259.251023,117.065522 260.023711,128.531124" id="Fill-41" fill="#FCABA4"/><path d="M260.006969,100.146443 C260.39437,110.15741 277.001547,111.398884 277,99.182084 C276.999227,89.2368328 259.601784,89.677841 260.006969,100.146443" id="Fill-43" fill="#FCABA4"/><path d="M229.006969,128.146548 C229.39437,138.15751 246.00232,139.398983 246,127.181398 C245.999227,117.236944 228.601784,117.677952 229.006969,128.146548" id="Fill-45" fill="#FCABA4"/><path d="M290.006969,100.146443 C290.39437,110.15741 307.00232,111.398884 307,99.182084 C306.999227,89.2368328 289.601784,89.677841 290.006969,100.146443" id="Fill-47" fill="#FCABA4"/><path d="M484,217.222728 L484,349 L495,349 L495,217.222728 C495,217.222728 490.651704,212.22159 484,217.222728" id="Fill-49" fill="#F8FBF8"/><path d="M528.976656,160 L447.511672,161.74207 C447.511672,161.74207 443,161.244448 443,165.724615 C443,170.204782 444.253199,214.760379 444.253199,214.760379 C444.253199,214.760379 444.002244,217.996099 448.514703,217.996099 L531.984175,217.996099 C531.984175,217.996099 536.496634,218.245301 536.746801,214.760379 C536.997756,211.275457 538,167.467466 538,167.467466 C538,167.467466 538,160 528.976656,160" id="Fill-51" fill="#FCC8C0"/><path d="M453.018673,178.666851 C453.538821,185.422289 466.16185,186.302277 464.913166,178.152719 C463.780162,170.7663 452.479655,171.661599 453.018673,178.666851" id="Fill-53" fill="#FCABA4"/><path d="M517.018674,199.666741 C517.538853,206.422186 530.162629,207.302175 528.913051,199.153414 C527.7808,191.766182 516.479624,192.661482 517.018674,199.666741" id="Fill-55" fill="#FCABA4"/><path d="M474.015818,179.354647 C474.508158,186.66131 486.253087,187.31396 485.995836,178.719528 C485.744916,170.328302 473.500522,171.710105 474.015818,179.354647" id="Fill-57" fill="#FCABA4"/><path d="M454.015818,199.353942 C454.508158,206.661411 466.253087,207.314063 465.995836,198.719618 C465.744916,190.32838 453.500522,191.710185 454.015818,199.353942" id="Fill-59" fill="#FCABA4"/><path d="M496.015818,199.353942 C496.508158,206.661411 508.253087,207.314063 507.995836,198.719618 C507.744916,190.32838 495.500522,191.710185 496.015818,199.353942" id="Fill-61" fill="#FCABA4"/><path d="M496.004918,179.601118 C496.278061,186.482613 508.001602,187.337308 508,178.937332 C507.999199,172.09977 495.718958,172.404105 496.004918,179.601118" id="Fill-63" fill="#FCABA4"/><path d="M475.004917,198.601012 C475.278043,205.482512 487.000801,206.337208 487,197.938024 C486.998398,191.099658 474.718977,191.403994 475.004917,198.601012" id="Fill-65" fill="#FCABA4"/><path d="M517.004918,179.601118 C517.278061,186.482613 529.001602,187.337308 529,178.937332 C528.999199,172.09977 516.718958,172.404105 517.004918,179.601118" id="Fill-67" fill="#FCABA4"/><path d="M278,302.506901 C275.262128,301.078853 272.156903,299.260336 268.819337,296.938775 C263.269808,293.078166 236.073191,273.853843 209.66387,255.16799 L127.734142,252.674024 L128.81893,224.919204 L169.382297,226.657422 C160.652974,220.477614 155.049285,216.509153 155.049285,216.509153 C155.049285,216.509153 124.21133,193.687158 88.243004,190.557892 C60.0762013,188.108011 0,185 0,185 L0.0345373793,419.102969 L273.590205,421.907893 C273.590205,421.907893 274.37436,421.978745 275.743296,422 C272.131,383.608823 275.609071,330.634872 278,302.506901" id="Fill-69" fill="#FCC8C0"/><path d="M327,369.411932 C327.016397,315.443808 289.747645,306.573235 289.747645,306.573235 C289.747645,306.573235 285.360375,305.45384 278.797045,302 C276.417906,330.245753 272.956985,383.441525 276.550688,421.99346 C286.406228,422.153939 326.984373,419.759413 327,369.411932" id="Fill-71" fill="#FCABA4"/><path d="M74.0441971,236.195643 C72.7592153,250.812895 99.9204504,251.177858 99.9204504,251.177858 L145,252 L128.201826,224.447291 L95.1486699,223.040584 C95.1486699,223.040584 75.329179,221.579171 74.0441971,236.195643" id="Fill-73" fill="#F9A9B4"/><path d="M145.829943,252.526546 L210,255 C194.896306,244.422236 180.050566,234.019363 169.641167,226.723923 L129,225 L145.829943,252.526546 Z" id="Fill-75" fill="#FFE2E9"/><path d="M23,419 L38.7265957,454.409091 C38.7265957,454.409091 41.3169609,460 48.7176653,460 L124.210232,460 C124.210232,460 130.131745,460 127.170988,452.172408 C124.210232,444.345614 111.258405,419.899137 111.258405,419.899137 L23,419 Z" id="Fill-77" fill="#FCABA4"/><polygon id="Fill-79" fill="#FF9786" points="70 460 70 509 90.2814214 509 91 460"/><path d="M52.1407682,528.788106 C54.6394129,560.287169 114.673694,560.656347 112.964178,524.18321 C111.216935,486.905594 48.6502111,484.789703 52.1407682,528.788106" id="Fill-85" fill="#FEB1CD"/><path d="M72,524.933626 C72,536.529136 92,535.211592 92,523.620882 C92,513.524509 72,512.963733 72,524.933626" id="Fill-87" fill="#FF9786"/><path d="M713.799684,324.780629 L713.426403,300.549422 C713.426403,300.549422 713.799684,290.296913 702.05544,290.111074 C690.31198,289.925235 629.169137,290.028741 629.169137,290.028741 C629.169137,290.028741 615.188342,289.179527 615.001702,298.312297 C614.815845,307.446636 629.914916,307.632475 629.914916,307.632475 L697.209057,307.632475 C697.209057,307.632475 701.869583,307.07339 701.869583,314.155658 L701.869583,346.401465 C701.869583,346.401465 702.428721,351.062338 695.345003,351.620639 C689.231347,352.103663 642.579031,354.668555 629.914916,355.361726 L629.914916,386.981013 C629.914916,390.304943 632.609442,393 635.934468,393 L711.767026,393 L779,325.466743 L713.799684,324.780629 Z" id="Fill-89" fill="#FCC8C0"/><path d="M821,387.02854 L821,332.337091 C821,329.063524 818.350917,326.400639 815.059703,326.365631 L780.055358,326 L713,393 L814.99635,393 C818.31181,393 821,390.326224 821,387.02854" id="Fill-91" fill="#FEB1CD"/><path d="M701.989601,346.990873 L701.989601,314.56921 C701.989601,307.448317 697.326812,308.010452 697.326812,308.010452 L630,308.010452 L630,356 C642.670264,355.303048 689.345228,352.72338 695.461853,352.23851 C702.54901,351.676376 701.989601,346.990873 701.989601,346.990873" id="Fill-93" fill="#F8FBF8"/><path d="M666.015322,393.479731 C665.145962,418.319855 701.559475,417.915352 701.997244,393.814574 C702.36012,373.815028 666.775047,371.786972 666.015322,393.479731" id="Fill-95" fill="#FCABA4"/><path d="M675.00194,395.846683 C675.222817,407.265521 691.951439,406.155874 692,395.846683 C692.046781,385.876056 674.789803,384.904102 675.00194,395.846683" id="Fill-97" fill="#FFE2E9"/><path d="M774.015322,393.479731 C773.145962,418.319855 809.559475,417.915352 809.997244,393.814574 C810.36012,373.815028 774.775047,371.786972 774.015322,393.479731" id="Fill-99" fill="#FCABA4"/><path d="M783.00194,395.846683 C783.222817,407.265521 799.951439,406.155874 800,395.846683 C800.046781,385.876056 782.789803,384.904102 783.00194,395.846683" id="Fill-101" fill="#FFE2E9"/><path d="M487.5285,456.705118 C487.6955,457.032494 487.8285,457.471162 487.9335,458 C487.8075,457.260764 487.5035,456.597888 487.0665,456 C487.2425,456.225833 487.4035,456.458164 487.5285,456.705118" id="Fill-347" fill="#B2C7B2"/><path d="M488.501,458.497 C488.502,458.506 488.502,458.515 488.503,458.523 C488.501,458.509 488.499,458.491 488.497,458.477 C488.498,458.484 488.5,458.49 488.501,458.497" id="Fill-349" fill="#006838"/><path d="M0,325.779644 L23.0199165,325.92736 C23.0199165,325.92736 34.9948059,327.397445 34.9948059,317.110779 L34.9948059,229.671761 C34.9948059,229.671761 35.6304965,220.027029 22.8367382,217.823866 C17.0580856,216.827571 0.0186282957,217.013787 0.0186282957,217.013787 L0,325.779644 Z" id="Fill-81" fill="#FCABA4"/><path d="M0,243.758851 C1.57396353,243.262055 3.34535531,242.989619 5.31573603,243.000303 C27.0820051,243.110956 25.6048048,270.095139 4.53460688,270 C2.87402463,269.992116 1.36248901,269.775388 0,269.384667 L0,243.758851 Z" id="Fill-83" fill="#FFE2E9"/></g><g id="Bag" transform="translate(66.000000, 522.000000)"><path d="M1.28369681,342.055642 C1.55369681,352.411642 10.0966968,360.627642 20.4556968,360.493306 L170.310697,358.519642 C170.310697,358.519642 180.064697,359.406642 180.064697,349.651642 L180.064697,120.730642 L52.9236968,120.730642 C52.9236968,120.730642 5.92469681,118.202642 1.82269681,178.060642 C-1.29330319,223.541642 0.325696807,305.371642 1.28369681,342.055642" id="Fill-175" fill="#A2D249"/><path d="M58.5767968,228.939442 C56.5947968,229.168442 25.9877968,230.602442 25.9877968,269.176442 L25.9877968,310.744442 C25.9877968,310.744442 25.3227968,326.706442 45.9397968,329.034442 C66.5577968,331.362442 101.474797,333.357442 101.474797,333.357442 C101.474797,333.357442 127.745797,335.241442 130.405797,311.409442 C132.638797,291.405442 132.733797,260.198442 129.075797,250.221442 C125.972797,241.760442 112.584797,228.276442 78.7667968,227.825442 C72.7117968,227.744442 66.0007968,228.081442 58.5767968,228.939442" id="Fill-177" fill="#67AD15"/><path d="M102.232497,266.683542 L99.8114968,291.346542 C99.8114968,291.346542 98.4784968,301.319542 106.240497,301.322544 C115.662497,301.327542 114.665497,293.008542 114.665497,293.008542 L111.123497,266.683542 L102.232497,266.683542 Z" id="Fill-179" fill="#EFD638"/><path d="M102.232497,173.495142 L99.8114968,198.157142 C99.8114968,198.157142 98.4784968,208.130142 106.240497,208.134143 C115.662497,208.138142 114.665497,199.820142 114.665497,199.820142 L111.123497,173.495142 L102.232497,173.495142 Z" id="Fill-181" fill="#EFD638"/><path d="M34.4673968,153.286142 C30.6433968,176.896142 61.4733968,177.063142 78.9793968,177.894142 C96.4863968,178.725142 114.942397,175.899142 114.942397,175.899142 C114.942397,175.899142 139.883397,173.571142 138.719397,153.785142 C138.319397,146.992142 129.637397,139.855142 113.944397,137.212142 C83.9273968,132.156142 36.9783968,137.781142 34.4673968,153.286142" id="Fill-183" fill="#67AD15"/><polygon id="Fill-185" fill="#000" points="180.065097 120.730442 180.065097 18.4414419 161.664097 18.4414419 161.664097 120.715442"/><polygon id="Fill-187" fill="#000" points="113.445897 120.730442 113.445897 18.4414419 95.0448968 18.4414419 95.0448968 120.715442"/><path d="M21.9971968,383.792942 C23.6031968,407.789942 63.6601968,404.244942 63.6752024,381.067942 C63.6931968,353.834942 19.9381968,353.036942 21.9971968,383.792942" id="Fill-189" fill="#EFD638"/><path d="M114.766197,382.346642 C116.372197,406.344642 156.429197,402.798642 156.445202,379.622642 C156.462197,352.388642 112.707197,351.591642 114.766197,382.346642" id="Fill-191" fill="#EFD638"/><path d="M36.7429158,380.438442 C36.7079968,388.781442 48.0229968,389.398442 48.8259968,380.854442 C49.6009968,372.596442 36.7789968,371.963442 36.7429158,380.438442" id="Fill-193" fill="#000"/><path d="M129.512016,378.993142 C129.477097,387.336142 140.792097,387.953142 141.595097,379.408142 C142.370097,371.151142 129.548097,370.517142 129.512016,378.993142" id="Fill-195" fill="#000"/><path d="M25.9915968,269.308542 C29.5095968,269.204542 29.4965968,268.785542 33.0145968,268.682542 C36.5325968,268.579542 36.5105968,267.836542 40.0285968,267.733542 C43.5465968,267.630542 43.5905968,269.132542 47.1075968,269.030542 C50.6255968,268.926542 50.6325968,269.182542 54.1505968,269.079542 C57.6685968,268.976542 57.6325968,267.758542 61.1505968,267.655542 C64.6695968,267.552542 64.7145968,269.089542 68.2325968,268.986542 C71.7495968,268.883542 71.7185968,267.832542 75.2345968,267.729542 C78.7525968,267.626542 78.7565968,267.778542 82.2745968,267.674542 C85.7925968,267.572542 85.8105968,268.185542 89.3275968,268.082542 C92.8455968,267.979542 92.8255968,267.288542 96.3435968,267.185542 C99.8625968,267.082542 99.8455968,266.515542 103.364597,266.412542 C106.880597,266.309542 106.885597,266.448542 110.401597,266.344542 C113.921597,266.242542 113.945597,267.047542 117.465597,266.944542 C120.987597,266.841542 120.986597,266.823542 124.509597,266.719542 C128.031597,266.617542 128.040597,266.941542 131.563597,266.837542" id="Stroke-197" stroke="#000" stroke-width="3" stroke-linecap="round"/><path d="M174.079297,0.0399419288 C172.528297,0.0859419288 101.807297,2.25694193 101.807297,2.25694193 C101.807297,2.25694193 81.0782968,1.92494193 81.6332968,15.3369419 C82.1272968,27.3009419 102.583297,26.1999419 118.766297,25.9789419 C134.950297,25.7569419 175.187297,24.4889419 175.187297,24.4889419 C175.187297,24.4889419 199.143297,24.0939419 199.131301,12.0119419 C199.121297,2.24694193 188.033297,-0.367058071 174.079297,0.0399419288" id="Fill-199" fill="#EFD638"/></g><g id="Chair" transform="translate(796.374505, 702.962350) scale(-1, 1) translate(-796.374505, -702.962350) translate(612.374505, 482.462350) scale(1 1)"><g id="Chair/Stool" stroke="none" stroke-width="1" fill="none" fill-rule="evenodd"><g id="Group-23" transform="translate(111.000000, 270.000000)"><polygon id="Fill-28" fill="#EFD638" points="30.8476954 133.439 121.597695 133.906 120.327695 113 33.3876954 113"/><polygon id="Fill-30" fill="#EFD638" points="42.4423954 50 75.3493954 50.373 106.710395 50.373 112.256395 71.373 40.7863954 71.373"/><path d="M27.7558954,3.15405628 L6.22289537,166.641082 C6.22289537,166.641082 5.31289537,170.068181 10.3638954,170.068181 L27.7558954,170.068181 C27.7558954,170.068181 29.9918954,170.538568 30.5718954,166.909874 C31.1518954,163.281181 50.3928954,3.15405628 50.3928954,3.15405628 C50.3928954,3.15405628 37.3628954,-3.74430059 27.7558954,3.15405628" id="Fill-32" fill="#70A0E6"/><path d="M123.575195,3.15405628 L145.108195,166.641082 C145.108195,166.641082 146.018195,170.068181 140.967195,170.068181 L123.575195,170.068181 C123.575195,170.068181 121.339195,170.538568 120.759195,166.909874 C120.179195,163.281181 100.938195,3.15405628 100.938195,3.15405628 C100.938195,3.15405628 113.968195,-3.74430059 123.575195,3.15405628" id="Fill-34" fill="#70A0E6"/><path d="M142.771495,23.82275 L142.771495,4.22375 C142.771495,-0.04625 137.774495,0.44375 137.774495,0.44375 C132.860495,0.58375 109.561495,0.23375 102.024495,0.09375 C95.2794954,-0.03125 47.5034954,-0.03125 40.7584954,0.09375 C33.2214954,0.23375 9.92149537,0.58375 5.00849537,0.44375 C5.00849537,0.44375 0.0114953718,-0.04625 0.0114953718,4.22375 L0.0114953718,23.82275 C0.0114953718,23.82275 -0.402504628,26.76275 3.73849537,26.76275 L70.6364954,26.76275 L72.1464954,26.76275 L139.044495,26.76275 C143.186495,26.76275 142.771495,23.82275 142.771495,23.82275" id="Fill-36" fill="#4C4ADC"/></g></g></g><g id="Chair" transform="translate(66.374505, 482.462350) scale(1 1)"><g id="Chair/Stool" stroke="none" stroke-width="1" fill="none" fill-rule="evenodd"><g id="Group-23" transform="translate(111.000000, 270.000000)"><polygon id="Fill-28" fill="#EFD638" points="30.8476954 133.439 121.597695 133.906 120.327695 113 33.3876954 113"/><polygon id="Fill-30" fill="#EFD638" points="42.4423954 50 75.3493954 50.373 106.710395 50.373 112.256395 71.373 40.7863954 71.373"/><path d="M27.7558954,3.15405628 L6.22289537,166.641082 C6.22289537,166.641082 5.31289537,170.068181 10.3638954,170.068181 L27.7558954,170.068181 C27.7558954,170.068181 29.9918954,170.538568 30.5718954,166.909874 C31.1518954,163.281181 50.3928954,3.15405628 50.3928954,3.15405628 C50.3928954,3.15405628 37.3628954,-3.74430059 27.7558954,3.15405628" id="Fill-32" fill="#70A0E6"/><path d="M123.575195,3.15405628 L145.108195,166.641082 C145.108195,166.641082 146.018195,170.068181 140.967195,170.068181 L123.575195,170.068181 C123.575195,170.068181 121.339195,170.538568 120.759195,166.909874 C120.179195,163.281181 100.938195,3.15405628 100.938195,3.15405628 C100.938195,3.15405628 113.968195,-3.74430059 123.575195,3.15405628" id="Fill-34" fill="#70A0E6"/><path d="M142.771495,23.82275 L142.771495,4.22375 C142.771495,-0.04625 137.774495,0.44375 137.774495,0.44375 C132.860495,0.58375 109.561495,0.23375 102.024495,0.09375 C95.2794954,-0.03125 47.5034954,-0.03125 40.7584954,0.09375 C33.2214954,0.23375 9.92149537,0.58375 5.00849537,0.44375 C5.00849537,0.44375 0.0114953718,-0.04625 0.0114953718,4.22375 L0.0114953718,23.82275 C0.0114953718,23.82275 -0.402504628,26.76275 3.73849537,26.76275 L70.6364954,26.76275 L72.1464954,26.76275 L139.044495,26.76275 C143.186495,26.76275 142.771495,23.82275 142.771495,23.82275" id="Fill-36" fill="#4C4ADC"/></g></g></g><g transform="translate(809.500000, 548.500000) scale(-1, 1) translate(-809.500000, -548.500000) translate(497.000000, 174.000000) scale(1 1)" id="Master/Character/Sitting"><defs><polygon id="mastercharactersitting-path-1" points="0.644 0.0174503817 98.896 0.0174503817 98.896 28.4488725 0.644 28.4488725"/><path d="M0.611,4.152 C0.516,6.977 4.407,8.141 8.572,9.455 L8.572,9.455 C16.217,11.868 20.367,12.194 21.052,9.038 L21.052,9.038 C21.453,7.193 20.288,5.826 18.679,5.317 L18.679,5.317 C17.91,5.073 16.958,4.844 15.818,4.517 L15.818,4.517 C15.818,4.517 12.448,3.701 6.92,1.517 L6.92,1.517 C6.885,1.502 6.85,1.488 6.813,1.475 L6.813,1.475 C5.923,1.139 5.098,0.988999462 4.36,0.988999462 L4.36,0.988999462 C2.113,0.988 0.672,2.381 0.611,4.152 L0.611,4.152 Z" id="mastercharactersitting-path-3"/></defs><g id="Master/Character/Sitting" stroke="none" stroke-width="1" fill="none" fill-rule="evenodd"><g id="Sitting/Lower Body" transform="translate(204.000000, 488.000000) scale(1 1)"><defs><polygon id="sittinglower-bodygreen-pants-path-1" points="0.644 0.018 98.896 0.018 98.896 31.1879 0.644 31.1879"/></defs><g id="Sitting/Lower Body/Green Pants" stroke="none" stroke-width="1" fill="none" fill-rule="evenodd"><g id="Group-100" transform="translate(51.000000, 6.000000)"><g id="Group-99" transform="translate(0.000000, 0.982000)"><path d="M173.4432,190.5383 C173.4432,190.5383 172.8462,246.4163 173.0112,248.5213 C173.1752,250.6263 173.6182,252.5333 177.9292,252.7263 C182.2392,252.9193 185.0112,252.9973 185.0112,252.9973 C185.0112,252.9973 187.5152,253.1743 188.4332,250.3563 C189.3502,247.5393 193.2712,238.2293 193.2712,238.2293 L198.2452,251.4343 C198.2452,251.4343 198.0862,253.9173 203.2242,254.1633 C208.3622,254.4083 230.2332,254.9633 234.9072,254.8943 C290.6162,254.0753 234.6182,234.9473 220.1072,230.6053 C218.2052,230.0363 216.8962,228.2983 216.8812,226.3123 C216.8102,217.1143 216.6402,192.4983 216.8542,191.7963 L173.4432,190.5383 Z" id="Fill-88" fill="#4D33A2"/><path d="M137.4939,190.558816 C136.1649,190.5479 135.0779,191.6149 135.0649,192.9429 C134.9529,203.6649 134.5139,246.6789 134.6579,248.5219 C134.8219,250.6259 135.2649,252.5339 139.5759,252.7269 C143.8859,252.9189 146.6579,252.9969 146.6579,252.9969 C146.6579,252.9969 149.1619,253.1739 150.0799,250.3569 C150.5019,249.0589 151.5619,246.3839 152.5829,243.8749 C153.4089,241.8459 156.2959,241.8859 157.0679,243.9369 L158.2049,246.9549 C158.2049,246.9549 160.2879,252.7759 165.3819,253.4919 C172.0879,254.4339 191.8799,254.9629 196.5549,254.8949 C254.3819,254.0439 194.1699,232.7219 182.9729,229.3169 C181.9659,229.0099 181.2819,228.0939 181.2729,227.0419 C181.2229,220.8249 181.0709,200.4079 181.1529,193.3399 C181.1679,192.0049 180.0989,190.9129 178.7639,190.9019 L137.4939,190.558816 Z" id="Fill-90" fill="#8C72CB"/><path d="M100.2401,25.3509 L86.2371,21.6909 L43.4856803,21.6909 L43.4856803,33.1069 L43.4856803,33.1069 C43.4856803,33.1069 42.3851,89.5889 101.5871,94.3399 L137.9261,99.4089 C137.9261,99.4089 167.2641,99.6319 167.2641,128.8549 C167.2641,140.2879 168.6301,190.3709 168.2881,195.9029 C168.1911,197.4919 168.1451,200.6929 168.1231,203.5739 C168.0991,206.8449 170.8131,209.7549 174.4621,209.8759 C175.4581,209.9099 175.9661,209.8759 176.8821,209.8759 C184.1911,209.8759 213.2091,209.891011 216.2501,209.891011 C221.8211,209.891011 222.1611,205.6819 222.2461,200.0289 C222.9971,150.0159 227.0591,94.9429 204.7451,67.3849 C187.8221,46.4849 164.9031,36.8409 100.2401,25.3509" id="Fill-92" fill="#A2D249"/><path d="M100.2401,25.3509 L75.2631,21.6909 L0.64368039,21.6909 L0.64368039,33.1069 L0.64368039,33.1069 C0.64368039,33.1069 -0.4569,89.5889 58.7461,94.3399 L95.0841,99.4089 C95.0841,99.4089 124.4231,99.6319 124.4231,128.8549 C124.4231,140.2879 125.7881,190.3709 125.4471,195.9029 C125.3491,197.4919 125.3031,200.6929 125.2821,203.5739 C125.2581,206.8449 127.9711,209.7549 131.6201,209.8759 C132.6161,209.9099 133.1241,209.8759 134.0401,209.8759 L181.9431,209.8759 C187.5131,209.8759 187.7121,205.6629 187.9391,200.0139 C188.1601,194.5249 196.4741,118.8129 181.9431,85.2539 C169.8851,57.4099 133.1621,42.8289 100.2401,25.3509" id="Fill-94" fill="#DDF77D"/><g id="Group-98"><mask id="sittinglower-bodygreen-pants-mask-2" fill="#ffffff"><use xlink:href="#sittinglower-bodygreen-pants-path-1" fill="#ffffff"/></mask><g id="Clip-97"/><path d="M77.223,0.0179 L22.318,0.0179 C10.347,0.0179 0.644,9.7209 0.644,21.6909 L0.644,29.3449 L98.707,31.1879 L98.896,21.6909 C98.896,9.7209 89.193,0.0179 77.223,0.0179" id="Fill-96" fill="#DDF77D" mask="url(#sittinglower-bodygreen-pants-mask-2)"/></g></g></g></g></g><g id="Upper Body" transform="translate(-1.000000, 53.000000) scale(1 1)"><g id="Upper Body/Laptop" stroke="none" stroke-width="1" fill="none" fill-rule="evenodd"><g id="Group-691" transform="translate(152.500000, 272.500000)"><g id="Group-453" transform="translate(0.000000, 0.095000)"><path d="M241.5489,174.4264 L262.3799,74.3814 C262.3799,74.3814 252.8759,47.1744 212.0979,39.9614 C212.0979,39.9614 211.5509,15.4834 160.0019,15.4834 C108.4529,15.4834 106.8899,38.6954 106.8899,38.6954 C106.8899,38.6954 -4.3451,56.6524 0.2789,139.0164 C0.2789,139.0164 6.1749,190.7654 71.0239,182.9044 C70.9179,185.7814 71.5209,189.0814 73.9719,191.7894 C79.9819,198.4274 91.6929,197.6654 98.3559,196.5624 C101.1019,196.1074 103.8799,196.8674 106.1169,198.5244 C108.6669,200.4134 113.3329,202.5834 121.5689,203.0954 C127.8529,203.4864 132.4689,202.2684 135.7249,200.6984 C139.4069,198.9254 143.7659,199.4444 146.8579,202.1154 C150.5619,205.3184 157.1519,208.6544 168.7689,209.4994 C182.7509,210.5184 189.9819,205.5454 193.5739,201.2484 C196.0219,198.3214 199.8399,196.8864 203.5659,197.7124 C207.7369,198.6374 213.2789,199.0844 218.4979,197.0464 C220.6419,196.2094 223.0059,196.1594 225.1979,196.8604 C230.4509,198.5374 240.5249,200.6714 249.3079,196.2434 C257.8439,191.9404 255.8429,175.1594 241.5489,174.4264" id="Fill-429" fill="#00A378"/><path d="M273.8741,181.274 C273.8741,181.274 301.1821,179.927 301.8441,150.795 C302.5221,120.91 284.6001,114.814 273.8741,114.071 L273.8741,181.274 Z" id="Fill-431" fill="#ef9e89"/><path d="M119.8228,61.6696 C119.6548,61.6696 119.4838,61.6416 119.3168,61.5816 C119.0848,61.4986 118.7918,61.4476 118.4808,61.3946 C117.9548,61.3036 117.3568,61.2006 116.7638,60.8986 C116.5298,60.7806 116.2918,60.6726 116.0558,60.5656 C115.5038,60.3156 114.9328,60.0556 114.3888,59.6776 C114.1598,59.5186 113.9158,59.3746 113.6738,59.2316 C113.1808,58.9396 112.6238,58.6076 112.1398,58.1576 C111.4738,57.5356 110.9048,56.8446 110.3308,56.1316 C109.8228,55.4986 109.6678,54.7816 109.5438,54.2056 C109.4948,53.9796 109.4268,53.6686 109.3678,53.5696 C109.2548,53.3816 109.0548,53.1666 108.8438,52.9396 C108.4708,52.5366 108.0478,52.0806 107.7658,51.4486 C107.4638,50.7696 107.4328,50.0936 107.4078,49.5516 C107.3948,49.2736 107.3828,48.9876 107.3338,48.8346 C107.2928,48.7406 107.0658,48.4956 106.9168,48.3326 C106.5068,47.8896 105.9968,47.3386 105.8268,46.5416 C105.6688,45.8046 105.7738,45.1216 105.8578,44.5726 C105.8978,44.3146 105.9428,44.0216 105.9268,43.8866 C105.8138,42.9666 105.7868,42.1636 105.7628,41.4546 L105.7588,41.3186 C105.7388,40.7736 105.6888,40.5656 105.6348,40.3466 C105.5308,39.9116 105.4568,39.5126 105.5358,38.6786 C105.6128,37.8536 106.3368,37.2416 107.1708,37.3256 C107.9948,37.4036 108.5998,38.1356 108.5218,38.9606 C108.4838,39.3616 108.4998,39.4276 108.5518,39.6426 C108.6428,40.0226 108.7278,40.4286 108.7568,41.2136 L108.7608,41.3526 C108.7828,41.9996 108.8078,42.7326 108.9048,43.5226 C108.9708,44.0676 108.8928,44.5786 108.8228,45.0296 C108.7708,45.3666 108.7178,45.7156 108.7598,45.9126 C108.7828,45.9326 108.9858,46.1516 109.1198,46.2966 C109.4958,46.7036 109.9638,47.2106 110.1908,47.9216 C110.3608,48.4536 110.3848,48.9636 110.4048,49.4136 C110.4198,49.7346 110.4348,50.0666 110.5078,50.2306 C110.5858,50.4046 110.8178,50.6556 111.0438,50.8986 C111.3348,51.2126 111.6648,51.5676 111.9378,52.0216 C112.2548,52.5476 112.3778,53.1156 112.4758,53.5726 C112.5258,53.8066 112.6018,54.1596 112.6708,54.2536 C113.1908,54.8996 113.6658,55.4776 114.1858,55.9646 C114.4318,56.1926 114.8068,56.4156 115.2038,56.6496 C115.5078,56.8306 115.8118,57.0136 116.0998,57.2136 C116.4218,57.4366 116.8468,57.6296 117.2988,57.8346 C117.5718,57.9596 117.8488,58.0856 118.1218,58.2246 C118.3118,58.3206 118.6418,58.3776 118.9908,58.4386 C119.3938,58.5076 119.8508,58.5866 120.3288,58.7576 C121.1078,59.0366 121.5138,59.8956 121.2348,60.6756 C121.0148,61.2876 120.4378,61.6696 119.8228,61.6696" id="Fill-433" fill="#000"/><path d="M202.3526,60.4244 C201.7886,60.4244 201.2476,60.1044 200.9926,59.5584 C200.6416,58.8074 200.9666,57.9144 201.7176,57.5654 C201.9406,57.4604 202.1656,57.3614 202.3886,57.2634 C202.8976,57.0404 203.3766,56.8304 203.7446,56.5864 C203.9586,56.4444 204.1846,56.1544 204.4226,55.8484 C204.6536,55.5524 204.9156,55.2174 205.2426,54.9144 C205.5096,54.6664 205.7946,54.4434 206.0796,54.2234 C206.4166,53.9614 206.7356,53.7144 206.9256,53.4724 C207.1016,53.2484 207.2406,52.8994 207.3886,52.5294 C207.5216,52.1964 207.6716,51.8204 207.8796,51.4514 C208.1536,50.9714 208.4946,50.6014 208.7946,50.2754 C209.0036,50.0484 209.2416,49.7914 209.3006,49.6414 C209.4206,49.3444 209.5536,49.0514 209.6856,48.7604 C209.8926,48.3054 210.0876,47.8754 210.1886,47.5014 C210.2196,47.3834 210.1416,46.9934 210.0946,46.7614 C209.9966,46.2714 209.8846,45.7164 209.9816,45.1084 C210.0636,44.5904 210.2006,44.1354 210.3206,43.7334 C210.4216,43.3934 210.5176,43.0724 210.5306,42.8684 C210.5716,42.1714 210.6306,41.8004 210.6746,41.5294 C210.7196,41.2504 210.7346,41.1554 210.6896,40.6284 C210.6776,40.4924 210.5116,40.1934 210.3786,39.9514 C210.1566,39.5484 209.9036,39.0904 209.7826,38.5264 C209.6616,37.9584 209.6936,37.4174 209.7186,36.9834 C209.7336,36.7274 209.7546,36.3774 209.7116,36.2594 L209.5776,35.8744 C209.3606,35.2564 209.1566,34.6724 208.8986,34.1674 C208.8186,34.0124 208.5716,33.7864 208.3316,33.5704 C208.0116,33.2784 207.6476,32.9474 207.3456,32.5064 C207.1256,32.1844 206.9406,31.8404 206.7576,31.4964 C206.5706,31.1434 206.3936,30.8094 206.1956,30.5794 C205.8216,30.1504 205.5926,29.6754 205.3916,29.2574 C205.2576,28.9824 205.1076,28.6694 204.9916,28.5614 C204.9346,28.5314 204.6316,28.4564 204.4316,28.4064 C203.9176,28.2784 203.2776,28.1194 202.7206,27.6844 C202.4046,27.4364 202.1146,27.1574 201.8266,26.8764 C201.5396,26.5974 201.2676,26.3324 200.9996,26.1554 C200.7706,26.0024 200.4426,25.8764 200.0946,25.7414 C199.7226,25.5984 199.2996,25.4354 198.8836,25.1974 L198.3266,24.8754 C197.8446,24.5954 197.3686,24.3174 196.8656,24.0684 C196.2176,23.7484 195.7966,23.2294 195.4576,22.8124 C195.3276,22.6514 195.1286,22.4064 195.0406,22.3504 C194.8906,22.2874 194.5616,22.2544 194.2426,22.2234 C193.7736,22.1764 193.2416,22.1224 192.6986,21.9184 C192.3556,21.7884 191.9706,21.6934 191.5626,21.5914 C191.1786,21.4954 190.7976,21.3994 190.4266,21.2764 C190.1306,21.1784 189.7736,21.1234 189.3956,21.0674 C189.0016,21.0074 188.5556,20.9394 188.1076,20.8094 C187.7906,20.7174 187.4816,20.6204 187.1746,20.5254 C186.7296,20.3864 186.2906,20.2484 185.8486,20.1364 C185.1716,19.9644 184.6496,19.5904 184.2286,19.2904 C184.0546,19.1654 183.7896,18.9764 183.6886,18.9454 C183.5266,18.9104 183.2046,18.9534 182.8926,18.9974 C182.4066,19.0654 181.8556,19.1404 181.2556,19.0284 C180.5956,18.9034 180.0516,18.6114 179.6156,18.3754 C179.4176,18.2694 179.1206,18.1094 179.0126,18.0914 C178.4136,17.9974 177.8526,17.9354 177.3466,17.8784 L176.6526,17.7984 C176.2116,17.7444 176.1376,17.7744 175.9746,17.8374 C175.5666,17.9984 175.1026,18.1514 174.2786,18.0964 C173.4526,18.0404 172.8276,17.3244 172.8836,16.4984 C172.9386,15.6714 173.6406,15.0434 174.4816,15.1034 C174.6976,15.1164 174.7116,15.1104 174.8726,15.0474 C175.3516,14.8584 175.9146,14.6854 177.0206,14.8204 L177.6806,14.8984 C178.2256,14.9584 178.8306,15.0274 179.4766,15.1274 C180.0916,15.2244 180.5946,15.4954 181.0396,15.7354 C181.3316,15.8934 181.6086,16.0414 181.8106,16.0794 C181.9246,16.1014 182.2486,16.0574 182.4826,16.0254 C183.0016,15.9534 183.6456,15.8644 184.3376,16.0174 C185.0186,16.1664 185.5486,16.5454 185.9746,16.8504 C186.1786,16.9964 186.4576,17.1954 186.5856,17.2284 C187.0796,17.3534 187.5706,17.5064 188.0696,17.6614 C188.3566,17.7514 188.6466,17.8424 188.9416,17.9274 C189.2016,18.0024 189.5136,18.0504 189.8456,18.1004 C190.3076,18.1704 190.8316,18.2504 191.3696,18.4284 C191.6676,18.5274 191.9776,18.6024 192.2886,18.6804 C192.7616,18.7984 193.2506,18.9194 193.7576,19.1114 C193.9316,19.1764 194.2416,19.2074 194.5406,19.2374 C195.0616,19.2894 195.6526,19.3484 196.2536,19.6084 C196.9716,19.9174 197.4226,20.4744 197.7866,20.9214 C197.9176,21.0834 198.1186,21.3284 198.2066,21.3854 C198.7586,21.6574 199.2946,21.9684 199.8346,22.2824 L200.3696,22.5914 C200.5896,22.7174 200.8746,22.8274 201.1756,22.9444 C201.6356,23.1214 202.1576,23.3224 202.6596,23.6554 C203.1596,23.9874 203.5636,24.3814 203.9186,24.7284 C204.1296,24.9334 204.3386,25.1414 204.5696,25.3204 C204.6476,25.3684 204.9546,25.4454 205.1566,25.4954 C205.7346,25.6394 206.4546,25.8194 207.0446,26.3734 C207.5666,26.8624 207.8586,27.4674 208.0926,27.9534 C208.2186,28.2154 208.3496,28.4864 208.4606,28.6134 C208.8846,29.1024 209.1636,29.6274 209.4096,30.0914 C209.5396,30.3374 209.6666,30.5844 209.8236,30.8144 C209.9256,30.9644 210.1316,31.1514 210.3496,31.3494 C210.7466,31.7094 211.2406,32.1584 211.5696,32.8014 C211.9206,33.4884 212.1686,34.1974 212.4096,34.8844 L212.5386,35.2524 C212.7856,35.9454 212.7456,36.6184 212.7136,37.1594 C212.6976,37.4404 212.6796,37.7304 212.7156,37.8994 C212.7446,38.0284 212.8826,38.2794 213.0046,38.5014 C213.2756,38.9904 213.6116,39.6004 213.6776,40.3704 C213.7496,41.2074 213.7106,41.5474 213.6356,42.0084 C213.6016,42.2244 213.5566,42.5024 213.5246,43.0444 C213.4926,43.5974 213.3406,44.1034 213.1946,44.5934 C213.0916,44.9354 212.9956,45.2594 212.9446,45.5784 C212.9356,45.6734 212.9966,45.9724 213.0366,46.1694 C213.1536,46.7554 213.2996,47.4854 213.0846,48.2814 C212.9206,48.8924 212.6656,49.4554 212.4166,50.0004 C212.3026,50.2514 212.1876,50.5044 212.0846,50.7594 C211.8206,51.4194 211.3666,51.9124 211.0006,52.3094 C210.7906,52.5364 210.5916,52.7524 210.4896,52.9324 C210.3656,53.1524 210.2726,53.3974 210.1746,53.6424 C209.9646,54.1664 209.7276,54.7614 209.2856,55.3244 C208.8666,55.8594 208.3616,56.2494 207.9156,56.5944 C207.7016,56.7614 207.4826,56.9284 207.2796,57.1154 C207.1306,57.2534 206.9646,57.4674 206.7896,57.6934 C206.4486,58.1294 206.0256,58.6724 205.4046,59.0854 C204.8206,59.4734 204.1976,59.7464 203.5946,60.0114 C203.3926,60.1004 203.1886,60.1894 202.9856,60.2834 C202.7806,60.3794 202.5646,60.4244 202.3526,60.4244" id="Fill-435" fill="#000"/><path d="M159.5821,72.0865 C159.5451,72.0865 159.5091,72.0845 159.4731,72.0825 C158.6461,72.0235 158.0241,71.3055 158.0841,70.4785 L158.9271,58.7765 C158.9861,57.9495 159.7451,57.3345 160.5301,57.3885 C161.3561,57.4475 161.9781,58.1655 161.9191,58.9925 L161.0761,70.6935 C161.0191,71.4835 160.3611,72.0865 159.5821,72.0865" id="Fill-437" fill="#000"/><path d="M175.6026,72.0865 C174.9206,72.0865 174.3046,71.6195 174.1426,70.9285 L171.4016,59.2275 C171.2126,58.4205 171.7136,57.6125 172.5206,57.4245 C173.3196,57.2345 174.1336,57.7355 174.3236,58.5425 L177.0646,70.2435 C177.2526,71.0505 176.7516,71.8575 175.9456,72.0465 C175.8316,72.0735 175.7156,72.0865 175.6026,72.0865" id="Fill-439" fill="#000"/><path d="M60.378,185.4069 C59.747,185.4069 59.191,185.2019 58.739,185.0359 C58.474,184.9379 58.173,184.8279 58.02,184.8279 L58.018,184.8279 C57.75,184.8289 57.437,184.8689 57.106,184.9119 C56.654,184.9699 56.16,185.0339 55.59,185.0249 L54.933,185.0139 C54.353,185.0059 53.762,184.9959 53.158,184.9689 C52.883,184.9559 52.606,184.9469 52.327,184.9379 C51.799,184.9219 51.265,184.9029 50.723,184.8639 C50.444,184.8449 50.125,184.8609 49.784,184.8789 C49.328,184.9029 48.813,184.9289 48.271,184.8749 C48.048,184.8519 47.745,184.8859 47.424,184.9229 C46.938,184.9769 46.387,185.0389 45.79,184.9589 C45.23,184.8849 44.728,184.7109 44.284,184.5569 C43.964,184.4459 43.661,184.3419 43.404,184.2989 C42.776,184.1919 42.265,183.9349 41.813,183.7089 C41.533,183.5679 41.27,183.4349 41.082,183.3959 C40.819,183.3429 40.506,183.3219 40.174,183.3019 C39.708,183.2709 39.181,183.2379 38.634,183.0999 C38.028,182.9479 37.538,182.6669 37.106,182.4189 C36.834,182.2629 36.577,182.1159 36.377,182.0549 C36.277,182.0339 35.962,182.0679 35.755,182.0909 C35.205,182.1519 34.519,182.2259 33.805,181.9699 C33.152,181.7349 32.665,181.3179 32.274,180.9839 C32.068,180.8079 31.835,180.6089 31.695,180.5499 C31.537,180.4809 31.241,180.4429 30.955,180.4049 C30.452,180.3399 29.827,180.2589 29.224,179.9499 C28.996,179.8339 28.706,179.7329 28.399,179.6269 C27.922,179.4609 27.383,179.2739 26.87,178.9599 C26.164,178.5259 25.942,177.6019 26.376,176.8959 C26.809,176.1899 27.732,175.9699 28.439,176.4019 C28.674,176.5469 29.019,176.6659 29.382,176.7929 C29.755,176.9219 30.178,177.0679 30.59,177.2789 C30.73,177.3509 31.055,177.3929 31.342,177.4299 C31.809,177.4909 32.337,177.5599 32.879,177.7929 C33.438,178.0319 33.873,178.4039 34.223,178.7029 C34.44,178.8879 34.686,179.0979 34.822,179.1479 C34.906,179.1649 35.221,179.1319 35.428,179.1089 C35.941,179.0529 36.578,178.9819 37.244,179.1829 C37.773,179.3429 38.211,179.5949 38.598,179.8159 C38.888,179.9819 39.161,180.1389 39.365,180.1909 C39.646,180.2609 39.995,180.2839 40.365,180.3069 C40.767,180.3329 41.222,180.3619 41.691,180.4589 C42.264,180.5779 42.739,180.8159 43.159,181.0269 C43.435,181.1659 43.72,181.3089 43.902,181.3399 C44.405,181.4249 44.862,181.5829 45.266,181.7219 C45.606,181.8399 45.926,181.9509 46.186,181.9849 C46.419,182.0169 46.746,181.9799 47.09,181.9409 C47.534,181.8919 48.038,181.8359 48.573,181.8899 C48.885,181.9219 49.245,181.9019 49.627,181.8829 C50.044,181.8609 50.478,181.8399 50.94,181.8719 C51.441,181.9089 51.936,181.9239 52.424,181.9399 C52.716,181.9489 53.007,181.9589 53.295,181.9709 C53.867,181.9979 54.428,182.0069 54.979,182.0139 L55.651,182.0259 C55.967,182.0339 56.339,181.9859 56.721,181.9359 C57.129,181.8839 57.551,181.8299 58.005,181.8279 L58.021,181.8279 C58.708,181.8279 59.3,182.0459 59.776,182.2209 C59.975,182.2939 60.274,182.4039 60.377,182.4069 C60.596,182.4009 60.9,182.2939 61.224,182.1809 C61.657,182.0289 62.149,181.8569 62.708,181.8279 C63.194,181.8019 63.653,181.8079 64.082,181.8149 C64.432,181.8209 64.758,181.8279 65.055,181.8039 C65.716,181.7529 66.036,181.7359 66.279,181.7219 C66.576,181.7069 66.747,181.6969 67.379,181.6269 C68.306,181.5219 68.877,181.6999 69.253,181.8179 C69.511,181.8989 69.597,181.9279 69.9,181.8929 C70.151,181.8669 70.198,181.8359 70.427,181.6849 C70.778,181.4529 71.311,181.1019 72.285,180.9979 C72.958,180.9259 73.297,180.9159 73.636,180.9059 C73.916,180.8979 74.197,180.8889 74.754,180.8299 C75.541,180.7469 75.986,180.8019 76.345,180.8469 C76.618,180.8819 76.8,180.9069 77.239,180.8579 C77.783,180.7999 78.052,180.7449 78.321,180.6899 C78.66,180.6209 78.999,180.5519 79.684,180.4779 C80.36,180.4059 80.702,180.3979 81.044,180.3899 C81.322,180.3839 81.601,180.3779 82.152,180.3179 C82.438,180.2879 82.507,180.2469 82.737,180.1079 C83.082,179.9019 83.603,179.5909 84.543,179.4889 C85.197,179.4199 85.527,179.4029 85.857,179.3859 C86.145,179.3709 86.433,179.3559 87.006,179.2949 C88.062,179.1809 88.723,179.5159 89.117,179.7169 C89.374,179.8469 89.382,179.8469 89.55,179.8309 C90.199,179.7609 90.524,179.7409 90.85,179.7209 C91.143,179.7029 91.435,179.6849 92.016,179.6229 L94.474,179.3619 C94.891,179.3169 95.046,179.2569 95.303,179.1559 C95.652,179.0199 96.087,178.8499 96.901,178.7629 C97.171,178.7339 97.232,178.6959 97.46,178.5529 C97.81,178.3309 98.338,177.9969 99.3,177.8939 C100.129,177.8129 100.863,178.4019 100.951,179.2259 C101.04,180.0499 100.443,180.7889 99.62,180.8779 C99.351,180.9059 99.289,180.9449 99.062,181.0889 C98.712,181.3089 98.184,181.6429 97.222,181.7469 C96.805,181.7909 96.649,181.8509 96.393,181.9519 C96.043,182.0879 95.608,182.2579 94.794,182.3439 L92.335,182.6059 C91.686,182.6759 91.36,182.6959 91.035,182.7159 C90.742,182.7339 90.45,182.7519 89.869,182.8139 C88.818,182.9289 88.153,182.5919 87.759,182.3909 C87.502,182.2609 87.496,182.2599 87.325,182.2779 C86.67,182.3479 86.34,182.3649 86.01,182.3819 C85.722,182.3959 85.435,182.4109 84.862,182.4719 C84.578,182.5029 84.509,182.5449 84.278,182.6819 C83.934,182.8879 83.412,183.2009 82.472,183.3019 C81.795,183.3739 81.454,183.3819 81.113,183.3889 C80.834,183.3959 80.556,183.4019 80.003,183.4619 C79.459,183.5199 79.19,183.5749 78.921,183.6299 C78.582,183.6989 78.243,183.7679 77.559,183.8419 C76.772,183.9269 76.324,183.8689 75.968,183.8239 C75.693,183.7899 75.513,183.7659 75.072,183.8129 C74.4,183.8859 74.062,183.8949 73.723,183.9049 C73.442,183.9129 73.161,183.9219 72.605,183.9809 C72.354,184.0079 72.307,184.0389 72.078,184.1889 C71.727,184.4219 71.194,184.7719 70.22,184.8769 C69.298,184.9769 68.731,184.7989 68.357,184.6809 C68.101,184.6009 68.018,184.5739 67.713,184.6079 C66.981,184.6899 66.783,184.6999 66.44,184.7189 C66.211,184.7299 65.91,184.7469 65.29,184.7959 C64.905,184.8259 64.489,184.8209 64.035,184.8149 C63.672,184.8079 63.28,184.8019 62.864,184.8239 C62.735,184.8309 62.459,184.9279 62.215,185.0119 C61.739,185.1789 61.147,185.3859 60.458,185.4059 C60.431,185.4069 60.404,185.4069 60.378,185.4069" id="Fill-441" fill="#000"/><path d="M62.0967,114.5406 C61.2357,114.5406 60.7447,114.3706 60.3877,114.2476 C60.1417,114.1616 60.0177,114.1186 59.6607,114.1186 C59.2727,114.1186 59.1307,114.1616 58.8737,114.2386 C58.5277,114.3436 58.0527,114.4856 57.2227,114.4856 C56.1767,114.4856 55.5647,114.0966 55.1997,113.8636 C54.9637,113.7136 54.9587,113.7106 54.7867,113.7106 C54.2157,113.7106 53.9307,113.7256 53.6447,113.7386 C53.3227,113.7556 52.9987,113.7706 52.3537,113.7706 C52.0637,113.7706 51.9837,113.8076 51.7447,113.9126 C51.3867,114.0726 50.8447,114.3136 49.9167,114.3136 C49.1617,114.3136 48.7437,114.2316 48.4097,114.1656 C48.1387,114.1126 47.9437,114.0736 47.4807,114.0736 C47.1257,114.0736 47.0027,114.1166 46.7577,114.2026 C46.4007,114.3266 45.9097,114.4976 45.0477,114.4976 C44.1707,114.4976 43.6737,114.3126 43.3107,114.1796 C43.0677,114.0886 42.9557,114.0476 42.6177,114.0476 C41.9447,114.0476 41.6087,114.0186 41.2727,113.9896 C40.9997,113.9666 40.7277,113.9426 40.1837,113.9426 C39.7937,113.9426 39.6527,113.9846 39.3947,114.0616 C39.0487,114.1646 38.5757,114.3066 37.7467,114.3066 C36.8787,114.3066 36.3857,114.1316 36.0267,114.0036 C35.7757,113.9136 35.6607,113.8736 35.3107,113.8736 C34.4827,113.8736 33.8107,113.2016 33.8107,112.3736 C33.8107,111.5446 34.4827,110.8736 35.3107,110.8736 C36.1777,110.8736 36.6707,111.0486 37.0307,111.1766 C37.2817,111.2656 37.3967,111.3066 37.7467,111.3066 C38.1377,111.3066 38.2797,111.2636 38.5367,111.1866 C38.8827,111.0836 39.3557,110.9426 40.1837,110.9426 C40.8567,110.9426 41.1927,110.9716 41.5287,111.0006 C41.8007,111.0236 42.0737,111.0476 42.6177,111.0476 C43.4927,111.0476 43.9907,111.2306 44.3527,111.3656 C44.5977,111.4556 44.7087,111.4976 45.0477,111.4976 C45.4027,111.4976 45.5267,111.4546 45.7717,111.3686 C46.1287,111.2446 46.6187,111.0736 47.4807,111.0736 C48.2367,111.0736 48.6547,111.1566 48.9897,111.2226 C49.2597,111.2756 49.4547,111.3136 49.9167,111.3136 C50.2067,111.3136 50.2857,111.2786 50.5247,111.1726 C50.8827,111.0136 51.4247,110.7706 52.3537,110.7706 C52.9247,110.7706 53.2097,110.7576 53.4957,110.7426 C53.8187,110.7276 54.1417,110.7106 54.7867,110.7106 C55.8327,110.7106 56.4457,111.1006 56.8107,111.3336 C57.0457,111.4826 57.0507,111.4856 57.2227,111.4856 C57.6117,111.4856 57.7517,111.4436 58.0087,111.3666 C58.3557,111.2626 58.8297,111.1186 59.6607,111.1186 C60.5227,111.1186 61.0127,111.2886 61.3697,111.4126 C61.6167,111.4976 61.7407,111.5406 62.0967,111.5406 C62.6357,111.5406 62.9057,111.5156 63.1747,111.4896 C63.5147,111.4586 63.8547,111.4266 64.5347,111.4266 C65.1177,111.4266 65.4097,111.4156 65.7007,111.4056 C66.0177,111.3946 66.3357,111.3836 66.9717,111.3836 C67.4397,111.3836 67.6367,111.3456 67.9087,111.2936 C68.2427,111.2286 68.6587,111.1496 69.4107,111.1496 L71.8487,111.1546 C72.2087,111.1546 72.3327,111.1116 72.5817,111.0266 C72.9397,110.9046 73.4287,110.7366 74.2877,110.7366 C75.1347,110.7366 75.6177,110.8936 75.9697,111.0076 C76.2177,111.0876 76.3547,111.1326 76.7287,111.1326 C77.5647,111.1326 78.0417,111.2806 78.3907,111.3896 C78.6437,111.4676 78.7827,111.5116 79.1627,111.5116 C79.4577,111.5116 79.5387,111.4756 79.7807,111.3696 C80.1377,111.2136 80.6777,110.9776 81.6017,110.9776 C82.4507,110.9776 82.9347,111.1346 83.2867,111.2496 C83.5427,111.3326 83.6707,111.3746 84.0417,111.3746 C84.6677,111.3746 84.9807,111.3816 85.2937,111.3886 C85.5907,111.3946 85.8887,111.3996 86.4837,111.3996 C86.6867,111.3996 86.7107,111.3866 86.9467,111.2486 C87.3287,111.0236 87.9087,110.6856 88.9257,110.6856 C90.0017,110.6856 90.6237,111.1116 90.9957,111.3666 C91.2247,111.5226 91.2247,111.5226 91.3707,111.5226 C91.7647,111.5226 91.9077,111.4796 92.1667,111.4026 C92.5137,111.3006 92.9887,111.1586 93.8177,111.1586 C94.6457,111.1586 95.3177,111.8306 95.3177,112.6586 C95.3177,113.4876 94.6457,114.1586 93.8177,114.1586 C93.4247,114.1586 93.2817,114.2016 93.0227,114.2786 C92.6757,114.3816 92.2007,114.5226 91.3707,114.5226 C90.2947,114.5226 89.6727,114.0966 89.3007,113.8416 C89.0727,113.6856 89.0727,113.6856 88.9257,113.6856 C88.7217,113.6856 88.6977,113.6986 88.4617,113.8366 C88.0787,114.0616 87.5007,114.3996 86.4837,114.3996 C85.8577,114.3996 85.5447,114.3946 85.2317,114.3876 C84.9347,114.3816 84.6367,114.3746 84.0417,114.3746 C83.1937,114.3746 82.7097,114.2176 82.3577,114.1026 C82.1017,114.0196 81.9737,113.9776 81.6017,113.9776 C81.3057,113.9776 81.2247,114.0126 80.9837,114.1176 C80.6257,114.2746 80.0867,114.5116 79.1627,114.5116 C78.3257,114.5116 77.8487,114.3616 77.4987,114.2536 C77.2467,114.1756 77.1087,114.1326 76.7287,114.1326 C75.8807,114.1326 75.3987,113.9766 75.0457,113.8616 C74.7977,113.7816 74.6607,113.7366 74.2877,113.7366 C73.9277,113.7366 73.8037,113.7796 73.5547,113.8646 C73.1977,113.9876 72.7077,114.1546 71.8487,114.1546 L69.4107,114.1496 C68.9437,114.1496 68.7457,114.1866 68.4737,114.2396 C68.1397,114.3036 67.7237,114.3836 66.9717,114.3836 C66.3887,114.3836 66.0967,114.3936 65.8057,114.4036 C65.4887,114.4146 65.1697,114.4266 64.5347,114.4266 C63.9947,114.4266 63.7257,114.4516 63.4557,114.4776 C63.1167,114.5096 62.7767,114.5406 62.0967,114.5406" id="Fill-443" fill="#000"/><path d="M88.6358,105.8483 C88.6358,105.8483 63.4068,110.9093 59.4538,135.1013 C55.9698,156.4213 64.5138,178.4283 90.6048,181.2743 L88.6358,105.8483 Z" id="Fill-445" fill="#ef9e89"/><path d="M86.0939984,74.0543 L88.4808,185.8853 C88.5198,187.7163 90.0148,189.1803 91.8468,189.1803 L270.5068,189.1803 C272.3668,189.1803 273.8738,187.6733 273.8738,185.8143 L273.8738,75.5063 C273.8738,73.6583 272.3838,72.1553 270.5358,72.1393 L89.4898,70.6161621 C87.5908,70.5993 86.0538,72.1563 86.0939984,74.0543" id="Fill-447" fill="#F8FBF8"/><path d="M94.8738,74.0543 L97.1490047,185.8853 C97.1861813,187.7163 98.6112813,189.1803 100.357625,189.1803 L270.664227,189.1803 C272.437261,189.1803 273.8738,187.6733 273.8738,185.8143 L273.8738,75.5063 C273.8738,73.6583 272.453466,72.1553 270.691871,72.1393 L98.1108281,70.6161621 C96.3006174,70.5993 94.8354811,72.1563 94.8738,74.0543" id="Fill-447-Copy" fill="#AFDCFD"/><path d="M176.1475,0.9069 L164.7485,0.9069 C159.5945,0.9069 155.2085,4.6009 154.2925,9.6419 C154.2825,9.7049 154.2735,9.7649 154.2635,9.8289 L154.2585,9.8619 L154.2585,9.8629 C154.2215,10.1079 154.1835,10.3579 154.1455,10.6069 C152.8195,19.3479 151.1815,30.0589 151.1815,30.0589 L186.6145,30.0589 L186.6865,22.2939 L186.7845,11.6419 C186.8385,5.7289 182.0605,0.9069 176.1475,0.9069" id="Fill-449" fill="#ef9e89"/><path d="M186.6143,30.0592 C172.7393,29.0832 168.9483,26.1082 169.0823,23.6312 C169.2013,21.4132 171.2863,21.7222 172.1973,21.7432 C176.2113,21.8322 186.6863,22.2932 186.6863,22.2932" id="Fill-451" fill="#430000"/></g></g><circle id="Oval" fill="#F8FBF8" cx="342.5" cy="405.5" r="11.5"/><path d="M223.5,449 L248,449 L248,449 L248,462 L223.5,462 C219.910149,462 217,459.089851 217,455.5 C217,451.910149 219.910149,449 223.5,449 Z" id="Rectangle" fill="#F8FBF8"/></g></g><g id="Head" transform="translate(204.000000, 198.000000) scale(1 1)"><g id="Head/Short Ponytail 2" stroke="none" stroke-width="1" fill="none" fill-rule="evenodd"><g id="Group-183" transform="translate(57.000000, 70.000000)"><g id="Group-119" transform="translate(0.000000, 0.738000)"><path d="M94.2797,50.2955 C93.6827,48.2245 88.8087,47.3715 85.6927,47.0355 C84.3067,41.0205 82.7897,35.5255 81.4197,32.9635 C78.7147,27.9055 70.4677,22.5915 57.2797,24.6325 C48.5217,25.9875 39.1967,34.1565 45.2537,48.3775 C45.2537,48.3775 46.9867,51.8245 46.1567,57.5095 C46.0657,58.1355 45.9357,59.0105 45.7797,60.0515 L45.7787,60.0595 C45.5147,61.8185 45.1747,64.0745 44.8007,66.5395 C44.7917,66.6025 44.7817,66.6625 44.7727,66.7265 L44.7677,66.7605 C44.7297,67.0055 44.6927,67.2555 44.6547,67.5045 C44.4247,70.0945 45.1317,78.5695 64.2087,78.6665 L77.1947,79.1915 L77.3927,79.1995 C77.3927,79.1995 81.7437,79.1505 84.3777,79.1505 C89.8517,79.1505 90.7917,73.9325 90.1777,70.0695 C89.9677,68.7555 89.3007,64.8095 88.3697,59.9145 C92.7387,57.6265 95.0477,52.9565 94.2797,50.2955" id="Fill-111" fill="#ef9e89"/><path d="M1.2299,19.5719 C-3.9881,39.7319 27.1749,47.1209 32.8029,26.7989 C38.7829,5.2029 6.9299,-2.4471 1.2299,19.5719" id="Fill-113" fill="#150656"/><path d="M30.5057,37.6383 C35.2537,39.2823 37.6397,40.2323 39.1217,37.1743 C40.6047,34.1173 42.2717,30.5963 42.2717,30.5963 C42.2717,30.5963 43.9277,27.3193 40.2337,25.0383 C24.4407,15.2873 17.0947,32.9933 30.5057,37.6383" id="Fill-115" fill="#FEF864"/><path d="M87.5995,39.7047 C87.5995,39.7047 101.5375,33.9717 99.9125,20.5347 C98.2875,7.0987 87.4505,15.1167 86.2585,20.1007 C86.2585,20.1007 92.2185,0.1627 82.7915,0.0540678077 C73.3635,-0.0533 71.9545,13.7087 71.8475,16.4177 C71.8475,16.4177 50.8885,12.6467 41.0905,26.3357 C33.3025,37.2177 31.9555,51.9747 45.1115,64.5897 L52.2805,60.0087 C53.7495,59.0697 53.8885,56.9777 52.5515,55.8577 C50.8205,54.4067 49.1605,52.1327 49.8595,48.9917 C51.6465,40.9707 67.8915,42.0447 67.8915,42.0447 C67.8915,42.0447 83.5825,42.0107 87.5995,39.7047" id="Fill-117" fill="#150656"/></g></g></g></g><g id="Expression" transform="translate(315.000000, 299.000000) scale(1 1)"><defs><path d="M2.973,1.055 C-0.453,2.37 -2.944,13.004 10.567,16.001 L10.567,16.001 C16.271,17.266 19.387,14.583 19.536,11.9 L19.536,11.9 C19.665,9.554 17.527,7.208 12.869,7.501 L12.869,7.501 C11.822,7.568 10.572,7.073 9.905,5.972 L9.905,5.972 C8.651,3.902 7.906,0.626 4.999,0.626 L4.999,0.626 C4.417,0.626 3.749,0.757 2.973,1.055" id="expressionlaugh-path-1"/></defs><g id="Expression/Laugh" stroke="none" stroke-width="1" fill="none" fill-rule="evenodd"><g id="Group-77" transform="translate(13.400000, 13.300000)"><g id="Group-3" transform="translate(0.000000, 0.116900)"><g id="Group" transform="translate(0.000000, 15.000000)"><path d="M2.973,1.0549 C-0.453,2.3699 -2.944,13.0039 10.567,15.9999 C21.261,18.3719 22.855,6.8709 12.869,7.5009 C11.822,7.5679 10.571,7.0739 9.904,5.9719 C8.4,3.4879 7.63,-0.7321 2.973,1.0549" id="Fill-37" fill="#000"/><g id="Group-41"><mask id="expressionlaugh-mask-2" fill="#ffffff"><use xlink:href="#expressionlaugh-path-1" fill="#ffffff"/></mask><g id="Clip-40"/><path d="M-3.2101,3.4943 C-3.2101,3.4943 1.3509,2.7393 5.4389,7.3023 C9.5279,11.8643 9.1349,18.8593 9.1349,18.8593 C9.1349,18.8593 -6.6571,11.2823 -3.2101,3.4943" id="Fill-39" fill="#FF71DB" mask="url(#expressionlaugh-mask-2)"/></g></g><g id="Group-46" transform="translate(3.000000, 0.000000)"><path d="M3.1312,6.052 C3.7892,6.555 4.7312,6.427 5.2332,5.769 C7.2772,3.086 9.8032,4.136 10.1002,4.271 C10.8412,4.624 11.7342,4.313 12.0932,3.571 C12.4552,2.825 12.1432,1.928 11.3982,1.566 C10.3642,1.065 8.4892,0.66 6.5312,1.268 C5.2702,1.659 3.9732,2.472 2.8462,3.95 C2.3442,4.61 2.4722,5.55 3.1312,6.052" id="Fill-42" fill="#000"/><path d="M4.6669,6.3596 C4.6669,7.0556 3.7149,7.6196 2.5399,7.6196 C1.3649,7.6196 0.4129,7.0556 0.4129,6.3596 C0.4129,5.6646 1.3649,5.0996 2.5399,5.0996 C3.7149,5.0996 4.6669,5.6646 4.6669,6.3596" id="Fill-44" fill="#F8FBF8"/></g></g></g></g></g><g id="Facial Hair" transform="translate(311.300000, 303.950000) scale(1 1)" fill="#000"><g id="Facial Hair/None" stroke="none" stroke-width="1" fill="none" fill-rule="evenodd" fill-opacity="0"/></g><g id="Accesories" transform="translate(311.300000, 303.950000) scale(1 1)" fill="#000"><g id="Accesories/None" stroke="none" stroke-width="1" fill="none" fill-rule="evenodd" fill-opacity="0"/></g></g></g><g transform="translate(-49.000000, 174.000000) scale(1 1)" id="Master/Character/Sitting"><defs><polygon id="mastercharactersitting-path-1" points="0.644 0.0174503817 98.896 0.0174503817 98.896 28.4488725 0.644 28.4488725"/><path d="M0.611,4.152 C0.516,6.977 4.407,8.141 8.572,9.455 L8.572,9.455 C16.217,11.868 20.367,12.194 21.052,9.038 L21.052,9.038 C21.453,7.193 20.288,5.826 18.679,5.317 L18.679,5.317 C17.91,5.073 16.958,4.844 15.818,4.517 L15.818,4.517 C15.818,4.517 12.448,3.701 6.92,1.517 L6.92,1.517 C6.885,1.502 6.85,1.488 6.813,1.475 L6.813,1.475 C5.923,1.139 5.098,0.988999462 4.36,0.988999462 L4.36,0.988999462 C2.113,0.988 0.672,2.381 0.611,4.152 L0.611,4.152 Z" id="mastercharactersitting-path-3"/></defs><g id="Master/Character/Sitting" stroke="none" stroke-width="1" fill="none" fill-rule="evenodd"><g id="Sitting/Lower Body" transform="translate(204.000000, 488.000000) scale(1 1)"><defs><polygon id="sittinglower-bodygreen-pants-path-1" points="0.644 0.018 98.896 0.018 98.896 31.1879 0.644 31.1879"/></defs><g id="Sitting/Lower Body/Green Pants" stroke="none" stroke-width="1" fill="none" fill-rule="evenodd"><g id="Group-100" transform="translate(51.000000, 6.000000)"><g id="Group-99" transform="translate(0.000000, 0.982000)"><path d="M173.4432,190.5383 C173.4432,190.5383 172.8462,246.4163 173.0112,248.5213 C173.1752,250.6263 173.6182,252.5333 177.9292,252.7263 C182.2392,252.9193 185.0112,252.9973 185.0112,252.9973 C185.0112,252.9973 187.5152,253.1743 188.4332,250.3563 C189.3502,247.5393 193.2712,238.2293 193.2712,238.2293 L198.2452,251.4343 C198.2452,251.4343 198.0862,253.9173 203.2242,254.1633 C208.3622,254.4083 230.2332,254.9633 234.9072,254.8943 C290.6162,254.0753 234.6182,234.9473 220.1072,230.6053 C218.2052,230.0363 216.8962,228.2983 216.8812,226.3123 C216.8102,217.1143 216.6402,192.4983 216.8542,191.7963 L173.4432,190.5383 Z" id="Fill-88" fill="#4D33A2"/><path d="M137.4939,190.558816 C136.1649,190.5479 135.0779,191.6149 135.0649,192.9429 C134.9529,203.6649 134.5139,246.6789 134.6579,248.5219 C134.8219,250.6259 135.2649,252.5339 139.5759,252.7269 C143.8859,252.9189 146.6579,252.9969 146.6579,252.9969 C146.6579,252.9969 149.1619,253.1739 150.0799,250.3569 C150.5019,249.0589 151.5619,246.3839 152.5829,243.8749 C153.4089,241.8459 156.2959,241.8859 157.0679,243.9369 L158.2049,246.9549 C158.2049,246.9549 160.2879,252.7759 165.3819,253.4919 C172.0879,254.4339 191.8799,254.9629 196.5549,254.8949 C254.3819,254.0439 194.1699,232.7219 182.9729,229.3169 C181.9659,229.0099 181.2819,228.0939 181.2729,227.0419 C181.2229,220.8249 181.0709,200.4079 181.1529,193.3399 C181.1679,192.0049 180.0989,190.9129 178.7639,190.9019 L137.4939,190.558816 Z" id="Fill-90" fill="#8C72CB"/><path d="M100.2401,25.3509 L86.2371,21.6909 L43.4856803,21.6909 L43.4856803,33.1069 L43.4856803,33.1069 C43.4856803,33.1069 42.3851,89.5889 101.5871,94.3399 L137.9261,99.4089 C137.9261,99.4089 167.2641,99.6319 167.2641,128.8549 C167.2641,140.2879 168.6301,190.3709 168.2881,195.9029 C168.1911,197.4919 168.1451,200.6929 168.1231,203.5739 C168.0991,206.8449 170.8131,209.7549 174.4621,209.8759 C175.4581,209.9099 175.9661,209.8759 176.8821,209.8759 C184.1911,209.8759 213.2091,209.891011 216.2501,209.891011 C221.8211,209.891011 222.1611,205.6819 222.2461,200.0289 C222.9971,150.0159 227.0591,94.9429 204.7451,67.3849 C187.8221,46.4849 164.9031,36.8409 100.2401,25.3509" id="Fill-92" fill="#A2D249"/><path d="M100.2401,25.3509 L75.2631,21.6909 L0.64368039,21.6909 L0.64368039,33.1069 L0.64368039,33.1069 C0.64368039,33.1069 -0.4569,89.5889 58.7461,94.3399 L95.0841,99.4089 C95.0841,99.4089 124.4231,99.6319 124.4231,128.8549 C124.4231,140.2879 125.7881,190.3709 125.4471,195.9029 C125.3491,197.4919 125.3031,200.6929 125.2821,203.5739 C125.2581,206.8449 127.9711,209.7549 131.6201,209.8759 C132.6161,209.9099 133.1241,209.8759 134.0401,209.8759 L181.9431,209.8759 C187.5131,209.8759 187.7121,205.6629 187.9391,200.0139 C188.1601,194.5249 196.4741,118.8129 181.9431,85.2539 C169.8851,57.4099 133.1621,42.8289 100.2401,25.3509" id="Fill-94" fill="#DDF77D"/><g id="Group-98"><mask id="sittinglower-bodygreen-pants-mask-2" fill="#ffffff"><use xlink:href="#sittinglower-bodygreen-pants-path-1" fill="#ffffff"/></mask><g id="Clip-97"/><path d="M77.223,0.0179 L22.318,0.0179 C10.347,0.0179 0.644,9.7209 0.644,21.6909 L0.644,29.3449 L98.707,31.1879 L98.896,21.6909 C98.896,9.7209 89.193,0.0179 77.223,0.0179" id="Fill-96" fill="#DDF77D" mask="url(#sittinglower-bodygreen-pants-mask-2)"/></g></g></g></g></g><g id="Upper Body" transform="translate(-1.000000, 53.000000) scale(1 1)"><g id="Upper Body/With Briefcase" stroke="none" stroke-width="1" fill="none" fill-rule="evenodd"><g id="Group-691" transform="translate(222.500000, 272.500000)"><g id="Group-45" transform="translate(0.000000, 0.095000)"><path d="M12.8726,151.9078 C12.8726,151.9078 12.7386,154.1178 12.5766,156.1168 C12.4846,157.2568 12.0146,158.1638 11.4316,158.6698 C9.7686,160.1108 1.6766,164.7658 0.7896,175.4078 C-0.0964,186.0488 1.3456,194.8048 17.6386,194.8048 L29.2776,194.8048 L35.0416,151.9078" id="Fill-1" fill="#b02d1c"/><path d="M19.1631,190.653 C19.1511,190.653 19.1381,190.653 19.1251,190.652 C18.2971,190.632 17.6421,189.944 17.6631,189.116 C17.8451,181.774 17.6821,173.998 15.0891,171.992 C14.8211,171.784 14.0051,171.153 12.0091,171.723 C9.2241,172.519 9.1231,179.375 9.5111,182.57 C9.6111,183.392 9.0261,184.139 8.2041,184.24 C7.3831,184.342 6.6341,183.756 6.5341,182.934 C6.3791,181.672 5.1951,170.55 11.1851,168.839 C13.4781,168.183 15.4101,168.445 16.9251,169.619 C20.3751,172.289 20.9131,179.087 20.6621,189.19 C20.6421,190.006 19.9751,190.653 19.1631,190.653" id="Fill-3" fill="#000"/><path d="M17.6177,174.5436 C17.4577,174.5436 17.2947,174.5186 17.1347,174.4636 C16.3557,174.1956 15.9357,173.3566 16.1967,172.5756 C16.2857,172.3066 17.1427,169.9126 19.5507,168.7466 C21.1667,167.9656 23.0267,167.9456 25.0767,168.6896 C25.8557,168.9716 26.2587,169.8316 25.9767,170.6096 C25.6947,171.3906 24.8317,171.7906 24.0557,171.5096 C22.8037,171.0566 21.7337,171.0306 20.8797,171.4376 C19.5717,172.0566 19.0437,173.5216 19.0377,173.5356 C18.8207,174.1536 18.2387,174.5436 17.6177,174.5436" id="Fill-5" fill="#000"/><path d="M12.8726,151.9078 L46.2376,151.9078 L46.9026,104.5758 C46.9026,104.5758 45.7936,82.8498 57.5436,77.1968 L74.9466,30.0868 C74.9466,30.0868 41.4706,31.9708 26.1736,56.1368 C14.4016,74.7328 13.6486,98.5908 13.6486,98.5908 L12.8726,151.9078 Z" id="Fill-7" fill="#403EB7"/><path d="M21.9898,194.8053 L114.0998,194.8053 L114.0998,223.4873 L157.2178,223.4873 L157.2178,74.9423 L157.2178,68.3393 C157.2178,47.2383 140.1288,30.1213 119.0268,30.0863 L74.9468,30.0863 C74.9468,30.0863 52.1128,30.0863 52.1128,61.0213 C52.1128,61.0213 51.1148,90.0553 50.8928,97.5923 C50.6718,105.1303 51.7798,118.2103 43.4668,128.1863 C34.2328,139.2663 18.8578,160.4433 21.9898,194.8053" id="Fill-9" fill="#4947D9"/><path d="M48.6485,194.8053 C48.6485,194.8053 57.5995,180.6173 59.0675,178.7603 C60.5365,176.9043 62.8925,177.0983 63.2795,179.3423 C63.6685,181.5873 63.8345,194.8053 63.8345,194.8053 L48.6485,194.8053 Z" id="Fill-11" fill="#000"/><path d="M120.0714,216.2819 C120.2134,218.8949 124.6464,218.3569 124.4774,215.9499 C124.2834,213.1779 119.9054,213.2389 120.0714,216.2819" id="Fill-13" fill="#000"/><path d="M113.6895,190.653 C112.8615,190.653 112.1895,189.982 112.1895,189.154 C112.1895,188.551 112.2025,188.313 112.2155,188.06 C112.2295,187.81 112.2435,187.543 112.2425,186.775 C112.2425,186.482 112.2325,186.163 112.2225,185.818 C112.2095,185.382 112.1955,184.907 112.1945,184.397 C112.1945,183.706 112.4785,183.124 112.7055,182.655 C112.8015,182.46 112.9605,182.131 112.9655,182.016 C112.9655,181.869 112.8835,181.588 112.8055,181.316 C112.6725,180.856 112.5075,180.283 112.5065,179.638 C112.5065,179.248 112.5225,178.848 112.5395,178.44 C112.5545,178.055 112.5705,177.661 112.5705,177.258 C112.5705,176.657 112.7315,176.133 112.8735,175.671 C112.9685,175.363 113.0575,175.072 113.0575,174.88 C113.0575,174.72 112.9715,174.433 112.8885,174.155 C112.7525,173.701 112.5835,173.135 112.5835,172.504 C112.5835,172.168 112.5475,171.83 112.5145,171.487 C112.4715,171.038 112.4295,170.584 112.4295,170.125 C112.4285,169.715 112.4495,169.299 112.4715,168.88 C112.4905,168.506 112.5105,168.128 112.5105,167.747 C112.5095,167.198 112.6205,166.697 112.7175,166.256 C112.7905,165.924 112.8585,165.612 112.8585,165.369 C112.8575,164.946 112.8875,164.519 112.9185,164.089 C112.9435,163.725 112.9715,163.359 112.9715,162.99 C112.9715,162.628 112.9505,162.262 112.9305,161.896 C112.9075,161.47 112.8855,161.042 112.8845,160.611 C112.8745,160.52 112.7475,160.237 112.6625,160.049 C112.4435,159.562 112.1705,158.956 112.1705,158.23 C112.1695,157.722 112.2455,157.242 112.3125,156.818 C112.3675,156.467 112.4195,156.135 112.4195,155.851 C112.4195,155.22 112.6035,154.658 112.7505,154.206 C112.8415,153.924 112.9365,153.634 112.9365,153.472 C112.9365,153.233 112.8725,152.923 112.8045,152.594 C112.7115,152.15 112.6075,151.646 112.6075,151.091 C112.6065,150.487 112.7595,149.959 112.8935,149.493 C112.9815,149.188 113.0645,148.9 113.0645,148.712 C113.0645,148.345 113.0435,147.977 113.0225,147.608 C113.0005,147.183 112.9775,146.758 112.9775,146.332 C112.9775,146.025 112.9365,145.683 112.8935,145.321 C112.8405,144.886 112.7875,144.438 112.7875,143.951 C112.7875,143.471 112.8365,143.026 112.8855,142.596 C112.9265,142.231 112.9655,141.886 112.9655,141.573 C112.9655,141.46 112.8405,141.141 112.7585,140.93 C112.5745,140.46 112.3465,139.874 112.3465,139.193 C112.3455,138.625 112.4655,138.113 112.5705,137.662 C112.6465,137.34 112.7165,137.036 112.7165,136.812 C112.7165,136.267 112.8155,135.768 112.9025,135.329 C112.9685,134.994 113.0305,134.678 113.0305,134.428 C113.0135,134.39 112.8705,134.136 112.7755,133.967 C112.4915,133.461 112.1365,132.831 112.1365,132.042 C112.1365,131.56 112.1855,131.112 112.2335,130.679 C112.2715,130.338 112.3115,129.996 112.3115,129.655 C112.3115,129.29 112.2855,128.924 112.2615,128.56 C112.2315,128.129 112.2045,127.697 112.2045,127.266 C112.2045,126.536 112.4875,125.926 112.7145,125.438 C112.8005,125.252 112.9315,124.971 112.9435,124.869 C112.9425,124.646 112.8745,124.337 112.8025,124.008 C112.7045,123.562 112.5935,123.057 112.5935,122.501 C112.5935,122.054 112.6325,121.609 112.6735,121.165 C112.7055,120.814 112.7395,120.465 112.7395,120.118 C112.7395,119.867 112.6745,119.55 112.6065,119.215 C112.5175,118.776 112.4155,118.278 112.4155,117.735 C112.4155,117.355 112.3965,116.978 112.3785,116.603 C112.3585,116.183 112.3395,115.766 112.3395,115.35 C112.3395,114.939 112.3465,114.529 112.3535,114.122 C112.3595,113.735 112.3655,113.35 112.3655,112.967 C112.3655,112.648 112.3265,112.299 112.2845,111.93 C112.2345,111.503 112.1845,111.059 112.1845,110.586 C112.1845,109.987 112.3225,109.462 112.4435,108.998 C112.5235,108.69 112.6005,108.399 112.6005,108.204 C112.6005,107.888 112.5575,107.542 112.5125,107.175 C112.4605,106.746 112.4055,106.301 112.4055,105.823 C112.4065,105.121 112.6485,104.524 112.8445,104.044 C112.9245,103.845 113.0465,103.545 113.0515,103.439 C113.0515,103.147 112.9995,102.81 112.9435,102.455 C112.8775,102.035 112.8025,101.558 112.8035,101.058 C112.8035,100.682 112.7745,100.312 112.7475,99.947 C112.7155,99.518 112.6855,99.095 112.6855,98.678 C112.6865,98.15 112.7585,97.659 112.8225,97.225 C112.8735,96.883 112.9215,96.56 112.9215,96.294 C112.9215,95.83 112.9565,95.377 112.9915,94.932 C113.0195,94.585 113.0475,94.245 113.0475,93.913 C113.0475,93.593 112.9965,93.245 112.9405,92.877 C112.8775,92.448 112.8115,92.005 112.8115,91.529 C112.8125,91.254 112.7365,90.925 112.6565,90.578 C112.5585,90.152 112.4475,89.669 112.4475,89.149 C112.4485,88.536 112.5455,87.98 112.6245,87.534 C112.6765,87.238 112.7255,86.959 112.7265,86.773 C112.7285,85.933 112.8395,85.245 112.9135,84.789 C112.9405,84.624 112.9675,84.489 112.9715,84.383 C113.0095,83.567 113.7125,82.904 114.5125,82.9283154 C115.3305,82.952 115.9795,83.601 115.9715,84.42 C115.9695,84.631 115.9325,84.916 115.8755,85.269 C115.8095,85.674 115.7275,86.178 115.7265,86.78 C115.7255,87.223 115.6505,87.645 115.5795,88.052 C115.5115,88.436 115.4485,88.799 115.4475,89.153 C115.4475,89.33 115.5115,89.609 115.5805,89.905 C115.6835,90.355 115.8125,90.915 115.8115,91.533 C115.8115,91.784 115.8585,92.099 115.9085,92.433 C115.9735,92.873 116.0485,93.372 116.0475,93.915 C116.0475,94.324 116.0165,94.742 115.9815,95.17 C115.9535,95.537 115.9215,95.912 115.9215,96.296 C115.9205,96.782 115.8545,97.23 115.7905,97.665 C115.7365,98.028 115.6855,98.372 115.6855,98.68 C115.6855,99.023 115.7125,99.371 115.7385,99.724 C115.7715,100.163 115.8035,100.608 115.8035,101.06 C115.8035,101.326 115.8535,101.648 115.9075,101.99 C115.9755,102.424 116.0525,102.914 116.0515,103.442 C116.0515,104.12 115.8145,104.705 115.6235,105.174 C115.5365,105.386 115.4055,105.709 115.4055,105.824 C115.4055,106.118 115.4465,106.455 115.4905,106.811 C115.5425,107.23 115.6005,107.706 115.6005,108.204 C115.6005,108.785 115.4645,109.301 115.3455,109.757 C115.2625,110.074 115.1845,110.373 115.1845,110.586 C115.1845,110.889 115.2235,111.229 115.2645,111.59 C115.3145,112.026 115.3665,112.478 115.3655,112.968 C115.3655,113.367 115.3595,113.768 115.3525,114.172 C115.3465,114.562 115.3395,114.956 115.3395,115.35 C115.3395,115.718 115.3575,116.089 115.3755,116.46 C115.3955,116.882 115.4155,117.307 115.4155,117.734 C115.4155,117.974 115.4785,118.287 115.5455,118.616 C115.6365,119.06 115.7395,119.564 115.7395,120.118 C115.7395,120.556 115.7015,120.997 115.6605,121.438 C115.6285,121.792 115.5935,122.145 115.5935,122.501 C115.5935,122.732 115.6615,123.039 115.7325,123.364 C115.8315,123.812 115.9425,124.321 115.9425,124.883 C115.9425,125.61 115.6615,126.216 115.4345,126.703 C115.3475,126.891 115.2145,127.175 115.2035,127.279 C115.2045,127.63 115.2305,127.994 115.2545,128.358 C115.2835,128.79 115.3115,129.221 115.3115,129.654 C115.3115,130.132 115.2625,130.578 115.2155,131.007 C115.1775,131.351 115.1365,131.696 115.1365,132.041 C115.1535,132.076 115.2965,132.33 115.3905,132.498 C115.6755,133.005 116.0305,133.636 116.0305,134.427 C116.0315,134.97 115.9325,135.47 115.8455,135.911 C115.7795,136.245 115.7165,136.561 115.7165,136.811 C115.7175,137.381 115.5975,137.892 115.4925,138.344 C115.4175,138.666 115.3465,138.969 115.3465,139.192 C115.3465,139.308 115.4715,139.629 115.5535,139.84 C115.7365,140.31 115.9645,140.894 115.9655,141.572 C115.9655,142.054 115.9155,142.501 115.8665,142.931 C115.8285,143.271 115.7875,143.611 115.7875,143.95 C115.7875,144.258 115.8285,144.601 115.8715,144.965 C115.9235,145.398 115.9775,145.846 115.9775,146.331 C115.9775,146.703 115.9985,147.074 116.0185,147.445 C116.0415,147.868 116.0635,148.29 116.0645,148.711 C116.0645,149.323 115.9115,149.854 115.7765,150.323 C115.6935,150.611 115.6075,150.91 115.6075,151.09 C115.6075,151.339 115.6725,151.652 115.7415,151.985 C115.8335,152.425 115.9365,152.924 115.9365,153.471 C115.9375,154.11 115.7515,154.678 115.6025,155.135 C115.5175,155.398 115.4195,155.697 115.4195,155.849 C115.4205,156.369 115.3435,156.856 115.2755,157.285 C115.2215,157.631 115.1705,157.957 115.1705,158.229 C115.1785,158.33 115.3115,158.624 115.3985,158.818 C115.6145,159.299 115.8845,159.897 115.8845,160.609 C115.8845,160.986 115.9065,161.361 115.9265,161.733 C115.9495,162.154 115.9705,162.573 115.9715,162.988 C115.9715,163.429 115.9415,163.868 115.9105,164.302 C115.8845,164.66 115.8585,165.015 115.8585,165.367 C115.8585,165.937 115.7465,166.449 115.6475,166.9 C115.5765,167.22 115.5105,167.523 115.5105,167.746 C115.5105,168.179 115.4885,168.608 115.4675,169.033 C115.4485,169.4 115.4295,169.763 115.4295,170.124 C115.4295,170.486 115.4665,170.843 115.5005,171.197 C115.5435,171.637 115.5835,172.073 115.5835,172.503 C115.5835,172.696 115.6705,172.987 115.7625,173.296 C115.9005,173.757 116.0575,174.28 116.0575,174.879 C116.0575,175.522 115.8825,176.092 115.7415,176.551 C115.6615,176.812 115.5705,177.108 115.5705,177.257 C115.5715,177.702 115.5535,178.136 115.5365,178.562 C115.5215,178.928 115.5065,179.287 115.5065,179.636 C115.5065,179.858 115.5945,180.162 115.6875,180.483 C115.8175,180.933 115.9645,181.443 115.9655,182.015 C115.9655,182.812 115.6405,183.48 115.4035,183.968 C115.3255,184.128 115.2085,184.368 115.1905,184.456 C115.1955,184.874 115.2085,185.318 115.2205,185.728 C115.2325,186.104 115.2425,186.453 115.2425,186.773 C115.2435,187.637 115.2265,187.939 115.2115,188.221 C115.1995,188.437 115.1895,188.639 115.1895,189.151 C115.1905,189.98 114.5195,190.653 113.6905,190.653 L113.6895,190.653 Z" id="Fill-15" fill="#000"/><path d="M138.2515,276.4869 L86.8265,276.4869 C86.8265,276.4869 73.1235,276.0629 73.1235,290.5029 L73.1235,340.0969 C73.1235,340.0969 71.0475,354.9329 85.5785,354.9329 L194.0055,354.9329 C202.3085,354.9329 213.2385,352.5339 212.4605,340.3159 C211.6825,328.0979 212.5005,284.3049 212.5005,284.3049 C212.5005,284.3049 212.4605,276.3659 201.3035,276.4869 C190.1465,276.6089 138.2515,276.4869 138.2515,276.4869" id="Fill-17" fill="#FE5C4F"/><path d="M115.9102,280.9859 C113.4542,280.9859 111.4462,279.0119 111.4122,276.5489 C111.4082,276.2589 111.3552,269.4109 114.9392,262.5049 C116.0832,260.2979 118.7992,259.4359 121.0062,260.5829 C123.2122,261.7269 124.0732,264.4429 122.9282,266.6489 C120.4152,271.4919 120.4102,276.3759 120.4112,276.4239 C120.4462,278.9089 118.4592,280.9509 115.9742,280.9849 C115.9522,280.9859 115.9312,280.9859 115.9102,280.9859" id="Fill-19" fill="#FE5C4F"/><path d="M156.9127,231.4684 C154.8757,229.4314 155.0007,225.9814 155.0007,225.9814 L155.0007,223.4874 L124.4197,223.4874 C124.4197,223.4874 124.2857,225.6974 124.1237,227.6964 C124.0317,228.8354 123.6307,229.8334 121.6827,231.2434 C119.9007,232.5344 113.2247,236.3454 112.3377,246.9874 C112.0577,250.3334 112.0107,253.4734 112.5827,256.2124 C113.4467,260.3534 115.7327,263.5724 120.7737,265.2064 C123.0017,265.9284 125.7627,266.3434 129.1857,266.3854 C136.5447,266.4754 142.6457,266.3854 148.7047,266.3854 C152.6117,266.3854 158.4687,264.6584 162.8387,258.1094 C165.2477,254.4964 166.3197,251.0054 165.6547,246.6824 C164.4407,238.7934 161.9457,236.5014 156.9127,231.4684" id="Fill-21" fill="#b02d1c"/><path d="M142.7623,268.026 C142.2783,268.026 141.8033,267.793 141.5143,267.361 C135.8823,258.945 139.5463,247.578 139.7053,247.098 C139.9653,246.312 140.8113,245.888 141.5983,246.145 C142.3853,246.405 142.8123,247.253 142.5543,248.039 C142.5203,248.142 139.1993,258.507 144.0073,265.692 C144.4683,266.38 144.2833,267.312 143.5953,267.773 C143.3393,267.944 143.0493,268.026 142.7623,268.026" id="Fill-23" fill="#000"/><path d="M130.9849,267.9098 C130.4599,267.9098 129.9509,267.6338 129.6749,267.1428 C125.0869,258.9698 128.7439,246.7588 128.9019,246.2428 C129.1439,245.4508 129.9849,245.0068 130.7739,245.2478 C131.5659,245.4898 132.0119,246.3278 131.7709,247.1198 C131.7359,247.2338 128.3349,258.6268 132.2919,265.6748 C132.6969,266.3968 132.4399,267.3108 131.7179,267.7178 C131.4849,267.8478 131.2339,267.9098 130.9849,267.9098" id="Fill-25" fill="#000"/><path d="M120.775,266.7067 C120.221,266.7067 119.688,266.3977 119.427,265.8677 C114.942,256.7327 118.614,246.5877 118.773,246.1607 C119.061,245.3847 119.924,244.9867 120.701,245.2757 C121.477,245.5627 121.874,246.4267 121.586,247.2027 C121.53,247.3557 118.226,256.6137 122.121,264.5457 C122.485,265.2887 122.179,266.1877 121.435,266.5537 C121.222,266.6567 120.997,266.7067 120.775,266.7067" id="Fill-27" fill="#000"/><path d="M168.8931,280.9859 C166.5071,280.9859 164.5181,279.1109 164.4021,276.7029 C164.3731,276.2109 163.5571,264.1179 153.0441,259.0899 C150.8021,258.0169 149.8531,255.3309 150.9261,253.0889 C151.9971,250.8459 154.6851,249.8979 156.9271,250.9699 C172.3541,258.3479 173.3561,275.5409 173.3911,276.2689 C173.5111,278.7519 171.5961,280.8609 169.1131,280.9799 C169.0391,280.9839 168.9661,280.9859 168.8931,280.9859" id="Fill-29" fill="#FE5C4F"/><path d="M152.834,260.2643 C152.392,260.2643 151.955,260.0703 151.658,259.6973 C149.729,257.2673 149.139,254.4393 150.082,252.1333 C150.831,250.3023 152.474,249.0613 154.478,248.8133 C157.813,248.3993 161.568,250.6753 164.793,255.0543 C165.285,255.7213 165.142,256.6603 164.475,257.1523 C163.809,257.6423 162.87,257.5003 162.377,256.8333 C159.852,253.4043 157.028,251.5193 154.847,251.7893 C153.907,251.9063 153.202,252.4313 152.859,253.2693 C152.333,254.5573 152.762,256.2623 154.008,257.8313 C154.523,258.4803 154.415,259.4243 153.766,259.9393 C153.49,260.1583 153.161,260.2643 152.834,260.2643" id="Fill-31" fill="#000"/><path d="M139.4991,306.1803 C136.1731,306.1803 132.8501,305.7223 129.6291,304.8103 L81.1171,291.0523 C80.3201,290.8263 79.8571,289.9973 80.0831,289.2013 C80.3091,288.4033 81.1401,287.9403 81.9361,288.1663 L130.4481,301.9233 C136.0401,303.5083 141.9761,303.5963 147.6121,302.1733 L203.1731,288.1553 C203.9811,287.9533 204.7921,288.4403 204.9951,289.2433 C205.1971,290.0463 204.7101,290.8623 203.9071,291.0643 L148.3461,305.0823 C145.4451,305.8143 142.4721,306.1803 139.4991,306.1803" id="Fill-33" fill="#B02D1C"/><path d="M117.4229,335.9733 L81.5269,335.9733 C80.6979,335.9733 80.0269,335.3013 80.0269,334.4733 C80.0269,333.6443 80.6979,332.9733 81.5269,332.9733 L117.4229,332.9733 C118.2519,332.9733 118.9229,333.6443 118.9229,334.4733 C118.9229,335.3013 118.2519,335.9733 117.4229,335.9733" id="Fill-35" fill="#B02D1C"/><path d="M200.9424,335.9733 C200.9054,335.9733 200.8674,335.9713 200.8304,335.9693 C194.9794,335.5363 163.9204,335.9693 163.6064,335.9733 L163.5854,335.9733 C162.7664,335.9733 162.0974,335.3153 162.085239,334.4943 C162.0734,333.6653 162.7354,332.9853 163.5644,332.9733 C164.8484,332.9543 195.0674,332.5353 201.0514,332.9773 C201.8784,333.0383 202.4984,333.7573 202.4374,334.5833 C202.3784,335.3723 201.7204,335.9733 200.9424,335.9733" id="Fill-37" fill="#B02D1C"/><path d="M136.6143,297.9215 C137.0693,301.6075 142.9693,301.2185 143.1963,297.8945 C143.5253,293.0825 136.0873,293.6535 136.6143,297.9215" id="Fill-39" fill="#D5E1D5"/><path d="M106.1377,0.9342 L94.7387,0.9342 C89.5847,0.9342 85.1987,4.6282 84.2827,9.6692 C84.2727,9.7322 84.2637,9.7932 84.2537,9.8562 L84.2487,9.8902 C84.2117,10.1352 84.1737,10.3862 84.1367,10.6352 C82.8097,19.3762 81.1717,30.0862 81.1717,30.0862 L116.6047,30.0862 L116.6767,22.3222 L116.7747,11.6702 C116.8297,5.7572 112.0517,0.9342 106.1377,0.9342" id="Fill-41" fill="#b02d1c"/><path d="M116.6046,30.0865 C102.7296,29.1105 98.9126,26.1635 99.0466,23.6875 C99.1666,21.4685 102.1576,21.7285 102.1576,21.7285 L116.6766,22.3215" id="Fill-43" fill="#000"/></g></g></g></g><g id="Head" transform="translate(204.000000, 198.000000) scale(1 1)"><g id="Head/Double Bun" stroke="none" stroke-width="1" fill="none" fill-rule="evenodd"><g id="Group-183" transform="translate(71.000000, 58.000000)"><g id="Group-93" transform="translate(0.000000, 0.738000)"><path d="M80.8934,66.7692 C80.3454,63.0942 74.3224,59.8552 71.6904,58.8062 C70.2904,52.7022 68.8684,47.5952 67.4804,45.0002 C64.7764,39.9432 56.5294,34.6282 43.3404,36.6692 C34.5834,38.0252 25.2574,46.1942 31.3144,60.4152 C31.3144,60.4152 33.0474,63.8622 32.2174,69.5462 C32.1264,70.1722 31.9964,71.0472 31.8404,72.0882 L31.8394,72.0962 C31.5764,73.8562 31.2354,76.1132 30.8624,78.5772 C30.8524,78.6392 30.8434,78.7002 30.8334,78.7632 L30.8284,78.7972 C30.7914,79.0422 30.7534,79.2922 30.7154,79.5412 C30.4864,82.1312 31.1924,90.6072 50.2694,90.7042 L63.2554,91.2292 L63.4534,91.2372 C63.4534,91.2372 67.8054,91.1892 70.4384,91.1892 C75.9134,91.1892 76.8534,85.9702 76.2384,82.1072 C76.0184,80.7262 75.2904,76.4322 74.2844,71.1892 C76.6804,71.0502 81.4244,70.3292 80.8934,66.7692" id="Fill-85" fill="#b02d1c"/><path d="M38.8339,32.9577 C49.7449,55.1767 90.0119,38.4277 76.6069,13.2267 C62.0509,-14.1363 25.5479,5.9007 38.8339,32.9577" id="Fill-87" fill="#150656"/><path d="M45.597,58.8063 C42.526,59.0033 40.241,60.6173 40.109,64.2383 C40.035,66.2843 41.033,68.5083 41.914,70.0573 C42.414,70.9333 41.78,72.0173 40.771,71.9985463 C38.386,71.9553 34.756,71.8783 32.275,71.7763 C32.275,71.7763 26.038,66.2093 26.925,48.6963 C26.925,48.6963 26.814,34.9953 48.651,34.9953 C70.488,34.9953 69.997,48.6963 69.997,48.6963 L52.531,48.6963 C52.531,48.6963 52.198,53.5183 50.313,56.5023 C48.99,58.5983 45.597,58.8063 45.597,58.8063" id="Fill-89" fill="#150656"/><path d="M3.4686,46.2458 C14.3796,68.4648 54.6466,51.7158 41.2416,26.5158 C26.6866,-0.8472 -9.8174,19.1898 3.4686,46.2458" id="Fill-91" fill="#150656"/></g></g></g></g><g id="Expression" transform="translate(315.000000, 299.000000) scale(1 1)"><defs><path d="M2.973,1.055 C-0.453,2.37 -2.944,13.004 10.567,16.001 L10.567,16.001 C16.271,17.266 19.387,14.583 19.536,11.9 L19.536,11.9 C19.665,9.554 17.527,7.208 12.869,7.501 L12.869,7.501 C11.822,7.568 10.572,7.073 9.905,5.972 L9.905,5.972 C8.651,3.902 7.906,0.626 4.999,0.626 L4.999,0.626 C4.417,0.626 3.749,0.757 2.973,1.055" id="expressionlaugh-path-1"/></defs><g id="Expression/Laugh" stroke="none" stroke-width="1" fill="none" fill-rule="evenodd"><g id="Group-77" transform="translate(13.400000, 13.300000)"><g id="Group-3" transform="translate(0.000000, 0.116900)"><g id="Group" transform="translate(0.000000, 15.000000)"><path d="M2.973,1.0549 C-0.453,2.3699 -2.944,13.0039 10.567,15.9999 C21.261,18.3719 22.855,6.8709 12.869,7.5009 C11.822,7.5679 10.571,7.0739 9.904,5.9719 C8.4,3.4879 7.63,-0.7321 2.973,1.0549" id="Fill-37" fill="#000"/><g id="Group-41"><mask id="expressionlaugh-mask-2" fill="#ffffff"><use xlink:href="#expressionlaugh-path-1" fill="#ffffff"/></mask><g id="Clip-40"/><path d="M-3.2101,3.4943 C-3.2101,3.4943 1.3509,2.7393 5.4389,7.3023 C9.5279,11.8643 9.1349,18.8593 9.1349,18.8593 C9.1349,18.8593 -6.6571,11.2823 -3.2101,3.4943" id="Fill-39" fill="#FF71DB" mask="url(#expressionlaugh-mask-2)"/></g></g><g id="Group-46" transform="translate(3.000000, 0.000000)"><path d="M3.1312,6.052 C3.7892,6.555 4.7312,6.427 5.2332,5.769 C7.2772,3.086 9.8032,4.136 10.1002,4.271 C10.8412,4.624 11.7342,4.313 12.0932,3.571 C12.4552,2.825 12.1432,1.928 11.3982,1.566 C10.3642,1.065 8.4892,0.66 6.5312,1.268 C5.2702,1.659 3.9732,2.472 2.8462,3.95 C2.3442,4.61 2.4722,5.55 3.1312,6.052" id="Fill-42" fill="#000"/><path d="M4.6669,6.3596 C4.6669,7.0556 3.7149,7.6196 2.5399,7.6196 C1.3649,7.6196 0.4129,7.0556 0.4129,6.3596 C0.4129,5.6646 1.3649,5.0996 2.5399,5.0996 C3.7149,5.0996 4.6669,5.6646 4.6669,6.3596" id="Fill-44" fill="#F8FBF8"/></g></g></g></g></g><g id="Facial Hair" transform="translate(311.300000, 303.950000) scale(1 1)" fill="#000"><g id="Facial Hair/None" stroke="none" stroke-width="1" fill="none" fill-rule="evenodd" fill-opacity="0"/></g><g id="Accesories" transform="translate(311.300000, 303.950000) scale(1 1)" fill="#000"><g id="Accesories/None" stroke="none" stroke-width="1" fill="none" fill-rule="evenodd" fill-opacity="0"/></g></g></g></g></svg>